{"glyphs":{"0":{"ha":833,"x_min":85,"x_max":749,"o":"m 85 708 q 108 834 85 778 q 175 931 132 890 q 280 992 218 971 q 417 1014 342 1014 q 553 992 492 1014 q 658 931 615 971 q 725 834 701 890 q 749 708 749 778 l 749 293 q 725 168 749 225 q 658 71 701 111 q 553 8 614 31 q 417 -14 492 -14 q 280 8 342 -14 q 175 69 218 29 q 108 167 132 110 q 85 293 85 224 l 85 708 m 254 293 q 299 181 254 222 q 417 139 343 139 q 535 181 490 139 q 579 293 579 222 l 579 708 q 535 821 579 779 q 417 863 490 863 q 299 821 343 863 q 254 708 254 779 l 254 293 m 351 596 q 369 649 351 629 q 417 669 388 669 q 464 649 446 669 q 482 596 482 629 l 482 390 q 464 338 482 358 q 417 318 446 318 q 369 338 388 318 q 351 390 351 358 l 351 596 z "},"1":{"ha":833,"x_min":108,"x_max":768,"o":"m 108 151 l 376 151 l 376 749 q 377 789 376 771 q 379 821 378 807 q 382 850 381 838 l 379 850 q 363 835 371 843 q 343 819 354 828 q 319 803 332 811 l 124 674 l 124 843 l 350 1000 l 550 1000 l 550 151 l 768 151 l 768 0 l 108 0 l 108 151 z "},"2":{"ha":833,"x_min":74,"x_max":751,"o":"m 74 719 q 100 840 75 786 q 169 933 125 894 q 277 992 214 971 q 417 1014 340 1014 q 549 993 489 1014 q 651 933 608 972 q 716 841 693 894 q 739 721 739 788 q 726 621 739 669 q 684 524 713 572 q 611 428 656 476 q 506 329 567 381 l 361 210 q 301 172 328 186 q 272 158 286 164 l 272 153 q 314 156 292 154 q 356 156 333 156 q 403 157 379 157 l 751 157 l 751 0 l 81 0 l 81 183 l 400 443 q 526 578 488 515 q 564 713 564 642 q 524 821 564 781 q 414 861 483 861 q 294 822 339 861 q 250 719 250 783 l 74 719 z "},"3":{"ha":833,"x_min":76,"x_max":753,"o":"m 414 -14 q 282 5 342 -14 q 178 59 222 24 q 108 144 135 94 q 76 257 82 194 l 250 257 q 303 167 258 201 q 414 133 347 133 q 534 179 489 133 q 579 300 579 225 q 532 420 579 375 q 407 465 485 465 l 285 465 l 285 631 l 446 782 q 479 810 461 797 q 513 833 497 822 q 547 856 531 846 l 547 865 q 508 860 529 861 q 465 855 489 857 q 414 853 442 853 l 117 853 l 117 1000 l 710 1000 l 710 833 l 507 656 q 463 622 482 636 q 442 610 451 615 q 572 583 514 607 q 669 519 629 560 q 731 424 710 479 q 753 300 753 368 q 728 171 753 229 q 660 72 704 113 q 554 8 617 31 q 414 -14 492 -14 z "},"4":{"ha":833,"x_min":90,"x_max":719,"o":"m 485 1000 l 679 1000 l 256 403 l 256 350 l 546 350 l 546 569 l 719 569 l 719 0 l 546 0 l 546 199 l 90 199 l 90 443 l 485 1000 z "},"5":{"ha":833,"x_min":83,"x_max":758,"o":"m 261 229 q 316 160 274 186 q 419 133 358 133 q 538 176 494 133 q 582 290 582 219 l 582 347 q 538 461 582 418 q 419 504 494 504 q 282 447 324 504 l 111 447 l 118 1000 l 717 1000 l 717 847 l 283 847 l 278 538 l 285 538 q 322 590 297 567 q 380 626 343 610 q 475 642 417 642 q 592 621 540 642 q 681 562 644 600 q 738 469 718 524 q 758 347 758 415 l 758 290 q 734 165 758 221 q 666 69 710 108 q 560 8 622 29 q 419 -14 497 -14 q 292 3 350 -14 q 191 52 235 21 q 119 128 147 83 q 83 229 92 174 l 261 229 z "},"6":{"ha":833,"x_min":74,"x_max":761,"o":"m 74 313 q 113 501 74 406 q 226 713 151 596 l 410 1000 l 608 1000 l 388 665 q 333 584 353 614 q 301 539 313 554 q 285 515 289 521 l 299 515 q 340 565 315 543 q 397 599 363 583 q 479 614 431 614 q 594 592 542 614 q 683 529 646 569 q 740 433 719 489 q 761 307 761 376 q 736 176 761 235 q 666 74 711 117 q 558 9 621 32 q 417 -14 494 -14 q 276 10 339 -14 q 167 76 213 33 q 98 178 122 118 q 74 313 74 239 m 247 307 q 294 181 247 228 q 417 133 340 133 q 540 181 493 133 q 588 307 588 228 q 540 433 588 386 q 417 479 493 479 q 294 432 342 479 q 247 307 247 385 z "},"7":{"ha":833,"x_min":88,"x_max":750,"o":"m 88 690 l 88 1000 l 750 1000 l 750 819 l 396 0 l 206 0 l 538 747 q 556 785 547 768 q 571 813 564 801 q 588 836 579 825 l 588 842 q 547 840 567 840 q 512 840 531 840 q 479 839 493 839 l 250 839 l 250 690 l 88 690 z "},"8":{"ha":833,"x_min":74,"x_max":761,"o":"m 74 276 q 132 438 74 372 q 288 519 190 504 l 288 525 q 208 550 244 531 q 147 599 172 569 q 108 667 122 629 q 94 749 94 706 q 117 858 94 810 q 182 942 140 907 q 283 995 224 976 q 417 1014 343 1014 q 550 995 490 1014 q 652 942 610 976 q 717 858 694 907 q 740 749 740 810 q 726 667 740 706 q 687 599 713 629 q 626 550 661 569 q 546 525 590 531 l 546 519 q 703 439 644 504 q 761 278 761 374 q 737 158 761 213 q 667 66 713 104 q 559 7 622 28 q 417 -14 496 -14 q 274 7 338 -14 q 167 66 211 28 q 98 158 122 104 q 74 276 74 211 m 417 457 q 294 413 340 457 q 249 293 249 368 q 294 174 249 221 q 417 126 340 126 q 540 174 494 126 q 586 293 586 221 q 540 413 586 368 q 417 457 494 457 m 417 882 q 303 843 346 882 q 261 740 261 804 q 303 629 261 674 q 417 585 346 585 q 530 628 488 585 q 572 740 572 672 q 530 843 572 804 q 417 882 488 882 z "},"9":{"ha":833,"x_min":74,"x_max":761,"o":"m 74 693 q 99 824 74 765 q 169 926 124 883 q 277 991 214 968 q 417 1014 340 1014 q 558 991 494 1014 q 667 925 622 968 q 737 822 713 882 q 761 688 761 761 q 721 499 761 594 q 607 288 681 404 l 424 0 l 225 0 l 447 335 q 501 416 482 386 q 532 461 521 446 q 549 485 544 479 l 535 485 q 493 436 518 457 q 437 401 471 417 q 354 386 403 386 q 240 408 292 386 q 151 471 189 431 q 94 567 114 511 q 74 693 74 624 m 417 521 q 540 568 492 521 q 588 693 588 615 q 540 819 588 772 q 417 867 493 867 q 294 819 340 867 q 247 693 247 772 q 294 567 247 614 q 417 521 340 521 z "},"\u0000":{"ha":0,"x_min":0,"x_max":0,"o":""},"\r":{"ha":833,"x_min":0,"x_max":0,"o":""}," ":{"ha":833,"x_min":0,"x_max":0,"o":""}," ":{"ha":833,"x_min":0,"x_max":0,"o":""},"H":{"ha":833,"x_min":104,"x_max":728,"o":"m 104 0 l 104 1000 l 278 1000 l 278 600 l 554 600 l 554 1000 l 728 1000 l 728 0 l 554 0 l 554 440 l 278 440 l 278 0 l 104 0 z "},"n":{"ha":833,"x_min":100,"x_max":731,"o":"m 100 764 l 264 764 l 264 632 l 276 632 q 343 740 290 703 q 479 778 396 778 q 664 701 597 778 q 731 499 731 625 l 731 0 l 557 0 l 557 478 q 519 588 557 549 q 417 628 482 628 q 312 587 350 628 q 274 475 274 546 l 274 0 l 100 0 l 100 764 z "},"p":{"ha":833,"x_min":101,"x_max":749,"o":"m 101 764 l 269 764 l 269 632 l 282 632 q 349 739 296 700 q 486 778 403 778 q 594 757 546 778 q 677 697 643 736 q 730 603 711 658 q 749 479 749 549 l 749 289 q 730 163 749 219 q 677 67 711 107 q 594 7 643 28 q 486 -14 546 -14 q 349 25 403 -14 q 282 133 296 64 l 269 133 q 271 116 269 129 q 273 83 272 103 q 275 42 274 64 q 276 0 276 21 l 276 -236 l 101 -236 l 101 764 m 276 475 l 276 289 q 316 179 276 221 q 424 138 356 138 q 535 180 494 138 q 575 293 575 222 l 575 475 q 535 587 575 546 q 424 628 494 628 q 317 586 357 628 q 276 475 276 544 z "},"(":{"ha":833,"x_min":233,"x_max":674,"o":"m 233 632 q 263 819 233 732 q 350 976 293 906 q 489 1097 407 1046 q 674 1174 571 1147 l 674 1003 q 562 955 611 988 q 478 874 513 922 q 426 765 444 826 q 407 632 407 703 l 407 367 q 478 128 407 226 q 674 1 549 31 l 674 -174 q 348 22 463 -118 q 233 367 233 163 l 233 632 z "},"o":{"ha":833,"x_min":85,"x_max":749,"o":"m 417 -14 q 280 8 342 -14 q 175 70 218 31 q 108 165 132 110 q 85 289 85 221 l 85 476 q 108 600 85 544 q 175 695 132 656 q 280 756 218 735 q 417 778 342 778 q 553 756 492 778 q 658 695 615 735 q 725 600 701 656 q 749 476 749 544 l 749 289 q 725 165 749 221 q 658 69 701 108 q 554 8 615 29 q 417 -14 493 -14 m 258 289 q 301 179 258 219 q 417 139 343 139 q 533 179 490 139 q 575 289 575 219 l 575 476 q 533 586 575 546 q 417 626 490 626 q 301 586 343 626 q 258 476 258 546 l 258 289 z "},"i":{"ha":833,"x_min":115,"x_max":776,"o":"m 115 158 l 389 158 l 389 607 l 150 607 l 150 764 l 556 764 l 556 158 l 776 158 l 776 0 l 115 0 l 115 158 m 339 971 q 366 1037 339 1011 q 438 1063 393 1063 l 474 1063 q 545 1037 518 1063 q 572 971 572 1011 q 545 904 572 929 q 472 879 518 879 l 438 879 q 366 904 393 879 q 339 971 339 929 z "},"l":{"ha":833,"x_min":43,"x_max":776,"o":"m 43 849 l 43 1006 l 460 1006 l 460 247 q 484 181 460 204 q 549 157 508 157 l 776 157 l 776 0 l 536 0 q 353 65 419 0 q 286 247 286 131 l 286 849 l 43 849 z "},"O":{"ha":833,"x_min":85,"x_max":749,"o":"m 417 -14 q 280 8 342 -14 q 175 69 218 29 q 108 167 132 110 q 85 293 85 224 l 85 708 q 108 834 85 778 q 175 931 132 890 q 280 992 218 971 q 417 1014 342 1014 q 553 992 492 1014 q 658 931 615 971 q 725 834 701 890 q 749 708 749 778 l 749 293 q 725 168 749 225 q 658 71 701 111 q 553 8 614 31 q 417 -14 492 -14 m 258 293 q 301 181 258 222 q 417 139 344 139 q 532 181 489 139 q 575 293 575 222 l 575 708 q 532 821 575 779 q 417 863 489 863 q 301 821 344 863 q 258 708 258 779 l 258 293 z "},"h":{"ha":833,"x_min":100,"x_max":731,"o":"m 100 1000 l 274 1000 l 274 764 q 272 720 274 743 q 269 678 271 697 q 265 645 267 658 q 264 632 264 632 l 278 632 q 343 740 290 701 q 479 778 396 778 q 663 703 594 778 q 731 500 731 628 l 731 0 l 557 0 l 557 479 q 519 588 557 549 q 417 628 482 628 q 312 587 350 628 q 274 475 274 546 l 274 0 l 100 0 l 100 1000 z "},"k":{"ha":833,"x_min":111,"x_max":796,"o":"m 111 1000 l 285 1000 l 285 463 l 407 463 l 597 764 l 792 764 l 556 392 l 796 0 l 597 0 l 407 314 l 285 314 l 285 0 l 111 0 l 111 1000 z "},"g":{"ha":833,"x_min":81,"x_max":732,"o":"m 81 482 q 99 603 81 549 q 153 697 118 658 q 236 757 188 736 q 344 778 285 778 q 486 737 431 778 q 556 625 542 696 l 565 625 l 565 764 l 732 764 l 732 44 q 710 -72 732 -19 q 646 -160 688 -124 q 545 -216 604 -196 q 414 -236 486 -236 l 210 -236 l 210 -92 l 414 -92 q 519 -55 481 -92 q 558 44 558 -18 l 558 63 l 564 207 l 556 207 q 485 95 542 136 q 344 54 429 54 q 236 76 285 54 q 153 135 188 97 q 99 228 118 174 q 81 350 81 283 l 81 482 m 256 354 q 296 245 256 285 q 407 206 336 206 q 517 245 476 206 q 558 354 558 285 l 558 478 q 517 588 558 547 q 407 628 476 628 q 296 588 336 628 q 256 478 256 547 l 256 354 z "},">":{"ha":833,"x_min":106,"x_max":728,"o":"m 106 86 l 106 247 l 508 426 q 547 440 528 435 q 581 447 565 444 q 614 450 597 449 l 614 461 q 581 467 597 463 q 547 474 565 469 q 508 488 528 479 l 106 667 l 106 829 l 728 544 l 728 371 l 106 86 z "},"}":{"ha":833,"x_min":114,"x_max":728,"o":"m 210 1153 q 316 1135 268 1153 q 398 1086 364 1118 q 449 1009 432 1054 q 463 907 467 964 l 449 694 q 472 609 444 638 q 563 581 499 581 l 728 581 l 728 421 l 563 421 q 473 392 500 421 q 449 306 446 363 l 463 89 q 449 -12 465 33 q 399 -89 432 -57 q 317 -137 365 -121 q 210 -154 268 -154 l 114 -154 l 114 7 l 185 7 q 263 31 235 7 q 289 104 292 54 l 275 322 q 319 446 269 400 q 450 494 368 492 l 450 501 q 318 552 367 504 q 275 678 269 600 l 289 894 q 263 967 292 942 q 185 993 233 993 l 114 993 l 114 1153 l 210 1153 z "},"A":{"ha":833,"x_min":33,"x_max":800,"o":"m 303 1000 l 538 1000 l 800 0 l 621 0 l 561 251 l 271 251 l 211 0 l 33 0 l 303 1000 m 528 389 l 443 746 q 433 796 438 771 q 425 840 428 821 q 419 885 422 863 l 413 885 q 407 840 410 863 q 400 796 404 821 q 389 746 396 771 l 304 389 l 528 389 z "},"B":{"ha":833,"x_min":103,"x_max":761,"o":"m 103 1000 l 421 1000 q 657 931 571 1000 q 743 742 743 861 q 692 593 743 650 q 553 529 640 536 l 553 517 q 706 449 650 510 q 761 288 761 388 q 738 168 761 221 q 673 78 715 115 q 569 20 631 40 q 432 0 508 0 l 103 0 l 103 1000 m 272 444 l 272 144 l 421 144 q 542 184 499 144 q 585 294 585 224 q 542 405 585 365 q 421 444 499 444 l 272 444 m 418 588 q 526 624 486 588 q 567 722 567 660 q 527 820 567 785 q 419 856 488 856 l 272 856 l 272 588 l 418 588 z "},"C":{"ha":833,"x_min":93,"x_max":754,"o":"m 424 -14 q 288 8 349 -14 q 183 69 226 29 q 117 167 140 110 q 93 293 93 224 l 93 707 q 117 833 93 776 q 183 931 140 890 q 288 992 226 971 q 424 1014 349 1014 q 556 993 497 1014 q 658 934 615 972 q 726 841 701 896 q 754 719 751 786 l 581 719 q 535 822 578 785 q 424 858 493 858 q 309 818 351 858 q 267 707 267 778 l 267 293 q 308 182 267 222 q 424 142 349 142 q 535 180 493 142 q 581 282 578 218 l 754 282 q 659 66 747 146 q 424 -14 571 -14 z "},"D":{"ha":833,"x_min":101,"x_max":749,"o":"m 101 1000 l 410 1000 q 549 977 486 1000 q 656 913 611 954 q 724 813 700 871 q 749 683 749 754 l 749 318 q 724 188 749 247 q 656 88 700 129 q 549 23 611 46 q 410 0 486 0 l 101 0 l 101 1000 m 276 160 l 410 160 q 529 203 485 160 q 574 318 574 247 l 574 683 q 529 797 574 754 q 410 840 485 840 l 276 840 l 276 160 z "},"E":{"ha":833,"x_min":119,"x_max":735,"o":"m 119 0 l 119 1000 l 735 1000 l 735 847 l 293 847 l 293 590 l 686 590 l 686 438 l 293 438 l 293 153 l 735 153 l 735 0 l 119 0 z "},"F":{"ha":833,"x_min":111,"x_max":742,"o":"m 111 1000 l 742 1000 l 742 840 l 283 840 l 283 583 l 706 583 l 706 424 l 286 424 l 286 0 l 111 0 l 111 1000 z "},"G":{"ha":833,"x_min":85,"x_max":751,"o":"m 85 293 l 85 707 q 108 831 85 775 q 176 927 132 888 q 281 988 219 967 q 417 1010 342 1010 q 644 938 556 1010 q 751 735 732 865 l 576 735 q 525 822 568 790 q 417 854 482 854 q 301 815 343 854 q 258 707 258 775 l 258 293 q 301 181 258 222 q 417 139 343 139 q 533 181 490 139 q 575 293 575 222 l 575 389 l 399 389 l 399 538 l 749 538 l 749 293 q 725 167 749 224 q 658 69 701 110 q 553 8 615 29 q 417 -14 492 -14 q 281 8 342 -14 q 176 71 219 31 q 108 167 132 111 q 85 293 85 224 z "},"I":{"ha":833,"x_min":115,"x_max":718,"o":"m 115 849 l 115 1000 l 718 1000 l 718 849 l 504 849 l 504 151 l 718 151 l 718 0 l 115 0 l 115 151 l 329 151 l 329 849 l 115 849 z "},"J":{"ha":833,"x_min":42,"x_max":711,"o":"m 217 272 q 266 174 224 211 q 375 138 308 138 q 494 181 450 138 q 538 296 538 224 l 538 842 l 181 842 l 181 1001 l 711 1001 l 711 296 q 688 166 711 224 q 620 68 664 108 q 515 6 576 28 q 375 -15 453 -15 q 245 5 304 -15 q 143 63 186 25 q 74 153 100 100 q 42 272 47 206 l 217 272 z "},"K":{"ha":833,"x_min":104,"x_max":803,"o":"m 279 1000 l 279 594 l 407 594 l 599 1000 l 792 1000 l 560 521 l 803 0 l 607 0 l 407 438 l 279 438 l 279 0 l 104 0 l 104 1000 l 279 1000 z "},"L":{"ha":833,"x_min":138,"x_max":747,"o":"m 311 1000 l 311 161 l 747 161 l 747 0 l 138 0 l 138 1000 l 311 1000 z "},"M":{"ha":833,"x_min":76,"x_max":758,"o":"m 282 1000 l 386 682 q 399 637 393 661 q 408 590 404 613 q 415 540 413 565 l 426 540 q 435 590 429 565 q 442 637 438 613 q 454 682 447 661 l 550 1000 l 758 1000 l 758 0 l 603 0 l 603 649 q 606 727 603 686 q 613 801 610 768 q 622 879 617 842 l 604 879 q 588 807 596 843 q 572 740 581 775 q 553 678 563 706 l 483 440 l 353 440 l 279 678 q 260 743 269 708 q 243 808 250 778 q 226 879 235 844 l 211 879 q 221 801 217 842 q 228 727 225 768 q 231 649 231 686 l 231 0 l 76 0 l 76 1000 l 282 1000 z "},"N":{"ha":833,"x_min":96,"x_max":738,"o":"m 310 1000 l 550 335 q 565 283 558 313 q 576 228 571 254 q 586 164 582 196 l 603 164 q 600 185 603 164 q 594 238 597 206 q 587 308 590 269 q 583 383 583 347 l 583 1000 l 738 1000 l 738 0 l 524 0 l 288 667 q 271 724 278 694 q 260 779 264 753 q 250 838 254 808 l 233 838 q 242 767 238 804 q 247 697 244 735 q 250 618 250 658 l 250 0 l 96 0 l 96 1000 l 310 1000 z "},"P":{"ha":833,"x_min":103,"x_max":781,"o":"m 449 1000 q 585 978 524 1000 q 690 917 647 957 q 757 822 733 878 q 781 696 781 765 q 757 572 781 628 q 690 476 733 515 q 585 415 646 436 q 449 393 524 393 l 276 393 l 276 0 l 103 0 l 103 1000 l 449 1000 m 276 540 l 449 540 q 563 583 521 540 q 604 696 604 625 q 563 810 604 767 q 449 853 521 853 l 276 853 l 276 540 z "},"Q":{"ha":833,"x_min":85,"x_max":756,"o":"m 85 293 l 85 708 q 108 834 85 778 q 175 931 132 890 q 280 992 218 971 q 417 1014 342 1014 q 553 992 492 1014 q 658 931 615 971 q 725 834 701 890 q 749 708 749 778 l 749 293 q 706 129 749 199 q 589 24 664 60 l 756 -229 l 568 -229 l 425 -14 q 291 6 353 -14 q 183 64 229 25 q 111 160 138 103 q 85 293 85 217 m 417 139 q 532 181 489 139 q 575 293 575 222 l 575 708 q 532 821 575 779 q 417 863 489 863 q 301 821 344 863 q 258 708 258 779 l 258 293 q 301 181 258 222 q 417 139 344 139 z "},"R":{"ha":833,"x_min":104,"x_max":779,"o":"m 432 1000 q 569 978 507 1000 q 674 918 631 957 q 742 824 718 879 q 765 700 765 768 q 715 529 765 600 q 578 426 665 458 l 779 0 l 588 0 l 407 400 l 278 400 l 278 0 l 104 0 l 104 1000 l 432 1000 m 278 540 l 432 540 q 547 582 504 540 q 589 694 589 624 q 546 810 589 767 q 432 853 503 853 l 278 853 l 278 540 z "},"S":{"ha":833,"x_min":76,"x_max":757,"o":"m 76 265 l 254 265 q 301 172 257 206 q 421 138 346 138 q 540 172 499 138 q 582 265 582 207 q 550 355 582 317 q 463 408 518 393 l 353 440 q 160 550 225 475 q 96 738 96 625 q 119 851 96 800 q 183 939 142 903 q 285 995 225 975 q 419 1015 344 1015 q 649 942 563 1015 q 742 742 735 868 l 565 742 q 522 831 563 799 q 415 863 482 863 q 309 830 349 863 q 269 742 269 797 q 299 663 269 696 q 389 611 328 629 l 506 578 q 692 466 628 543 q 757 274 757 389 q 733 156 757 208 q 664 65 708 103 q 557 7 619 28 q 417 -14 494 -14 q 280 6 342 -14 q 174 63 218 26 q 104 150 129 99 q 76 265 79 201 z "},"T":{"ha":833,"x_min":54,"x_max":779,"o":"m 54 840 l 54 1000 l 779 1000 l 779 840 l 504 840 l 504 0 l 329 0 l 329 840 l 54 840 z "},"U":{"ha":833,"x_min":97,"x_max":736,"o":"m 417 -14 q 182 67 267 -14 q 97 289 97 147 l 97 1000 l 272 1000 l 272 290 q 309 178 272 218 q 417 138 346 138 q 524 178 486 138 q 563 290 563 218 l 563 1000 l 736 1000 l 736 289 q 651 67 736 147 q 417 -14 567 -14 z "},"V":{"ha":833,"x_min":33,"x_max":800,"o":"m 33 1000 l 213 1000 l 390 254 q 401 206 397 231 q 408 160 406 181 q 414 115 411 138 l 421 115 q 426 160 424 138 q 434 206 429 181 q 444 254 439 231 l 624 1000 l 800 1000 l 531 0 l 296 0 l 33 1000 z "},"W":{"ha":833,"x_min":22,"x_max":811,"o":"m 22 1000 l 172 1000 l 229 308 q 232 250 232 283 q 233 186 232 217 q 233 113 233 150 l 251 113 q 254 186 253 150 q 258 250 256 217 q 263 308 260 283 l 346 1000 l 490 1000 l 569 308 q 575 250 572 283 q 579 186 578 217 q 583 113 582 150 l 603 113 q 604 186 603 150 q 605 250 604 217 q 608 308 606 283 l 663 1000 l 811 1000 l 710 0 l 508 0 l 435 690 q 431 758 432 722 q 429 824 429 793 q 429 893 429 858 l 408 893 q 408 824 408 858 q 406 758 407 793 q 400 690 404 722 l 319 0 l 121 0 l 22 1000 z "},"X":{"ha":833,"x_min":39,"x_max":794,"o":"m 319 514 l 57 1000 l 250 1000 l 378 753 q 395 717 389 733 q 407 690 401 701 q 415 665 411 676 l 422 665 q 431 689 426 676 q 442 716 436 700 q 458 750 449 732 l 589 1000 l 778 1000 l 514 517 l 794 0 l 600 0 l 457 276 q 428 342 436 315 q 418 367 422 356 l 411 367 q 403 342 407 356 q 391 314 397 331 q 374 278 385 297 l 228 0 l 39 0 l 319 514 z "},"Y":{"ha":833,"x_min":29,"x_max":804,"o":"m 213 1000 l 385 610 q 401 567 394 588 q 410 529 407 546 q 415 492 414 510 l 424 492 q 431 529 426 510 q 440 567 433 546 q 456 610 446 588 l 622 1000 l 804 1000 l 504 347 l 504 0 l 331 0 l 331 347 l 29 1000 l 213 1000 z "},"Z":{"ha":833,"x_min":110,"x_max":724,"o":"m 708 1000 l 708 839 l 296 156 l 296 153 l 394 158 l 724 158 l 724 0 l 110 0 l 110 160 l 521 844 l 521 847 l 421 842 l 121 842 l 121 1000 l 708 1000 z "},".":{"ha":833,"x_min":282,"x_max":551,"o":"m 282 122 q 319 222 282 185 q 417 258 356 258 q 515 222 479 258 q 551 122 551 185 q 515 24 551 61 q 417 -14 479 -14 q 319 24 356 -14 q 282 122 282 61 z "},"a":{"ha":833,"x_min":71,"x_max":733,"o":"m 71 214 q 92 316 71 271 q 151 393 113 361 q 245 442 190 425 q 368 460 300 460 l 560 460 l 560 525 q 520 609 560 578 q 410 640 481 640 q 314 619 353 640 q 264 563 275 599 l 94 563 q 129 652 103 613 q 197 719 156 692 q 293 763 239 747 q 411 778 347 778 q 544 760 485 778 q 646 710 604 743 q 710 631 688 678 q 733 528 733 585 l 733 0 l 569 0 l 569 150 l 557 150 q 479 31 544 75 q 317 -14 414 -14 q 138 48 204 -14 q 71 214 71 110 m 244 235 q 280 152 244 182 q 379 122 315 122 q 508 160 457 122 q 560 257 560 199 l 560 346 l 369 346 q 278 317 311 346 q 244 235 244 288 z "},"b":{"ha":833,"x_min":101,"x_max":749,"o":"m 101 1000 l 276 1000 l 276 769 q 276 726 276 750 q 274 681 275 701 q 269 632 271 657 l 282 632 q 349 739 296 700 q 486 778 403 778 q 594 757 546 778 q 677 697 643 736 q 730 603 711 658 q 749 479 749 549 l 749 289 q 730 163 749 219 q 677 67 711 107 q 594 7 643 28 q 486 -14 546 -14 q 349 25 403 -14 q 282 133 296 64 l 269 133 l 269 0 l 101 0 l 101 1000 m 276 289 q 316 179 276 221 q 424 138 356 138 q 535 180 494 138 q 575 293 575 222 l 575 475 q 535 587 575 546 q 424 628 494 628 q 317 586 357 628 q 276 475 276 544 l 276 289 z "},"c":{"ha":833,"x_min":94,"x_max":758,"o":"m 425 -14 q 289 7 350 -14 q 185 67 228 28 q 118 160 142 106 q 94 283 94 215 l 94 479 q 118 602 94 547 q 185 696 142 657 q 289 756 228 735 q 425 778 350 778 q 549 759 492 778 q 649 705 606 740 q 720 620 692 669 q 758 508 749 571 l 585 508 q 532 594 575 561 q 425 626 489 626 q 310 588 351 626 q 268 479 268 549 l 268 283 q 309 176 268 215 q 425 138 350 138 q 531 170 488 138 q 585 256 575 203 l 758 256 q 720 144 749 193 q 648 59 692 94 q 548 5 604 24 q 425 -14 492 -14 z "},"e":{"ha":833,"x_min":85,"x_max":746,"o":"m 85 479 q 108 603 85 547 q 175 697 132 658 q 279 757 218 736 q 417 778 340 778 q 552 756 492 778 q 656 696 613 735 q 722 601 699 657 q 746 478 746 546 l 746 339 l 257 339 l 257 289 q 299 168 257 211 q 417 125 342 125 q 513 143 472 125 q 569 193 553 161 l 740 193 q 699 108 728 146 q 627 42 669 69 q 531 1 585 15 q 417 -14 478 -14 q 280 7 342 -14 q 175 67 218 28 q 108 163 132 107 q 85 286 85 218 l 85 479 m 257 456 l 576 456 l 576 478 q 534 597 576 554 q 417 639 492 639 q 299 597 342 639 q 257 479 257 554 l 257 456 z "},"f":{"ha":833,"x_min":75,"x_max":751,"o":"m 75 522 l 75 679 l 285 679 l 285 782 q 351 941 285 882 q 528 1000 417 1000 l 751 1000 l 751 847 l 532 847 q 479 828 499 847 q 460 778 460 810 l 460 679 l 751 679 l 751 522 l 460 522 l 460 0 l 285 0 l 285 522 l 75 522 z "},"j":{"ha":833,"x_min":114,"x_max":657,"o":"m 114 -75 l 321 -75 q 424 -37 386 -75 q 463 65 463 1 l 463 603 l 156 603 l 156 764 l 636 764 l 636 65 q 614 -58 636 -3 q 552 -153 592 -114 q 456 -215 513 -193 q 331 -236 400 -236 l 114 -236 l 114 -75 m 424 971 q 451 1037 424 1011 q 522 1063 478 1063 l 558 1063 q 630 1037 603 1063 q 657 971 657 1011 q 629 904 657 929 q 557 879 601 879 l 522 879 q 451 904 478 879 q 424 971 424 929 z "},"m":{"ha":833,"x_min":68,"x_max":767,"o":"m 68 0 l 68 764 l 210 764 l 210 653 l 221 653 q 258 744 225 711 q 349 778 292 778 q 431 746 401 778 q 472 653 460 714 l 483 653 q 521 744 488 711 q 611 778 554 778 q 724 726 681 778 q 767 583 767 674 l 767 0 l 611 0 l 611 569 q 546 656 611 656 q 497 632 514 656 q 479 567 479 608 l 479 0 l 356 0 l 356 569 q 337 633 356 611 q 286 656 318 656 q 238 632 253 656 q 222 567 222 608 l 222 0 l 68 0 z "},"r":{"ha":833,"x_min":132,"x_max":782,"o":"m 296 764 l 296 632 l 308 632 q 378 740 322 701 q 519 778 433 778 q 713 701 643 778 q 782 490 782 625 l 782 435 l 600 435 l 600 475 q 560 590 600 549 q 449 631 519 631 q 344 589 382 631 q 306 475 306 547 l 306 0 l 132 0 l 132 764 l 296 764 z "},"s":{"ha":833,"x_min":81,"x_max":750,"o":"m 81 196 l 258 196 q 301 140 267 160 q 388 119 336 119 l 443 119 q 544 145 508 119 q 579 215 579 171 q 461 308 579 292 l 353 321 q 160 393 222 338 q 97 553 97 449 q 173 719 97 661 q 390 778 249 778 l 447 778 q 651 724 574 778 q 742 575 728 671 l 564 575 q 526 626 557 607 q 447 644 494 644 l 390 644 q 268 558 268 644 q 371 472 268 485 l 483 457 q 685 383 619 440 q 750 221 750 325 q 671 47 750 108 q 443 -14 592 -14 l 388 -14 q 173 41 253 -14 q 81 196 93 96 z "},"t":{"ha":833,"x_min":63,"x_max":738,"o":"m 63 764 l 274 764 l 274 1000 l 447 1000 l 447 764 l 738 764 l 738 607 l 447 607 l 447 236 q 469 178 447 200 q 529 157 490 157 l 724 157 l 724 0 l 517 0 q 339 64 404 0 q 274 236 274 128 l 274 607 l 63 607 l 63 764 z "},"v":{"ha":833,"x_min":47,"x_max":786,"o":"m 47 764 l 228 764 l 390 269 q 405 216 400 242 q 413 171 410 190 q 417 126 415 147 l 426 126 q 429 171 426 147 q 437 216 432 190 q 450 269 442 242 l 606 764 l 786 764 l 521 0 l 317 0 l 47 764 z "},"w":{"ha":833,"x_min":25,"x_max":808,"o":"m 25 764 l 164 764 l 222 289 q 227 233 225 265 q 232 168 229 200 q 236 93 235 132 l 253 93 q 261 168 257 132 q 269 233 264 200 q 276 289 274 267 l 354 764 l 481 764 l 557 289 q 565 233 561 265 q 572 168 569 200 q 579 93 576 132 l 596 93 q 601 168 599 132 q 607 233 604 200 q 613 289 610 265 l 671 764 l 808 764 l 704 0 l 508 0 l 435 493 q 431 542 432 514 q 428 597 429 571 q 426 660 426 628 l 410 660 q 408 597 410 628 q 405 542 407 571 q 400 493 403 514 l 322 0 l 128 0 l 25 764 z "},"x":{"ha":833,"x_min":44,"x_max":789,"o":"m 318 394 l 63 764 l 260 764 l 389 571 q 407 535 401 553 q 413 519 411 526 l 422 519 q 426 535 424 526 q 434 551 429 542 q 446 571 439 560 l 575 764 l 772 764 l 517 394 l 789 0 l 590 0 l 447 215 q 428 251 433 239 q 421 268 424 260 l 413 268 q 406 251 410 260 q 398 235 403 244 q 386 217 393 226 l 242 0 l 44 0 l 318 394 z "},"y":{"ha":833,"x_min":49,"x_max":785,"o":"m 49 764 l 239 764 l 389 357 q 405 305 399 332 q 414 254 411 278 q 421 201 418 228 l 432 201 q 438 254 433 226 q 446 305 440 278 q 460 357 451 332 l 601 764 l 785 764 l 421 -236 l 238 -236 l 343 43 l 49 764 z "},"z":{"ha":833,"x_min":99,"x_max":735,"o":"m 99 164 l 517 614 l 517 622 q 482 618 500 619 q 447 614 467 615 q 406 613 428 613 l 110 613 l 110 764 l 719 764 l 719 599 l 299 149 l 299 139 q 333 146 315 143 q 370 150 350 149 q 410 151 390 151 l 735 151 l 735 0 l 99 0 l 99 164 z "},",":{"ha":833,"x_min":208,"x_max":542,"o":"m 542 210 l 361 -222 l 208 -222 l 319 210 l 542 210 z "},"-":{"ha":833,"x_min":139,"x_max":694,"o":"m 139 539 l 694 539 l 694 379 l 139 379 l 139 539 z "},"+":{"ha":833,"x_min":82,"x_max":751,"o":"m 82 539 l 331 539 l 331 789 l 503 789 l 503 539 l 751 539 l 751 379 l 503 379 l 503 128 l 331 128 l 331 379 l 82 379 l 82 539 z "},"*":{"ha":833,"x_min":42,"x_max":792,"o":"m 42 521 l 94 668 l 189 635 q 241 611 214 626 q 294 579 268 596 q 342 545 319 563 q 382 514 365 528 l 388 518 q 372 567 381 539 q 356 626 364 594 q 344 688 349 657 q 339 747 339 719 l 339 847 l 494 847 l 494 747 q 490 688 494 719 q 477 626 485 657 q 461 567 469 594 q 446 518 453 539 l 451 514 q 491 545 468 528 q 540 579 514 563 q 592 611 565 596 q 644 635 619 626 l 738 668 l 792 521 l 697 488 q 643 473 672 479 q 584 463 614 467 q 526 458 554 460 q 475 454 497 456 l 472 447 q 513 417 490 435 q 558 378 535 399 q 602 336 581 358 q 639 292 624 314 l 696 210 l 568 121 l 511 203 q 482 253 496 225 q 457 310 468 281 q 437 367 446 339 q 421 415 428 394 l 413 415 q 398 367 407 394 q 377 310 389 339 q 351 253 365 281 q 322 203 338 225 l 264 121 l 138 210 l 193 292 q 230 336 208 314 q 275 379 251 358 q 321 418 299 400 q 361 449 343 436 l 358 454 q 308 458 336 456 q 249 463 279 460 q 189 473 218 467 q 135 488 160 479 l 42 521 z "},"/":{"ha":833,"x_min":83,"x_max":750,"o":"m 569 1153 l 750 1153 l 265 -153 l 83 -153 l 569 1153 z "},"\\":{"ha":833,"x_min":83,"x_max":749,"o":"m 749 -153 l 568 -153 l 83 1153 l 264 1153 l 749 -153 z "},":":{"ha":833,"x_min":289,"x_max":546,"o":"m 289 110 q 324 203 289 168 q 417 239 360 239 q 510 203 474 239 q 546 110 546 168 q 510 21 546 56 q 417 -14 474 -14 q 324 21 360 -14 q 289 110 289 56 m 289 649 q 324 742 289 707 q 417 778 360 778 q 510 742 474 778 q 546 649 546 707 q 510 560 546 594 q 417 525 474 525 q 324 560 360 525 q 289 649 289 594 z "},";":{"ha":833,"x_min":208,"x_max":550,"o":"m 208 -222 l 319 210 l 542 210 l 361 -222 l 208 -222 m 417 778 q 514 741 478 778 q 550 644 550 704 q 513 550 550 586 q 417 514 476 514 q 321 550 357 514 q 285 644 285 586 q 321 741 285 704 q 417 778 357 778 z "},"<":{"ha":833,"x_min":106,"x_max":728,"o":"m 106 544 l 728 831 l 728 668 l 325 490 q 288 478 306 482 q 254 471 269 474 q 219 467 236 468 l 219 454 q 254 450 236 453 q 288 442 269 447 q 325 429 306 438 l 728 249 l 728 86 l 106 371 l 106 544 z "},"=":{"ha":833,"x_min":111,"x_max":722,"o":"m 722 710 l 722 549 l 111 549 l 111 710 l 722 710 m 111 368 l 722 368 l 722 208 l 111 208 l 111 368 z "},"!":{"ha":833,"x_min":300,"x_max":533,"o":"m 322 1000 l 511 1000 l 511 810 l 481 324 l 353 324 l 322 810 l 322 1000 m 300 85 q 327 151 300 125 q 399 176 354 176 l 435 176 q 506 151 479 176 q 533 83 533 125 q 506 17 533 42 q 433 -7 478 -7 l 399 -7 q 327 18 354 -7 q 300 85 300 43 z "},"?":{"ha":833,"x_min":171,"x_max":706,"o":"m 171 1000 l 369 1000 q 508 979 446 1000 q 615 920 571 958 q 682 828 658 882 q 706 708 706 775 q 685 595 706 646 q 628 507 665 544 q 540 449 592 469 q 426 426 489 428 l 426 301 l 272 301 l 269 579 l 379 579 q 491 613 450 579 q 532 708 532 647 q 491 803 532 769 q 378 838 450 838 l 171 838 l 171 1000 m 229 85 q 256 151 229 125 q 328 176 283 176 l 364 176 q 435 151 408 176 q 461 83 461 125 q 434 17 461 42 q 363 -7 407 -7 l 328 -7 q 256 18 283 -7 q 229 85 229 43 z "},"'":{"ha":833,"x_min":325,"x_max":501,"o":"m 325 1014 l 501 1014 l 501 797 l 485 597 l 344 597 l 325 797 l 325 1014 z "},"\"":{"ha":833,"x_min":176,"x_max":657,"o":"m 482 1014 l 657 1014 l 657 797 l 640 597 l 500 597 l 482 797 l 482 1014 m 176 797 l 176 1014 l 351 1014 l 351 797 l 335 597 l 194 597 l 176 797 z "},"#":{"ha":833,"x_min":36,"x_max":797,"o":"m 36 372 l 171 372 l 217 628 l 83 628 l 83 747 l 238 747 l 283 1000 l 410 1000 l 364 747 l 557 747 l 603 1000 l 729 1000 l 683 747 l 797 747 l 797 628 l 663 628 l 617 372 l 749 372 l 749 254 l 596 254 l 550 0 l 424 0 l 469 254 l 276 254 l 231 0 l 104 0 l 150 254 l 36 254 l 36 372 m 297 372 l 490 372 l 536 628 l 343 628 l 297 372 z "},"%":{"ha":833,"x_min":42,"x_max":792,"o":"m 49 738 l 49 824 q 100 957 49 907 q 242 1007 151 1007 q 383 957 332 1007 q 435 824 435 907 l 435 738 q 383 603 435 653 q 242 554 332 554 q 100 603 151 554 q 49 738 49 653 m 400 263 q 451 397 400 347 q 592 446 503 446 q 733 397 682 446 q 785 263 785 347 l 785 176 q 733 43 785 93 q 592 -7 682 -7 q 451 43 503 -7 q 400 176 400 93 l 400 263 m 42 318 l 792 788 l 792 682 l 42 213 l 42 318 m 514 263 l 514 176 q 535 115 514 138 q 592 92 556 92 q 651 116 632 92 q 669 176 669 140 l 669 263 q 649 324 669 301 q 592 347 629 347 q 535 324 556 347 q 514 263 514 301 m 164 738 q 184 676 164 699 q 242 653 204 653 q 300 677 281 653 q 319 738 319 701 l 319 824 q 299 885 319 863 q 242 908 278 908 q 184 885 204 908 q 164 824 164 863 l 164 738 z "},"{":{"ha":833,"x_min":110,"x_max":724,"o":"m 275 579 q 365 608 338 579 q 389 693 392 636 l 375 911 q 388 1013 371 968 q 439 1088 406 1057 q 521 1136 472 1119 q 629 1153 569 1153 l 724 1153 l 724 993 l 653 993 q 575 969 603 993 q 550 894 547 946 l 564 676 q 519 553 569 599 q 388 504 469 507 l 388 497 q 520 447 471 494 q 564 321 569 399 l 550 104 q 576 33 547 58 q 653 7 604 7 l 724 7 l 724 -154 l 629 -154 q 522 -137 571 -154 q 440 -87 474 -119 q 388 -10 406 -56 q 375 93 371 36 l 389 304 q 366 390 393 361 q 275 419 339 419 l 110 419 l 110 579 l 275 579 z "},"|":{"ha":833,"x_min":331,"x_max":504,"o":"m 331 1153 l 504 1153 l 504 -153 l 331 -153 l 331 1153 z "},"[":{"ha":833,"x_min":260,"x_max":649,"o":"m 260 -153 l 260 1153 l 649 1153 l 649 993 l 433 993 l 433 7 l 649 7 l 649 -153 l 260 -153 z "},"_":{"ha":833,"x_min":83,"x_max":750,"o":"m 83 -35 l 750 -35 l 750 -192 l 83 -192 l 83 -35 z "},")":{"ha":833,"x_min":160,"x_max":601,"o":"m 160 1174 q 344 1097 263 1147 q 483 976 426 1046 q 571 819 540 906 q 601 632 601 732 l 601 367 q 487 22 601 163 q 160 -174 372 -118 l 160 1 q 272 49 222 17 q 356 129 321 82 q 409 237 390 176 q 428 367 428 297 l 428 632 q 409 765 428 703 q 356 874 390 826 q 272 955 321 922 q 160 1003 222 988 l 160 1174 z "},"d":{"ha":833,"x_min":85,"x_max":732,"o":"m 85 479 q 103 603 85 549 q 157 697 122 658 q 240 757 192 736 q 347 778 289 778 q 485 739 431 778 q 551 632 539 700 l 565 632 q 563 679 564 656 q 559 723 560 700 q 558 764 558 746 l 558 1000 l 732 1000 l 732 0 l 565 0 l 565 133 l 551 133 q 485 25 539 64 q 347 -14 431 -14 q 240 7 289 -14 q 157 67 192 28 q 103 163 122 107 q 85 289 85 219 l 85 479 m 258 475 l 258 293 q 299 180 258 222 q 410 138 339 138 q 518 179 478 138 q 558 289 558 221 l 558 475 q 517 586 558 544 q 410 628 476 628 q 299 587 339 628 q 258 475 258 546 z "},"q":{"ha":833,"x_min":90,"x_max":736,"o":"m 90 485 q 109 606 90 551 q 163 698 128 660 q 245 757 197 736 q 353 778 293 778 q 490 739 436 778 q 557 632 543 700 l 569 632 l 569 764 l 736 764 l 736 -236 l 563 -236 l 563 0 q 563 42 563 21 q 565 83 564 64 q 568 116 567 103 q 569 133 569 129 l 557 133 q 490 25 543 64 q 353 -14 436 -14 q 245 7 293 -14 q 163 67 197 28 q 109 160 128 106 q 90 283 90 215 l 90 485 m 264 293 q 303 180 264 222 q 414 138 343 138 q 523 179 483 138 q 563 289 563 221 l 563 475 q 522 586 563 544 q 414 628 481 628 q 303 587 343 628 q 264 475 264 546 l 264 293 z "},"u":{"ha":833,"x_min":104,"x_max":729,"o":"m 278 764 l 278 288 q 417 138 278 138 q 556 288 556 138 l 556 764 l 729 764 l 729 286 q 647 65 729 143 q 417 -14 565 -14 q 186 65 268 -14 q 104 286 104 144 l 104 764 l 278 764 z "},"—":{"ha":833,"x_min":17,"x_max":817,"o":"m 17 539 l 817 539 l 817 379 l 17 379 l 17 539 z "},"^":{"ha":833,"x_min":94,"x_max":739,"o":"m 335 1000 l 501 1000 l 739 458 l 576 458 l 444 788 q 435 821 438 804 q 429 851 432 838 q 425 881 426 867 l 413 881 q 408 851 411 867 q 402 821 406 838 q 392 788 399 804 l 257 458 l 94 458 l 335 1000 z "},"÷":{"ha":833,"x_min":139,"x_max":694,"o":"m 139 539 l 694 539 l 694 382 l 139 382 l 139 539 m 399 822 l 435 822 q 506 797 479 822 q 533 729 533 771 q 506 663 533 688 q 433 639 478 639 l 399 639 q 327 664 354 639 q 300 731 300 689 q 327 797 300 771 q 399 822 354 822 m 399 281 l 435 281 q 506 255 479 281 q 533 189 533 229 q 506 122 533 147 q 433 97 478 97 l 399 97 q 327 122 354 97 q 300 189 300 147 q 327 255 300 229 q 399 281 354 281 z "},"×":{"ha":833,"x_min":124,"x_max":710,"o":"m 236 744 l 415 565 l 597 747 l 710 633 l 528 453 l 708 274 l 594 160 l 415 340 l 236 160 l 124 274 l 301 453 l 124 632 l 236 744 z "},"±":{"ha":833,"x_min":86,"x_max":756,"o":"m 86 431 l 86 590 l 335 590 l 335 840 l 507 840 l 507 590 l 756 590 l 756 431 l 507 431 l 507 179 l 335 179 l 335 431 l 86 431 m 740 131 l 740 0 l 93 0 l 93 131 l 740 131 z "},"−":{"ha":833,"x_min":139,"x_max":694,"o":"m 139 539 l 694 539 l 694 379 l 139 379 l 139 539 z "},"@":{"ha":833,"x_min":46,"x_max":794,"o":"m 46 174 l 46 611 q 73 780 46 706 q 151 906 100 854 q 274 986 201 958 q 438 1014 346 1014 q 700 935 606 1014 q 794 708 794 856 l 794 104 l 663 104 l 661 239 q 603 128 644 167 q 497 90 563 90 q 317 333 317 90 l 317 444 q 497 688 317 688 q 598 653 557 688 q 656 560 639 619 q 652 610 654 578 q 650 681 650 643 l 650 708 q 594 842 650 796 q 438 889 538 889 q 255 817 319 889 q 190 611 190 744 l 190 174 q 259 -25 190 47 q 451 -97 328 -97 l 549 -97 l 549 -229 l 451 -229 q 283 -201 358 -229 q 155 -122 207 -174 q 74 6 103 -69 q 46 174 46 81 m 461 444 l 461 333 q 482 231 461 267 q 547 196 503 196 q 650 339 650 196 l 650 439 q 547 582 650 582 q 461 444 461 582 z "},"&":{"ha":833,"x_min":60,"x_max":797,"o":"m 60 372 q 97 510 60 456 q 201 589 133 565 q 153 686 168 642 q 139 775 139 731 q 158 872 139 828 q 211 948 176 917 q 295 997 246 979 q 406 1014 344 1014 q 519 996 468 1014 q 606 944 571 978 q 661 865 642 911 q 681 761 681 818 l 519 761 q 489 840 519 810 q 406 871 458 871 q 326 841 356 871 q 296 764 296 811 q 309 701 296 733 q 354 625 322 669 l 547 353 l 622 500 l 790 500 l 642 218 l 797 0 l 625 0 l 560 90 q 324 -14 463 -14 q 128 55 197 -14 q 60 247 60 124 l 60 372 m 278 481 q 225 372 225 456 l 225 247 q 255 160 225 190 q 338 129 285 129 q 415 152 381 129 q 472 211 449 175 l 278 481 z "},"]":{"ha":833,"x_min":188,"x_max":578,"o":"m 188 -153 l 188 7 l 403 7 l 403 993 l 188 993 l 188 1153 l 578 1153 l 578 -153 l 188 -153 z "},"$":{"ha":833,"x_min":76,"x_max":757,"o":"m 247 265 q 283 179 250 214 q 369 133 315 144 l 369 442 l 350 447 q 160 555 224 483 q 96 739 96 626 q 169 928 96 856 q 369 1013 242 1000 l 369 1181 l 457 1181 l 457 1014 q 659 931 583 1003 q 742 742 735 858 l 571 742 q 538 824 568 790 q 457 868 507 857 l 457 588 l 506 574 q 693 462 629 538 q 757 274 757 386 q 736 163 757 214 q 676 75 715 113 q 581 15 636 38 q 457 -12 526 -7 l 457 -194 l 369 -194 l 369 -11 q 160 74 239 0 q 76 265 82 147 l 247 265 m 457 417 l 457 129 q 558 171 524 136 q 593 264 593 206 q 560 360 593 321 q 463 415 526 400 l 457 417 m 258 747 q 369 613 258 653 l 369 871 q 288 829 317 861 q 258 747 258 797 z "},"\n":{"ha":833,"x_min":0,"x_max":0,"o":""},"–":{"ha":833,"x_min":85,"x_max":749,"o":"m 85 539 l 749 539 l 749 379 l 85 379 l 85 539 z "},"·":{"ha":833,"x_min":282,"x_max":551,"o":"m 282 490 q 319 590 282 553 q 417 626 356 626 q 515 590 479 626 q 551 490 551 553 q 515 392 551 429 q 417 354 479 354 q 319 392 356 354 q 282 490 282 429 z "},"ı":{"ha":833,"x_min":106,"x_max":774,"o":"m 106 158 l 389 158 l 389 607 l 139 607 l 139 764 l 556 764 l 556 158 l 774 158 l 774 0 l 106 0 l 106 158 z "},"€":{"ha":833,"x_min":26,"x_max":768,"o":"m 492 674 l 492 561 l 281 561 l 281 439 l 492 439 l 492 326 l 281 326 l 281 293 q 322 182 281 222 q 438 142 363 142 q 549 180 507 142 q 594 282 592 218 l 768 282 q 673 66 761 146 q 438 -14 585 -14 q 301 8 363 -14 q 197 69 240 29 q 131 167 154 110 q 107 293 107 224 l 107 326 l 26 326 l 26 439 l 107 439 l 107 561 l 26 561 l 26 674 l 107 674 l 107 707 q 131 833 107 776 q 197 931 154 890 q 301 992 240 971 q 438 1014 363 1014 q 570 993 511 1014 q 672 934 629 972 q 740 841 715 896 q 768 719 765 786 l 594 719 q 549 822 592 785 q 438 858 507 858 q 323 818 365 858 q 281 707 281 778 l 281 674 l 492 674 z "},"•":{"ha":833,"x_min":231,"x_max":603,"o":"m 231 493 q 244 567 231 533 q 283 624 258 600 q 342 663 308 649 q 417 676 376 676 q 491 663 457 676 q 550 624 525 649 q 589 567 575 600 q 603 493 603 533 q 589 421 603 454 q 550 363 575 388 q 491 326 525 339 q 417 313 457 313 q 342 326 376 313 q 283 363 308 339 q 244 421 258 388 q 231 493 231 454 z "},"¦":{"ha":833,"x_min":331,"x_max":504,"o":"m 331 1153 l 504 1153 l 504 625 l 331 625 l 331 1153 m 504 375 l 504 -153 l 331 -153 l 331 375 l 504 375 z "},"»":{"ha":833,"x_min":29,"x_max":804,"o":"m 29 56 l 246 339 q 265 361 257 353 q 281 376 274 369 q 296 388 289 383 l 296 390 q 282 401 289 394 q 246 439 265 413 l 29 722 l 217 722 l 467 389 l 217 56 l 29 56 m 367 722 l 554 722 l 804 389 l 553 56 l 367 56 l 583 339 q 603 361 594 353 q 618 376 611 369 q 633 388 626 383 l 633 390 q 619 401 626 394 q 583 439 603 413 l 367 722 z "},"«":{"ha":833,"x_min":29,"x_max":804,"o":"m 617 722 l 804 722 l 588 439 q 568 416 576 425 q 553 401 560 407 q 538 390 544 394 l 538 388 q 553 376 544 383 q 569 361 560 369 q 588 339 578 353 l 804 56 l 618 56 l 367 389 l 617 722 m 29 389 l 279 722 l 467 722 l 250 439 q 231 416 239 425 q 215 401 222 407 q 200 390 207 394 l 200 388 q 215 376 207 383 q 231 361 222 369 q 250 339 240 353 l 467 56 l 281 56 l 29 389 z "},"‹":{"ha":833,"x_min":199,"x_max":636,"o":"m 449 722 l 636 722 l 419 439 q 400 416 408 425 q 385 401 392 407 q 369 390 376 394 l 369 388 q 385 376 376 383 q 401 361 392 369 q 419 339 410 353 l 636 56 l 449 56 l 199 389 l 449 722 z "},"›":{"ha":833,"x_min":199,"x_max":635,"o":"m 199 56 l 414 339 q 434 361 425 353 q 450 376 443 369 q 464 388 457 383 l 464 390 q 450 401 457 394 q 414 439 433 413 l 199 722 l 385 722 l 635 389 l 385 56 l 199 56 z "},"‘":{"ha":833,"x_min":292,"x_max":625,"o":"m 292 644 l 472 1076 l 625 1076 l 514 644 l 292 644 z "},"’":{"ha":833,"x_min":208,"x_max":542,"o":"m 542 1078 l 361 646 l 208 646 l 319 1078 l 542 1078 z "},"“":{"ha":833,"x_min":67,"x_max":781,"o":"m 629 1076 l 781 1076 l 669 644 l 449 644 l 629 1076 m 67 644 l 247 1076 l 399 1076 l 288 644 l 67 644 z "},"”":{"ha":833,"x_min":53,"x_max":767,"o":"m 435 646 l 546 1078 l 767 1078 l 586 646 l 435 646 m 164 1078 l 385 1078 l 204 646 l 53 646 l 164 1078 z "},"‚":{"ha":833,"x_min":208,"x_max":542,"o":"m 542 210 l 361 -222 l 208 -222 l 319 210 l 542 210 z "},"„":{"ha":833,"x_min":53,"x_max":767,"o":"m 385 210 l 204 -222 l 53 -222 l 164 210 l 385 210 m 767 208 l 586 -224 l 435 -224 l 546 208 l 767 208 z "},"˜":{"ha":833,"x_min":146,"x_max":688,"o":"m 146 946 q 187 1065 146 1021 q 299 1108 228 1108 q 376 1092 344 1108 q 432 1057 407 1076 q 480 1022 457 1038 q 531 1006 503 1006 q 567 1020 554 1006 q 581 1060 581 1035 l 581 1101 l 688 1101 l 688 1061 q 647 942 688 986 q 535 899 606 899 q 458 915 489 899 q 401 950 426 931 q 353 985 376 969 q 303 1001 331 1001 q 266 986 279 1001 q 253 943 253 971 l 253 906 l 146 906 l 146 946 z "},"¯":{"ha":833,"x_min":219,"x_max":614,"o":"m 219 1082 l 614 1082 l 614 933 l 219 933 l 219 1082 z "},"~":{"ha":833,"x_min":78,"x_max":756,"o":"m 78 354 l 78 451 q 128 583 78 535 q 267 632 179 632 q 374 608 333 632 q 445 554 415 583 q 500 501 475 525 q 560 476 525 476 q 601 492 586 476 q 617 539 617 508 l 617 625 l 756 625 l 756 528 q 705 397 756 446 q 567 347 654 347 q 459 372 500 347 q 388 425 418 396 q 333 478 358 454 q 274 503 308 503 q 232 487 247 503 q 217 440 217 471 l 217 354 l 78 354 z "},"˘":{"ha":833,"x_min":172,"x_max":661,"o":"m 172 1089 l 310 1089 q 338 1026 310 1047 q 415 1004 367 1004 q 494 1026 464 1004 q 525 1089 525 1047 l 661 1089 q 643 1010 661 1046 q 592 947 625 974 q 515 907 560 921 q 417 893 471 893 q 318 907 363 893 q 241 947 274 921 q 190 1010 208 974 q 172 1089 172 1046 z "},"˙":{"ha":833,"x_min":286,"x_max":519,"o":"m 385 1110 l 421 1110 q 492 1084 465 1110 q 519 1018 519 1058 q 492 952 519 976 q 419 928 464 928 l 385 928 q 313 952 340 928 q 286 1018 286 976 q 313 1084 286 1058 q 385 1110 340 1110 z "},"˚":{"ha":833,"x_min":242,"x_max":592,"o":"m 417 1125 q 544 1086 496 1125 q 592 982 592 1047 q 544 878 592 917 q 417 839 496 839 q 290 878 338 839 q 242 982 242 917 q 290 1086 242 1047 q 417 1125 338 1125 m 333 982 q 356 931 333 950 q 415 913 378 913 q 477 931 454 913 q 500 982 500 950 q 477 1034 500 1015 q 415 1053 454 1053 q 356 1033 378 1053 q 333 982 333 1014 z "},"`":{"ha":833,"x_min":224,"x_max":554,"o":"m 224 1097 l 410 1097 l 554 894 l 396 894 l 224 1097 z "},"´":{"ha":833,"x_min":307,"x_max":638,"o":"m 465 894 l 307 894 l 451 1097 l 638 1097 l 465 894 z "},"˝":{"ha":833,"x_min":142,"x_max":775,"o":"m 472 1097 l 286 1097 l 142 894 l 300 894 l 472 1097 m 775 1097 l 589 1097 l 444 894 l 603 894 l 775 1097 z "},"à":{"ha":833,"x_min":71,"x_max":733,"o":"m 71 214 q 92 316 71 271 q 151 393 113 361 q 245 442 190 425 q 368 460 300 460 l 560 460 l 560 525 q 520 609 560 578 q 410 640 481 640 q 314 619 353 640 q 264 563 275 599 l 94 563 q 129 652 103 613 q 197 719 156 692 q 293 763 239 747 q 411 778 347 778 q 544 760 485 778 q 646 710 604 743 q 710 631 688 678 q 733 528 733 585 l 733 0 l 569 0 l 569 150 l 557 150 q 479 31 544 75 q 317 -14 414 -14 q 138 48 204 -14 q 71 214 71 110 m 244 235 q 280 152 244 182 q 379 122 315 122 q 508 160 457 122 q 560 257 560 199 l 560 346 l 369 346 q 278 317 311 346 q 244 235 244 288 m 224 1097 l 410 1097 l 554 894 l 396 894 l 224 1097 z "},"ñ":{"ha":833,"x_min":100,"x_max":731,"o":"m 100 764 l 264 764 l 264 632 l 276 632 q 343 740 290 703 q 479 778 396 778 q 664 701 597 778 q 731 499 731 625 l 731 0 l 557 0 l 557 478 q 519 588 557 549 q 417 628 482 628 q 312 587 350 628 q 274 475 274 546 l 274 0 l 100 0 l 100 764 m 146 946 q 187 1065 146 1021 q 299 1108 228 1108 q 376 1092 344 1108 q 432 1057 407 1076 q 480 1022 457 1038 q 531 1006 503 1006 q 567 1020 554 1006 q 581 1060 581 1035 l 581 1101 l 688 1101 l 688 1061 q 647 942 688 986 q 535 899 606 899 q 458 915 489 899 q 401 950 426 931 q 353 985 376 969 q 303 1001 331 1001 q 266 986 279 1001 q 253 943 253 971 l 253 906 l 146 906 l 146 946 z "},"Ű":{"ha":833,"x_min":97,"x_max":736,"o":"m 417 -14 q 182 67 267 -14 q 97 289 97 147 l 97 1000 l 272 1000 l 272 290 q 309 178 272 218 q 417 138 346 138 q 524 178 486 138 q 563 290 563 218 l 563 1000 l 736 1000 l 736 289 q 651 67 736 147 q 417 -14 567 -14 m 472 1319 l 286 1319 l 142 1117 l 300 1117 l 472 1319 m 775 1319 l 589 1319 l 444 1117 l 603 1117 l 775 1319 z "},"ű":{"ha":833,"x_min":104,"x_max":729,"o":"m 278 764 l 278 288 q 417 138 278 138 q 556 288 556 138 l 556 764 l 729 764 l 729 286 q 647 65 729 143 q 417 -14 565 -14 q 186 65 268 -14 q 104 286 104 144 l 104 764 l 278 764 m 472 1097 l 286 1097 l 142 894 l 300 894 l 472 1097 m 775 1097 l 589 1097 l 444 894 l 603 894 l 775 1097 z "},"¨":{"ha":833,"x_min":178,"x_max":656,"o":"m 560 1090 q 629 1067 603 1090 q 656 1003 656 1043 q 629 938 656 963 q 560 914 603 914 q 490 938 517 914 q 464 1003 464 963 q 490 1067 464 1043 q 560 1090 517 1090 m 178 1003 q 204 1067 178 1043 q 274 1090 231 1090 q 343 1067 317 1090 q 369 1003 369 1043 q 343 938 369 963 q 274 914 317 914 q 204 938 231 914 q 178 1003 178 963 z "},"ä":{"ha":833,"x_min":71,"x_max":733,"o":"m 71 214 q 92 316 71 271 q 151 393 113 361 q 245 442 190 425 q 368 460 300 460 l 560 460 l 560 525 q 520 609 560 578 q 410 640 481 640 q 314 619 353 640 q 264 563 275 599 l 94 563 q 129 652 103 613 q 197 719 156 692 q 293 763 239 747 q 411 778 347 778 q 544 760 485 778 q 646 710 604 743 q 710 631 688 678 q 733 528 733 585 l 733 0 l 569 0 l 569 150 l 557 150 q 479 31 544 75 q 317 -14 414 -14 q 138 48 204 -14 q 71 214 71 110 m 244 235 q 280 152 244 182 q 379 122 315 122 q 508 160 457 122 q 560 257 560 199 l 560 346 l 369 346 q 278 317 311 346 q 244 235 244 288 m 560 1090 q 629 1067 603 1090 q 656 1003 656 1043 q 629 938 656 963 q 560 914 603 914 q 490 938 517 914 q 464 1003 464 963 q 490 1067 464 1043 q 560 1090 517 1090 m 178 1003 q 204 1067 178 1043 q 274 1090 231 1090 q 343 1067 317 1090 q 369 1003 369 1043 q 343 938 369 963 q 274 914 317 914 q 204 938 231 914 q 178 1003 178 963 z "},"ˆ":{"ha":833,"x_min":171,"x_max":663,"o":"m 328 1096 l 506 1096 l 663 894 l 528 894 l 457 974 q 438 997 446 988 q 425 1011 431 1006 q 418 1021 421 1017 l 415 1021 q 408 1011 413 1018 q 376 975 400 1000 l 306 894 l 171 894 l 328 1096 z "},"ˇ":{"ha":833,"x_min":171,"x_max":663,"o":"m 171 1096 l 306 1096 l 376 1015 q 408 979 400 990 q 415 969 413 972 l 418 969 q 425 981 421 974 q 438 995 431 986 q 457 1017 446 1004 l 528 1096 l 663 1096 l 506 894 l 328 894 l 171 1096 z "},"č":{"ha":833,"x_min":94,"x_max":758,"o":"m 425 -14 q 289 7 350 -14 q 185 67 228 28 q 118 160 142 106 q 94 283 94 215 l 94 479 q 118 602 94 547 q 185 696 142 657 q 289 756 228 735 q 425 778 350 778 q 549 759 492 778 q 649 705 606 740 q 720 620 692 669 q 758 508 749 571 l 585 508 q 532 594 575 561 q 425 626 489 626 q 310 588 351 626 q 268 479 268 549 l 268 283 q 309 176 268 215 q 425 138 350 138 q 531 170 488 138 q 585 256 575 203 l 758 256 q 720 144 749 193 q 648 59 692 94 q 548 5 604 24 q 425 -14 492 -14 m 171 1096 l 306 1096 l 376 1015 q 408 979 400 990 q 415 969 413 972 l 418 969 q 425 981 421 974 q 438 995 431 986 q 457 1017 446 1004 l 528 1096 l 663 1096 l 506 894 l 328 894 l 171 1096 z "},"¸":{"ha":833,"x_min":272,"x_max":594,"o":"m 272 -281 l 272 -192 l 378 -192 q 431 -181 410 -192 q 451 -153 451 -171 q 411 -109 451 -125 q 296 -93 371 -93 l 349 28 l 443 28 l 410 -49 q 503 -68 461 -53 q 566 -105 538 -81 q 594 -169 594 -129 q 544 -250 594 -219 q 411 -281 494 -281 l 272 -281 z "},"˛":{"ha":833,"x_min":249,"x_max":550,"o":"m 249 -154 q 273 -73 249 -112 q 357 15 297 -33 l 489 15 l 465 -4 q 408 -66 425 -37 q 390 -122 390 -94 q 409 -166 390 -150 q 460 -182 428 -182 l 550 -182 l 550 -286 l 425 -286 q 297 -250 346 -286 q 249 -154 249 -214 z "},"Ų":{"ha":833,"x_min":97,"x_max":736,"o":"m 417 -14 q 182 67 267 -14 q 97 289 97 147 l 97 1000 l 272 1000 l 272 290 q 309 178 272 218 q 417 138 346 138 q 524 178 486 138 q 563 290 563 218 l 563 1000 l 736 1000 l 736 289 q 651 67 736 147 q 417 -14 567 -14 m 360 -154 q 384 -73 360 -112 q 468 15 408 -33 l 600 15 l 576 -4 q 519 -66 536 -37 q 501 -122 501 -94 q 520 -166 501 -150 q 571 -182 539 -182 l 661 -182 l 661 -286 l 536 -286 q 408 -250 457 -286 q 360 -154 360 -214 z "},"ų":{"ha":833,"x_min":104,"x_max":729,"o":"m 278 764 l 278 288 q 417 138 278 138 q 556 288 556 138 l 556 764 l 729 764 l 729 286 q 647 65 729 143 q 417 -14 565 -14 q 186 65 268 -14 q 104 286 104 144 l 104 764 l 278 764 m 286 -154 q 310 -73 286 -112 q 394 15 335 -33 l 526 15 l 503 -4 q 445 -66 463 -37 q 428 -122 428 -94 q 447 -166 428 -150 q 497 -182 465 -182 l 588 -182 l 588 -286 l 463 -286 q 335 -250 383 -286 q 286 -154 286 -214 z "},"ç":{"ha":833,"x_min":94,"x_max":758,"o":"m 425 -14 q 289 7 350 -14 q 185 67 228 28 q 118 160 142 106 q 94 283 94 215 l 94 479 q 118 602 94 547 q 185 696 142 657 q 289 756 228 735 q 425 778 350 778 q 549 759 492 778 q 649 705 606 740 q 720 620 692 669 q 758 508 749 571 l 585 508 q 532 594 575 561 q 425 626 489 626 q 310 588 351 626 q 268 479 268 549 l 268 283 q 309 176 268 215 q 425 138 350 138 q 531 170 488 138 q 585 256 575 203 l 758 256 q 720 144 749 193 q 648 59 692 94 q 548 5 604 24 q 425 -14 492 -14 m 272 -281 l 272 -192 l 378 -192 q 431 -181 410 -192 q 451 -153 451 -171 q 411 -109 451 -125 q 296 -93 371 -93 l 349 28 l 443 28 l 410 -49 q 503 -68 461 -53 q 566 -105 538 -81 q 594 -169 594 -129 q 544 -250 594 -219 q 411 -281 494 -281 l 272 -281 z "},"À":{"ha":833,"x_min":33,"x_max":800,"o":"m 303 1000 l 538 1000 l 800 0 l 621 0 l 561 251 l 271 251 l 211 0 l 33 0 l 303 1000 m 528 389 l 443 746 q 433 796 438 771 q 425 840 428 821 q 419 885 422 863 l 413 885 q 407 840 410 863 q 400 796 404 821 q 389 746 396 771 l 304 389 l 528 389 m 224 1314 l 410 1314 l 554 1111 l 396 1111 l 224 1314 z "},"Á":{"ha":833,"x_min":33,"x_max":800,"o":"m 303 1000 l 538 1000 l 800 0 l 621 0 l 561 251 l 271 251 l 211 0 l 33 0 l 303 1000 m 528 389 l 443 746 q 433 796 438 771 q 425 840 428 821 q 419 885 422 863 l 413 885 q 407 840 410 863 q 400 796 404 821 q 389 746 396 771 l 304 389 l 528 389 m 465 1117 l 307 1117 l 451 1319 l 638 1319 l 465 1117 z "},"Â":{"ha":833,"x_min":33,"x_max":800,"o":"m 303 1000 l 538 1000 l 800 0 l 621 0 l 561 251 l 271 251 l 211 0 l 33 0 l 303 1000 m 528 389 l 443 746 q 433 796 438 771 q 425 840 428 821 q 419 885 422 863 l 413 885 q 407 840 410 863 q 400 796 404 821 q 389 746 396 771 l 304 389 l 528 389 m 328 1318 l 506 1318 l 663 1117 l 528 1117 l 457 1196 q 438 1219 446 1210 q 425 1233 431 1228 q 418 1243 421 1239 l 415 1243 q 408 1233 413 1240 q 376 1197 400 1222 l 306 1117 l 171 1117 l 328 1318 z "},"Ã":{"ha":833,"x_min":33,"x_max":800,"o":"m 303 1000 l 538 1000 l 800 0 l 621 0 l 561 251 l 271 251 l 211 0 l 33 0 l 303 1000 m 528 389 l 443 746 q 433 796 438 771 q 425 840 428 821 q 419 885 422 863 l 413 885 q 407 840 410 863 q 400 796 404 821 q 389 746 396 771 l 304 389 l 528 389 m 146 1168 q 187 1287 146 1243 q 299 1331 228 1331 q 376 1315 344 1331 q 432 1279 407 1299 q 480 1244 457 1260 q 531 1228 503 1228 q 567 1242 554 1228 q 581 1282 581 1257 l 581 1324 l 688 1324 l 688 1283 q 647 1165 688 1208 q 535 1121 606 1121 q 458 1137 489 1121 q 401 1172 426 1153 q 353 1208 376 1192 q 303 1224 331 1224 q 266 1208 279 1224 q 253 1165 253 1193 l 253 1128 l 146 1128 l 146 1168 z "},"Ä":{"ha":833,"x_min":33,"x_max":800,"o":"m 303 1000 l 538 1000 l 800 0 l 621 0 l 561 251 l 271 251 l 211 0 l 33 0 l 303 1000 m 528 389 l 443 746 q 433 796 438 771 q 425 840 428 821 q 419 885 422 863 l 413 885 q 407 840 410 863 q 400 796 404 821 q 389 746 396 771 l 304 389 l 528 389 m 560 1313 q 629 1289 603 1313 q 656 1225 656 1265 q 629 1160 656 1185 q 560 1136 603 1136 q 490 1160 517 1136 q 464 1225 464 1185 q 490 1289 464 1265 q 560 1313 517 1313 m 178 1225 q 204 1289 178 1265 q 274 1313 231 1313 q 343 1289 317 1313 q 369 1225 369 1265 q 343 1160 369 1185 q 274 1136 317 1136 q 204 1160 231 1136 q 178 1225 178 1185 z "},"Å":{"ha":833,"x_min":33,"x_max":800,"o":"m 303 1000 l 538 1000 l 800 0 l 621 0 l 561 251 l 271 251 l 211 0 l 33 0 l 303 1000 m 528 389 l 443 746 q 433 796 438 771 q 425 840 428 821 q 419 885 422 863 l 413 885 q 407 840 410 863 q 400 796 404 821 q 389 746 396 771 l 304 389 l 528 389 m 417 1342 q 544 1303 496 1342 q 592 1199 592 1264 q 544 1094 592 1133 q 417 1056 496 1056 q 290 1094 338 1056 q 242 1199 242 1133 q 290 1303 242 1264 q 417 1342 338 1342 m 333 1199 q 356 1148 333 1167 q 415 1129 378 1129 q 477 1148 454 1129 q 500 1199 500 1167 q 477 1251 500 1232 q 415 1269 454 1269 q 356 1250 378 1269 q 333 1199 333 1231 z "},"Ç":{"ha":833,"x_min":93,"x_max":754,"o":"m 424 -14 q 288 8 349 -14 q 183 69 226 29 q 117 167 140 110 q 93 293 93 224 l 93 707 q 117 833 93 776 q 183 931 140 890 q 288 992 226 971 q 424 1014 349 1014 q 556 993 497 1014 q 658 934 615 972 q 726 841 701 896 q 754 719 751 786 l 581 719 q 535 822 578 785 q 424 858 493 858 q 309 818 351 858 q 267 707 267 778 l 267 293 q 308 182 267 222 q 424 142 349 142 q 535 180 493 142 q 581 282 578 218 l 754 282 q 659 66 747 146 q 424 -14 571 -14 m 272 -281 l 272 -192 l 378 -192 q 431 -181 410 -192 q 451 -153 451 -171 q 411 -109 451 -125 q 296 -93 371 -93 l 349 28 l 443 28 l 410 -49 q 503 -68 461 -53 q 566 -105 538 -81 q 594 -169 594 -129 q 544 -250 594 -219 q 411 -281 494 -281 l 272 -281 z "},"È":{"ha":833,"x_min":119,"x_max":735,"o":"m 119 0 l 119 1000 l 735 1000 l 735 847 l 293 847 l 293 590 l 686 590 l 686 438 l 293 438 l 293 153 l 735 153 l 735 0 l 119 0 m 224 1319 l 410 1319 l 554 1117 l 396 1117 l 224 1319 z "},"É":{"ha":833,"x_min":119,"x_max":735,"o":"m 119 0 l 119 1000 l 735 1000 l 735 847 l 293 847 l 293 590 l 686 590 l 686 438 l 293 438 l 293 153 l 735 153 l 735 0 l 119 0 m 465 1117 l 307 1117 l 451 1319 l 638 1319 l 465 1117 z "},"Ê":{"ha":833,"x_min":119,"x_max":735,"o":"m 119 0 l 119 1000 l 735 1000 l 735 847 l 293 847 l 293 590 l 686 590 l 686 438 l 293 438 l 293 153 l 735 153 l 735 0 l 119 0 m 328 1318 l 506 1318 l 663 1117 l 528 1117 l 457 1196 q 438 1219 446 1210 q 425 1233 431 1228 q 418 1243 421 1239 l 415 1243 q 408 1233 413 1240 q 376 1197 400 1222 l 306 1117 l 171 1117 l 328 1318 z "},"Ë":{"ha":833,"x_min":119,"x_max":735,"o":"m 119 0 l 119 1000 l 735 1000 l 735 847 l 293 847 l 293 590 l 686 590 l 686 438 l 293 438 l 293 153 l 735 153 l 735 0 l 119 0 m 560 1313 q 629 1289 603 1313 q 656 1225 656 1265 q 629 1160 656 1185 q 560 1136 603 1136 q 490 1160 517 1136 q 464 1225 464 1185 q 490 1289 464 1265 q 560 1313 517 1313 m 178 1225 q 204 1289 178 1265 q 274 1313 231 1313 q 343 1289 317 1313 q 369 1225 369 1265 q 343 1160 369 1185 q 274 1136 317 1136 q 204 1160 231 1136 q 178 1225 178 1185 z "},"Ì":{"ha":833,"x_min":115,"x_max":718,"o":"m 115 849 l 115 1000 l 718 1000 l 718 849 l 504 849 l 504 151 l 718 151 l 718 0 l 115 0 l 115 151 l 329 151 l 329 849 l 115 849 m 224 1319 l 410 1319 l 554 1117 l 396 1117 l 224 1319 z "},"Í":{"ha":833,"x_min":115,"x_max":718,"o":"m 115 849 l 115 1000 l 718 1000 l 718 849 l 504 849 l 504 151 l 718 151 l 718 0 l 115 0 l 115 151 l 329 151 l 329 849 l 115 849 m 465 1117 l 307 1117 l 451 1319 l 638 1319 l 465 1117 z "},"Î":{"ha":833,"x_min":115,"x_max":718,"o":"m 115 849 l 115 1000 l 718 1000 l 718 849 l 504 849 l 504 151 l 718 151 l 718 0 l 115 0 l 115 151 l 329 151 l 329 849 l 115 849 m 328 1318 l 506 1318 l 663 1117 l 528 1117 l 457 1196 q 438 1219 446 1210 q 425 1233 431 1228 q 418 1243 421 1239 l 415 1243 q 408 1233 413 1240 q 376 1197 400 1222 l 306 1117 l 171 1117 l 328 1318 z "},"Ï":{"ha":833,"x_min":115,"x_max":718,"o":"m 115 849 l 115 1000 l 718 1000 l 718 849 l 504 849 l 504 151 l 718 151 l 718 0 l 115 0 l 115 151 l 329 151 l 329 849 l 115 849 m 560 1313 q 629 1289 603 1313 q 656 1225 656 1265 q 629 1160 656 1185 q 560 1136 603 1136 q 490 1160 517 1136 q 464 1225 464 1185 q 490 1289 464 1265 q 560 1313 517 1313 m 178 1225 q 204 1289 178 1265 q 274 1313 231 1313 q 343 1289 317 1313 q 369 1225 369 1265 q 343 1160 369 1185 q 274 1136 317 1136 q 204 1160 231 1136 q 178 1225 178 1185 z "},"Ò":{"ha":833,"x_min":85,"x_max":749,"o":"m 417 -14 q 280 8 342 -14 q 175 69 218 29 q 108 167 132 110 q 85 293 85 224 l 85 708 q 108 834 85 778 q 175 931 132 890 q 280 992 218 971 q 417 1014 342 1014 q 553 992 492 1014 q 658 931 615 971 q 725 834 701 890 q 749 708 749 778 l 749 293 q 725 168 749 225 q 658 71 701 111 q 553 8 614 31 q 417 -14 492 -14 m 258 293 q 301 181 258 222 q 417 139 344 139 q 532 181 489 139 q 575 293 575 222 l 575 708 q 532 821 575 779 q 417 863 489 863 q 301 821 344 863 q 258 708 258 779 l 258 293 m 224 1319 l 410 1319 l 554 1117 l 396 1117 l 224 1319 z "},"Ó":{"ha":833,"x_min":85,"x_max":749,"o":"m 417 -14 q 280 8 342 -14 q 175 69 218 29 q 108 167 132 110 q 85 293 85 224 l 85 708 q 108 834 85 778 q 175 931 132 890 q 280 992 218 971 q 417 1014 342 1014 q 553 992 492 1014 q 658 931 615 971 q 725 834 701 890 q 749 708 749 778 l 749 293 q 725 168 749 225 q 658 71 701 111 q 553 8 614 31 q 417 -14 492 -14 m 258 293 q 301 181 258 222 q 417 139 344 139 q 532 181 489 139 q 575 293 575 222 l 575 708 q 532 821 575 779 q 417 863 489 863 q 301 821 344 863 q 258 708 258 779 l 258 293 m 465 1117 l 307 1117 l 451 1319 l 638 1319 l 465 1117 z "},"Ô":{"ha":833,"x_min":85,"x_max":749,"o":"m 417 -14 q 280 8 342 -14 q 175 69 218 29 q 108 167 132 110 q 85 293 85 224 l 85 708 q 108 834 85 778 q 175 931 132 890 q 280 992 218 971 q 417 1014 342 1014 q 553 992 492 1014 q 658 931 615 971 q 725 834 701 890 q 749 708 749 778 l 749 293 q 725 168 749 225 q 658 71 701 111 q 553 8 614 31 q 417 -14 492 -14 m 258 293 q 301 181 258 222 q 417 139 344 139 q 532 181 489 139 q 575 293 575 222 l 575 708 q 532 821 575 779 q 417 863 489 863 q 301 821 344 863 q 258 708 258 779 l 258 293 m 328 1318 l 506 1318 l 663 1117 l 528 1117 l 457 1196 q 438 1219 446 1210 q 425 1233 431 1228 q 418 1243 421 1239 l 415 1243 q 408 1233 413 1240 q 376 1197 400 1222 l 306 1117 l 171 1117 l 328 1318 z "},"Õ":{"ha":833,"x_min":85,"x_max":749,"o":"m 417 -14 q 280 8 342 -14 q 175 69 218 29 q 108 167 132 110 q 85 293 85 224 l 85 708 q 108 834 85 778 q 175 931 132 890 q 280 992 218 971 q 417 1014 342 1014 q 553 992 492 1014 q 658 931 615 971 q 725 834 701 890 q 749 708 749 778 l 749 293 q 725 168 749 225 q 658 71 701 111 q 553 8 614 31 q 417 -14 492 -14 m 258 293 q 301 181 258 222 q 417 139 344 139 q 532 181 489 139 q 575 293 575 222 l 575 708 q 532 821 575 779 q 417 863 489 863 q 301 821 344 863 q 258 708 258 779 l 258 293 m 146 1168 q 187 1287 146 1243 q 299 1331 228 1331 q 376 1315 344 1331 q 432 1279 407 1299 q 480 1244 457 1260 q 531 1228 503 1228 q 567 1242 554 1228 q 581 1282 581 1257 l 581 1324 l 688 1324 l 688 1283 q 647 1165 688 1208 q 535 1121 606 1121 q 458 1137 489 1121 q 401 1172 426 1153 q 353 1208 376 1192 q 303 1224 331 1224 q 266 1208 279 1224 q 253 1165 253 1193 l 253 1128 l 146 1128 l 146 1168 z "},"Ö":{"ha":833,"x_min":85,"x_max":749,"o":"m 417 -14 q 280 8 342 -14 q 175 69 218 29 q 108 167 132 110 q 85 293 85 224 l 85 708 q 108 834 85 778 q 175 931 132 890 q 280 992 218 971 q 417 1014 342 1014 q 553 992 492 1014 q 658 931 615 971 q 725 834 701 890 q 749 708 749 778 l 749 293 q 725 168 749 225 q 658 71 701 111 q 553 8 614 31 q 417 -14 492 -14 m 258 293 q 301 181 258 222 q 417 139 344 139 q 532 181 489 139 q 575 293 575 222 l 575 708 q 532 821 575 779 q 417 863 489 863 q 301 821 344 863 q 258 708 258 779 l 258 293 m 560 1313 q 629 1289 603 1313 q 656 1225 656 1265 q 629 1160 656 1185 q 560 1136 603 1136 q 490 1160 517 1136 q 464 1225 464 1185 q 490 1289 464 1265 q 560 1313 517 1313 m 178 1225 q 204 1289 178 1265 q 274 1313 231 1313 q 343 1289 317 1313 q 369 1225 369 1265 q 343 1160 369 1185 q 274 1136 317 1136 q 204 1160 231 1136 q 178 1225 178 1185 z "},"Š":{"ha":833,"x_min":76,"x_max":757,"o":"m 76 265 l 254 265 q 301 172 257 206 q 421 138 346 138 q 540 172 499 138 q 582 265 582 207 q 550 355 582 317 q 463 408 518 393 l 353 440 q 160 550 225 475 q 96 738 96 625 q 119 851 96 800 q 183 939 142 903 q 285 995 225 975 q 419 1015 344 1015 q 649 942 563 1015 q 742 742 735 868 l 565 742 q 522 831 563 799 q 415 863 482 863 q 309 830 349 863 q 269 742 269 797 q 299 663 269 696 q 389 611 328 629 l 506 578 q 692 466 628 543 q 757 274 757 389 q 733 156 757 208 q 664 65 708 103 q 557 7 619 28 q 417 -14 494 -14 q 280 6 342 -14 q 174 63 218 26 q 104 150 129 99 q 76 265 79 201 m 171 1318 l 306 1318 l 376 1238 q 408 1201 400 1213 q 415 1192 413 1194 l 418 1192 q 425 1203 421 1196 q 438 1217 431 1208 q 457 1239 446 1226 l 528 1318 l 663 1318 l 506 1117 l 328 1117 l 171 1318 z "},"Ù":{"ha":833,"x_min":97,"x_max":736,"o":"m 417 -14 q 182 67 267 -14 q 97 289 97 147 l 97 1000 l 272 1000 l 272 290 q 309 178 272 218 q 417 138 346 138 q 524 178 486 138 q 563 290 563 218 l 563 1000 l 736 1000 l 736 289 q 651 67 736 147 q 417 -14 567 -14 m 224 1319 l 410 1319 l 554 1117 l 396 1117 l 224 1319 z "},"Ú":{"ha":833,"x_min":97,"x_max":736,"o":"m 417 -14 q 182 67 267 -14 q 97 289 97 147 l 97 1000 l 272 1000 l 272 290 q 309 178 272 218 q 417 138 346 138 q 524 178 486 138 q 563 290 563 218 l 563 1000 l 736 1000 l 736 289 q 651 67 736 147 q 417 -14 567 -14 m 465 1117 l 307 1117 l 451 1319 l 638 1319 l 465 1117 z "},"Û":{"ha":833,"x_min":97,"x_max":736,"o":"m 417 -14 q 182 67 267 -14 q 97 289 97 147 l 97 1000 l 272 1000 l 272 290 q 309 178 272 218 q 417 138 346 138 q 524 178 486 138 q 563 290 563 218 l 563 1000 l 736 1000 l 736 289 q 651 67 736 147 q 417 -14 567 -14 m 328 1318 l 506 1318 l 663 1117 l 528 1117 l 457 1196 q 438 1219 446 1210 q 425 1233 431 1228 q 418 1243 421 1239 l 415 1243 q 408 1233 413 1240 q 376 1197 400 1222 l 306 1117 l 171 1117 l 328 1318 z "},"Ü":{"ha":833,"x_min":97,"x_max":736,"o":"m 417 -14 q 182 67 267 -14 q 97 289 97 147 l 97 1000 l 272 1000 l 272 290 q 309 178 272 218 q 417 138 346 138 q 524 178 486 138 q 563 290 563 218 l 563 1000 l 736 1000 l 736 289 q 651 67 736 147 q 417 -14 567 -14 m 560 1313 q 629 1289 603 1313 q 656 1225 656 1265 q 629 1160 656 1185 q 560 1136 603 1136 q 490 1160 517 1136 q 464 1225 464 1185 q 490 1289 464 1265 q 560 1313 517 1313 m 178 1225 q 204 1289 178 1265 q 274 1313 231 1313 q 343 1289 317 1313 q 369 1225 369 1265 q 343 1160 369 1185 q 274 1136 317 1136 q 204 1160 231 1136 q 178 1225 178 1185 z "},"Ÿ":{"ha":833,"x_min":29,"x_max":804,"o":"m 213 1000 l 385 610 q 401 567 394 588 q 410 529 407 546 q 415 492 414 510 l 424 492 q 431 529 426 510 q 440 567 433 546 q 456 610 446 588 l 622 1000 l 804 1000 l 504 347 l 504 0 l 331 0 l 331 347 l 29 1000 l 213 1000 m 560 1313 q 629 1289 603 1313 q 656 1225 656 1265 q 629 1160 656 1185 q 560 1136 603 1136 q 490 1160 517 1136 q 464 1225 464 1185 q 490 1289 464 1265 q 560 1313 517 1313 m 178 1225 q 204 1289 178 1265 q 274 1313 231 1313 q 343 1289 317 1313 q 369 1225 369 1265 q 343 1160 369 1185 q 274 1136 317 1136 q 204 1160 231 1136 q 178 1225 178 1185 z "},"Ý":{"ha":833,"x_min":29,"x_max":804,"o":"m 213 1000 l 385 610 q 401 567 394 588 q 410 529 407 546 q 415 492 414 510 l 424 492 q 431 529 426 510 q 440 567 433 546 q 456 610 446 588 l 622 1000 l 804 1000 l 504 347 l 504 0 l 331 0 l 331 347 l 29 1000 l 213 1000 m 465 1117 l 307 1117 l 451 1319 l 638 1319 l 465 1117 z "},"Ž":{"ha":833,"x_min":110,"x_max":724,"o":"m 708 1000 l 708 839 l 296 156 l 296 153 l 394 158 l 724 158 l 724 0 l 110 0 l 110 160 l 521 844 l 521 847 l 421 842 l 121 842 l 121 1000 l 708 1000 m 171 1318 l 306 1318 l 376 1238 q 408 1201 400 1213 q 415 1192 413 1194 l 418 1192 q 425 1203 421 1196 q 438 1217 431 1208 q 457 1239 446 1226 l 528 1318 l 663 1318 l 506 1117 l 328 1117 l 171 1318 z "},"á":{"ha":833,"x_min":71,"x_max":733,"o":"m 71 214 q 92 316 71 271 q 151 393 113 361 q 245 442 190 425 q 368 460 300 460 l 560 460 l 560 525 q 520 609 560 578 q 410 640 481 640 q 314 619 353 640 q 264 563 275 599 l 94 563 q 129 652 103 613 q 197 719 156 692 q 293 763 239 747 q 411 778 347 778 q 544 760 485 778 q 646 710 604 743 q 710 631 688 678 q 733 528 733 585 l 733 0 l 569 0 l 569 150 l 557 150 q 479 31 544 75 q 317 -14 414 -14 q 138 48 204 -14 q 71 214 71 110 m 244 235 q 280 152 244 182 q 379 122 315 122 q 508 160 457 122 q 560 257 560 199 l 560 346 l 369 346 q 278 317 311 346 q 244 235 244 288 m 465 894 l 307 894 l 451 1097 l 638 1097 l 465 894 z "},"â":{"ha":833,"x_min":71,"x_max":733,"o":"m 71 214 q 92 316 71 271 q 151 393 113 361 q 245 442 190 425 q 368 460 300 460 l 560 460 l 560 525 q 520 609 560 578 q 410 640 481 640 q 314 619 353 640 q 264 563 275 599 l 94 563 q 129 652 103 613 q 197 719 156 692 q 293 763 239 747 q 411 778 347 778 q 544 760 485 778 q 646 710 604 743 q 710 631 688 678 q 733 528 733 585 l 733 0 l 569 0 l 569 150 l 557 150 q 479 31 544 75 q 317 -14 414 -14 q 138 48 204 -14 q 71 214 71 110 m 244 235 q 280 152 244 182 q 379 122 315 122 q 508 160 457 122 q 560 257 560 199 l 560 346 l 369 346 q 278 317 311 346 q 244 235 244 288 m 328 1096 l 506 1096 l 663 894 l 528 894 l 457 974 q 438 997 446 988 q 425 1011 431 1006 q 418 1021 421 1017 l 415 1021 q 408 1011 413 1018 q 376 975 400 1000 l 306 894 l 171 894 l 328 1096 z "},"ã":{"ha":833,"x_min":71,"x_max":733,"o":"m 71 214 q 92 316 71 271 q 151 393 113 361 q 245 442 190 425 q 368 460 300 460 l 560 460 l 560 525 q 520 609 560 578 q 410 640 481 640 q 314 619 353 640 q 264 563 275 599 l 94 563 q 129 652 103 613 q 197 719 156 692 q 293 763 239 747 q 411 778 347 778 q 544 760 485 778 q 646 710 604 743 q 710 631 688 678 q 733 528 733 585 l 733 0 l 569 0 l 569 150 l 557 150 q 479 31 544 75 q 317 -14 414 -14 q 138 48 204 -14 q 71 214 71 110 m 244 235 q 280 152 244 182 q 379 122 315 122 q 508 160 457 122 q 560 257 560 199 l 560 346 l 369 346 q 278 317 311 346 q 244 235 244 288 m 146 946 q 187 1065 146 1021 q 299 1108 228 1108 q 376 1092 344 1108 q 432 1057 407 1076 q 480 1022 457 1038 q 531 1006 503 1006 q 567 1020 554 1006 q 581 1060 581 1035 l 581 1101 l 688 1101 l 688 1061 q 647 942 688 986 q 535 899 606 899 q 458 915 489 899 q 401 950 426 931 q 353 985 376 969 q 303 1001 331 1001 q 266 986 279 1001 q 253 943 253 971 l 253 906 l 146 906 l 146 946 z "},"å":{"ha":833,"x_min":71,"x_max":733,"o":"m 71 214 q 92 316 71 271 q 151 393 113 361 q 245 442 190 425 q 368 460 300 460 l 560 460 l 560 525 q 520 609 560 578 q 410 640 481 640 q 314 619 353 640 q 264 563 275 599 l 94 563 q 129 652 103 613 q 197 719 156 692 q 293 763 239 747 q 411 778 347 778 q 544 760 485 778 q 646 710 604 743 q 710 631 688 678 q 733 528 733 585 l 733 0 l 569 0 l 569 150 l 557 150 q 479 31 544 75 q 317 -14 414 -14 q 138 48 204 -14 q 71 214 71 110 m 244 235 q 280 152 244 182 q 379 122 315 122 q 508 160 457 122 q 560 257 560 199 l 560 346 l 369 346 q 278 317 311 346 q 244 235 244 288 m 417 1125 q 544 1086 496 1125 q 592 982 592 1047 q 544 878 592 917 q 417 839 496 839 q 290 878 338 839 q 242 982 242 917 q 290 1086 242 1047 q 417 1125 338 1125 m 333 982 q 356 931 333 950 q 415 913 378 913 q 477 931 454 913 q 500 982 500 950 q 477 1034 500 1015 q 415 1053 454 1053 q 356 1033 378 1053 q 333 982 333 1014 z "},"è":{"ha":833,"x_min":85,"x_max":746,"o":"m 85 479 q 108 603 85 547 q 175 697 132 658 q 279 757 218 736 q 417 778 340 778 q 552 756 492 778 q 656 696 613 735 q 722 601 699 657 q 746 478 746 546 l 746 339 l 257 339 l 257 289 q 299 168 257 211 q 417 125 342 125 q 513 143 472 125 q 569 193 553 161 l 740 193 q 699 108 728 146 q 627 42 669 69 q 531 1 585 15 q 417 -14 478 -14 q 280 7 342 -14 q 175 67 218 28 q 108 163 132 107 q 85 286 85 218 l 85 479 m 257 456 l 576 456 l 576 478 q 534 597 576 554 q 417 639 492 639 q 299 597 342 639 q 257 479 257 554 l 257 456 m 224 1097 l 410 1097 l 554 894 l 396 894 l 224 1097 z "},"é":{"ha":833,"x_min":85,"x_max":746,"o":"m 85 479 q 108 603 85 547 q 175 697 132 658 q 279 757 218 736 q 417 778 340 778 q 552 756 492 778 q 656 696 613 735 q 722 601 699 657 q 746 478 746 546 l 746 339 l 257 339 l 257 289 q 299 168 257 211 q 417 125 342 125 q 513 143 472 125 q 569 193 553 161 l 740 193 q 699 108 728 146 q 627 42 669 69 q 531 1 585 15 q 417 -14 478 -14 q 280 7 342 -14 q 175 67 218 28 q 108 163 132 107 q 85 286 85 218 l 85 479 m 257 456 l 576 456 l 576 478 q 534 597 576 554 q 417 639 492 639 q 299 597 342 639 q 257 479 257 554 l 257 456 m 465 894 l 307 894 l 451 1097 l 638 1097 l 465 894 z "},"ê":{"ha":833,"x_min":85,"x_max":746,"o":"m 85 479 q 108 603 85 547 q 175 697 132 658 q 279 757 218 736 q 417 778 340 778 q 552 756 492 778 q 656 696 613 735 q 722 601 699 657 q 746 478 746 546 l 746 339 l 257 339 l 257 289 q 299 168 257 211 q 417 125 342 125 q 513 143 472 125 q 569 193 553 161 l 740 193 q 699 108 728 146 q 627 42 669 69 q 531 1 585 15 q 417 -14 478 -14 q 280 7 342 -14 q 175 67 218 28 q 108 163 132 107 q 85 286 85 218 l 85 479 m 257 456 l 576 456 l 576 478 q 534 597 576 554 q 417 639 492 639 q 299 597 342 639 q 257 479 257 554 l 257 456 m 328 1096 l 506 1096 l 663 894 l 528 894 l 457 974 q 438 997 446 988 q 425 1011 431 1006 q 418 1021 421 1017 l 415 1021 q 408 1011 413 1018 q 376 975 400 1000 l 306 894 l 171 894 l 328 1096 z "},"ë":{"ha":833,"x_min":85,"x_max":746,"o":"m 85 479 q 108 603 85 547 q 175 697 132 658 q 279 757 218 736 q 417 778 340 778 q 552 756 492 778 q 656 696 613 735 q 722 601 699 657 q 746 478 746 546 l 746 339 l 257 339 l 257 289 q 299 168 257 211 q 417 125 342 125 q 513 143 472 125 q 569 193 553 161 l 740 193 q 699 108 728 146 q 627 42 669 69 q 531 1 585 15 q 417 -14 478 -14 q 280 7 342 -14 q 175 67 218 28 q 108 163 132 107 q 85 286 85 218 l 85 479 m 257 456 l 576 456 l 576 478 q 534 597 576 554 q 417 639 492 639 q 299 597 342 639 q 257 479 257 554 l 257 456 m 560 1090 q 629 1067 603 1090 q 656 1003 656 1043 q 629 938 656 963 q 560 914 603 914 q 490 938 517 914 q 464 1003 464 963 q 490 1067 464 1043 q 560 1090 517 1090 m 178 1003 q 204 1067 178 1043 q 274 1090 231 1090 q 343 1067 317 1090 q 369 1003 369 1043 q 343 938 369 963 q 274 914 317 914 q 204 938 231 914 q 178 1003 178 963 z "},"ì":{"ha":833,"x_min":106,"x_max":774,"o":"m 106 158 l 389 158 l 389 607 l 139 607 l 139 764 l 556 764 l 556 158 l 774 158 l 774 0 l 106 0 l 106 158 m 224 1097 l 410 1097 l 554 894 l 396 894 l 224 1097 z "},"í":{"ha":833,"x_min":106,"x_max":774,"o":"m 106 158 l 389 158 l 389 607 l 139 607 l 139 764 l 556 764 l 556 158 l 774 158 l 774 0 l 106 0 l 106 158 m 465 894 l 307 894 l 451 1097 l 638 1097 l 465 894 z "},"î":{"ha":833,"x_min":106,"x_max":774,"o":"m 106 158 l 389 158 l 389 607 l 139 607 l 139 764 l 556 764 l 556 158 l 774 158 l 774 0 l 106 0 l 106 158 m 328 1096 l 506 1096 l 663 894 l 528 894 l 457 974 q 438 997 446 988 q 425 1011 431 1006 q 418 1021 421 1017 l 415 1021 q 408 1011 413 1018 q 376 975 400 1000 l 306 894 l 171 894 l 328 1096 z "},"ï":{"ha":833,"x_min":106,"x_max":774,"o":"m 106 158 l 389 158 l 389 607 l 139 607 l 139 764 l 556 764 l 556 158 l 774 158 l 774 0 l 106 0 l 106 158 m 560 1090 q 629 1067 603 1090 q 656 1003 656 1043 q 629 938 656 963 q 560 914 603 914 q 490 938 517 914 q 464 1003 464 963 q 490 1067 464 1043 q 560 1090 517 1090 m 178 1003 q 204 1067 178 1043 q 274 1090 231 1090 q 343 1067 317 1090 q 369 1003 369 1043 q 343 938 369 963 q 274 914 317 914 q 204 938 231 914 q 178 1003 178 963 z "},"ò":{"ha":833,"x_min":85,"x_max":749,"o":"m 417 -14 q 280 8 342 -14 q 175 70 218 31 q 108 165 132 110 q 85 289 85 221 l 85 476 q 108 600 85 544 q 175 695 132 656 q 280 756 218 735 q 417 778 342 778 q 553 756 492 778 q 658 695 615 735 q 725 600 701 656 q 749 476 749 544 l 749 289 q 725 165 749 221 q 658 69 701 108 q 554 8 615 29 q 417 -14 493 -14 m 258 289 q 301 179 258 219 q 417 139 343 139 q 533 179 490 139 q 575 289 575 219 l 575 476 q 533 586 575 546 q 417 626 490 626 q 301 586 343 626 q 258 476 258 546 l 258 289 m 224 1097 l 410 1097 l 554 894 l 396 894 l 224 1097 z "},"ó":{"ha":833,"x_min":85,"x_max":749,"o":"m 417 -14 q 280 8 342 -14 q 175 70 218 31 q 108 165 132 110 q 85 289 85 221 l 85 476 q 108 600 85 544 q 175 695 132 656 q 280 756 218 735 q 417 778 342 778 q 553 756 492 778 q 658 695 615 735 q 725 600 701 656 q 749 476 749 544 l 749 289 q 725 165 749 221 q 658 69 701 108 q 554 8 615 29 q 417 -14 493 -14 m 258 289 q 301 179 258 219 q 417 139 343 139 q 533 179 490 139 q 575 289 575 219 l 575 476 q 533 586 575 546 q 417 626 490 626 q 301 586 343 626 q 258 476 258 546 l 258 289 m 465 894 l 307 894 l 451 1097 l 638 1097 l 465 894 z "},"ô":{"ha":833,"x_min":85,"x_max":749,"o":"m 417 -14 q 280 8 342 -14 q 175 70 218 31 q 108 165 132 110 q 85 289 85 221 l 85 476 q 108 600 85 544 q 175 695 132 656 q 280 756 218 735 q 417 778 342 778 q 553 756 492 778 q 658 695 615 735 q 725 600 701 656 q 749 476 749 544 l 749 289 q 725 165 749 221 q 658 69 701 108 q 554 8 615 29 q 417 -14 493 -14 m 258 289 q 301 179 258 219 q 417 139 343 139 q 533 179 490 139 q 575 289 575 219 l 575 476 q 533 586 575 546 q 417 626 490 626 q 301 586 343 626 q 258 476 258 546 l 258 289 m 328 1096 l 506 1096 l 663 894 l 528 894 l 457 974 q 438 997 446 988 q 425 1011 431 1006 q 418 1021 421 1017 l 415 1021 q 408 1011 413 1018 q 376 975 400 1000 l 306 894 l 171 894 l 328 1096 z "},"õ":{"ha":833,"x_min":85,"x_max":749,"o":"m 417 -14 q 280 8 342 -14 q 175 70 218 31 q 108 165 132 110 q 85 289 85 221 l 85 476 q 108 600 85 544 q 175 695 132 656 q 280 756 218 735 q 417 778 342 778 q 553 756 492 778 q 658 695 615 735 q 725 600 701 656 q 749 476 749 544 l 749 289 q 725 165 749 221 q 658 69 701 108 q 554 8 615 29 q 417 -14 493 -14 m 258 289 q 301 179 258 219 q 417 139 343 139 q 533 179 490 139 q 575 289 575 219 l 575 476 q 533 586 575 546 q 417 626 490 626 q 301 586 343 626 q 258 476 258 546 l 258 289 m 146 946 q 187 1065 146 1021 q 299 1108 228 1108 q 376 1092 344 1108 q 432 1057 407 1076 q 480 1022 457 1038 q 531 1006 503 1006 q 567 1020 554 1006 q 581 1060 581 1035 l 581 1101 l 688 1101 l 688 1061 q 647 942 688 986 q 535 899 606 899 q 458 915 489 899 q 401 950 426 931 q 353 985 376 969 q 303 1001 331 1001 q 266 986 279 1001 q 253 943 253 971 l 253 906 l 146 906 l 146 946 z "},"ö":{"ha":833,"x_min":85,"x_max":749,"o":"m 417 -14 q 280 8 342 -14 q 175 70 218 31 q 108 165 132 110 q 85 289 85 221 l 85 476 q 108 600 85 544 q 175 695 132 656 q 280 756 218 735 q 417 778 342 778 q 553 756 492 778 q 658 695 615 735 q 725 600 701 656 q 749 476 749 544 l 749 289 q 725 165 749 221 q 658 69 701 108 q 554 8 615 29 q 417 -14 493 -14 m 258 289 q 301 179 258 219 q 417 139 343 139 q 533 179 490 139 q 575 289 575 219 l 575 476 q 533 586 575 546 q 417 626 490 626 q 301 586 343 626 q 258 476 258 546 l 258 289 m 560 1090 q 629 1067 603 1090 q 656 1003 656 1043 q 629 938 656 963 q 560 914 603 914 q 490 938 517 914 q 464 1003 464 963 q 490 1067 464 1043 q 560 1090 517 1090 m 178 1003 q 204 1067 178 1043 q 274 1090 231 1090 q 343 1067 317 1090 q 369 1003 369 1043 q 343 938 369 963 q 274 914 317 914 q 204 938 231 914 q 178 1003 178 963 z "},"š":{"ha":833,"x_min":81,"x_max":750,"o":"m 81 196 l 258 196 q 301 140 267 160 q 388 119 336 119 l 443 119 q 544 145 508 119 q 579 215 579 171 q 461 308 579 292 l 353 321 q 160 393 222 338 q 97 553 97 449 q 173 719 97 661 q 390 778 249 778 l 447 778 q 651 724 574 778 q 742 575 728 671 l 564 575 q 526 626 557 607 q 447 644 494 644 l 390 644 q 268 558 268 644 q 371 472 268 485 l 483 457 q 685 383 619 440 q 750 221 750 325 q 671 47 750 108 q 443 -14 592 -14 l 388 -14 q 173 41 253 -14 q 81 196 93 96 m 171 1096 l 306 1096 l 376 1015 q 408 979 400 990 q 415 969 413 972 l 418 969 q 425 981 421 974 q 438 995 431 986 q 457 1017 446 1004 l 528 1096 l 663 1096 l 506 894 l 328 894 l 171 1096 z "},"ù":{"ha":833,"x_min":104,"x_max":729,"o":"m 278 764 l 278 288 q 417 138 278 138 q 556 288 556 138 l 556 764 l 729 764 l 729 286 q 647 65 729 143 q 417 -14 565 -14 q 186 65 268 -14 q 104 286 104 144 l 104 764 l 278 764 m 224 1097 l 410 1097 l 554 894 l 396 894 l 224 1097 z "},"ú":{"ha":833,"x_min":104,"x_max":729,"o":"m 278 764 l 278 288 q 417 138 278 138 q 556 288 556 138 l 556 764 l 729 764 l 729 286 q 647 65 729 143 q 417 -14 565 -14 q 186 65 268 -14 q 104 286 104 144 l 104 764 l 278 764 m 465 894 l 307 894 l 451 1097 l 638 1097 l 465 894 z "},"û":{"ha":833,"x_min":104,"x_max":729,"o":"m 278 764 l 278 288 q 417 138 278 138 q 556 288 556 138 l 556 764 l 729 764 l 729 286 q 647 65 729 143 q 417 -14 565 -14 q 186 65 268 -14 q 104 286 104 144 l 104 764 l 278 764 m 328 1096 l 506 1096 l 663 894 l 528 894 l 457 974 q 438 997 446 988 q 425 1011 431 1006 q 418 1021 421 1017 l 415 1021 q 408 1011 413 1018 q 376 975 400 1000 l 306 894 l 171 894 l 328 1096 z "},"ü":{"ha":833,"x_min":104,"x_max":729,"o":"m 278 764 l 278 288 q 417 138 278 138 q 556 288 556 138 l 556 764 l 729 764 l 729 286 q 647 65 729 143 q 417 -14 565 -14 q 186 65 268 -14 q 104 286 104 144 l 104 764 l 278 764 m 560 1090 q 629 1067 603 1090 q 656 1003 656 1043 q 629 938 656 963 q 560 914 603 914 q 490 938 517 914 q 464 1003 464 963 q 490 1067 464 1043 q 560 1090 517 1090 m 178 1003 q 204 1067 178 1043 q 274 1090 231 1090 q 343 1067 317 1090 q 369 1003 369 1043 q 343 938 369 963 q 274 914 317 914 q 204 938 231 914 q 178 1003 178 963 z "},"ý":{"ha":833,"x_min":49,"x_max":785,"o":"m 49 764 l 239 764 l 389 357 q 405 305 399 332 q 414 254 411 278 q 421 201 418 228 l 432 201 q 438 254 433 226 q 446 305 440 278 q 460 357 451 332 l 601 764 l 785 764 l 421 -236 l 238 -236 l 343 43 l 49 764 m 465 894 l 307 894 l 451 1097 l 638 1097 l 465 894 z "},"ÿ":{"ha":833,"x_min":49,"x_max":785,"o":"m 49 764 l 239 764 l 389 357 q 405 305 399 332 q 414 254 411 278 q 421 201 418 228 l 432 201 q 438 254 433 226 q 446 305 440 278 q 460 357 451 332 l 601 764 l 785 764 l 421 -236 l 238 -236 l 343 43 l 49 764 m 560 1090 q 629 1067 603 1090 q 656 1003 656 1043 q 629 938 656 963 q 560 914 603 914 q 490 938 517 914 q 464 1003 464 963 q 490 1067 464 1043 q 560 1090 517 1090 m 178 1003 q 204 1067 178 1043 q 274 1090 231 1090 q 343 1067 317 1090 q 369 1003 369 1043 q 343 938 369 963 q 274 914 317 914 q 204 938 231 914 q 178 1003 178 963 z "},"ž":{"ha":833,"x_min":99,"x_max":735,"o":"m 99 164 l 517 614 l 517 622 q 482 618 500 619 q 447 614 467 615 q 406 613 428 613 l 110 613 l 110 764 l 719 764 l 719 599 l 299 149 l 299 139 q 333 146 315 143 q 370 150 350 149 q 410 151 390 151 l 735 151 l 735 0 l 99 0 l 99 164 m 171 1096 l 306 1096 l 376 1015 q 408 979 400 990 q 415 969 413 972 l 418 969 q 425 981 421 974 q 438 995 431 986 q 457 1017 446 1004 l 528 1096 l 663 1096 l 506 894 l 328 894 l 171 1096 z "},"Ñ":{"ha":833,"x_min":96,"x_max":738,"o":"m 310 1000 l 550 335 q 565 283 558 313 q 576 228 571 254 q 586 164 582 196 l 603 164 q 600 185 603 164 q 594 238 597 206 q 587 308 590 269 q 583 383 583 347 l 583 1000 l 738 1000 l 738 0 l 524 0 l 288 667 q 271 724 278 694 q 260 779 264 753 q 250 838 254 808 l 233 838 q 242 767 238 804 q 247 697 244 735 q 250 618 250 658 l 250 0 l 96 0 l 96 1000 l 310 1000 m 146 1168 q 187 1287 146 1243 q 299 1331 228 1331 q 376 1315 344 1331 q 432 1279 407 1299 q 480 1244 457 1260 q 531 1228 503 1228 q 567 1242 554 1228 q 581 1282 581 1257 l 581 1324 l 688 1324 l 688 1283 q 647 1165 688 1208 q 535 1121 606 1121 q 458 1137 489 1121 q 401 1172 426 1153 q 353 1208 376 1192 q 303 1224 331 1224 q 266 1208 279 1224 q 253 1165 253 1193 l 253 1128 l 146 1128 l 146 1168 z "},"Đ":{"ha":833,"x_min":36,"x_max":749,"o":"m 101 574 l 101 1000 l 410 1000 q 549 977 486 1000 q 656 913 611 954 q 724 813 700 871 q 749 683 749 754 l 749 318 q 724 188 749 247 q 656 88 700 129 q 549 23 611 46 q 410 0 486 0 l 101 0 l 101 421 l 36 421 l 36 574 l 101 574 m 417 574 l 417 421 l 276 421 l 276 160 l 410 160 q 529 203 485 160 q 574 318 574 247 l 574 683 q 529 797 574 754 q 410 840 485 840 l 276 840 l 276 574 l 417 574 z "},"Ð":{"ha":833,"x_min":36,"x_max":749,"o":"m 101 574 l 101 1000 l 410 1000 q 549 977 486 1000 q 656 913 611 954 q 724 813 700 871 q 749 683 749 754 l 749 318 q 724 188 749 247 q 656 88 700 129 q 549 23 611 46 q 410 0 486 0 l 101 0 l 101 421 l 36 421 l 36 574 l 101 574 m 417 574 l 417 421 l 276 421 l 276 160 l 410 160 q 529 203 485 160 q 574 318 574 247 l 574 683 q 529 797 574 754 q 410 840 485 840 l 276 840 l 276 574 l 417 574 z "},"þ":{"ha":833,"x_min":99,"x_max":746,"o":"m 272 1000 l 272 769 q 272 726 272 750 q 269 681 271 701 q 265 632 267 657 l 279 632 q 347 739 293 700 q 483 778 400 778 q 592 757 543 778 q 674 697 640 736 q 727 603 708 658 q 746 479 746 549 l 746 289 q 727 163 746 219 q 674 67 708 107 q 592 7 640 28 q 483 -14 543 -14 q 347 25 400 -14 q 279 133 293 64 l 267 133 l 267 75 l 269 -236 l 99 -236 l 99 1000 l 272 1000 m 272 289 q 313 179 272 221 q 421 138 353 138 q 532 180 492 138 q 572 293 572 222 l 572 475 q 532 587 572 546 q 421 628 492 628 q 313 586 354 628 q 272 475 272 544 l 272 289 z "},"Ø":{"ha":833,"x_min":32,"x_max":801,"o":"m 32 -47 l 131 124 q 85 293 85 197 l 85 708 q 108 834 85 778 q 175 931 132 890 q 280 992 218 971 q 417 1014 342 1014 q 524 1001 475 1014 q 613 965 572 989 l 651 1033 l 801 1033 l 707 869 q 749 708 749 801 l 749 293 q 725 168 749 225 q 658 71 701 111 q 553 8 614 31 q 417 -14 492 -14 q 314 -2 361 -14 q 228 32 267 10 l 182 -47 l 32 -47 m 531 822 q 417 863 486 863 q 301 821 344 863 q 258 708 258 779 l 258 347 l 531 822 m 308 175 q 417 139 351 139 q 532 181 489 139 q 575 293 575 222 l 575 639 l 308 175 z "},"ø":{"ha":833,"x_min":40,"x_max":793,"o":"m 40 -42 l 144 104 q 85 289 85 181 l 85 476 q 108 600 85 544 q 175 695 132 656 q 280 756 218 735 q 417 778 342 778 q 594 739 517 778 l 646 811 l 793 811 l 688 664 q 749 476 749 588 l 749 289 q 725 165 749 221 q 658 69 701 108 q 554 8 615 29 q 417 -14 493 -14 q 236 26 313 -14 l 188 -42 l 40 -42 m 329 158 q 417 139 368 139 q 533 179 490 139 q 575 289 575 219 l 575 476 q 575 489 575 483 q 574 501 575 494 l 329 158 m 501 608 q 417 626 463 626 q 301 586 343 626 q 258 476 258 546 l 258 289 q 258 278 258 283 q 260 267 258 272 l 501 608 z "},"ł":{"ha":833,"x_min":43,"x_max":776,"o":"m 43 1006 l 460 1006 l 460 663 l 661 778 l 661 618 l 460 503 l 460 247 q 484 181 460 204 q 549 157 508 157 l 776 157 l 776 0 l 536 0 q 353 65 419 0 q 286 247 286 131 l 286 404 l 139 319 l 139 479 l 286 564 l 286 849 l 43 849 l 43 1006 z "},"Ł":{"ha":833,"x_min":28,"x_max":756,"o":"m 28 479 l 146 547 l 146 1000 l 319 1000 l 319 646 l 550 778 l 550 618 l 319 486 l 319 161 l 756 161 l 756 0 l 146 0 l 146 388 l 28 319 l 28 479 z "},"Ā":{"ha":833,"x_min":33,"x_max":800,"o":"m 303 1000 l 538 1000 l 800 0 l 621 0 l 561 251 l 271 251 l 211 0 l 33 0 l 303 1000 m 528 389 l 443 746 q 433 796 438 771 q 425 840 428 821 q 419 885 422 863 l 413 885 q 407 840 410 863 q 400 796 404 821 q 389 746 396 771 l 304 389 l 528 389 m 219 1304 l 614 1304 l 614 1156 l 219 1156 l 219 1304 z "},"ā":{"ha":833,"x_min":71,"x_max":733,"o":"m 71 214 q 92 316 71 271 q 151 393 113 361 q 245 442 190 425 q 368 460 300 460 l 560 460 l 560 525 q 520 609 560 578 q 410 640 481 640 q 314 619 353 640 q 264 563 275 599 l 94 563 q 129 652 103 613 q 197 719 156 692 q 293 763 239 747 q 411 778 347 778 q 544 760 485 778 q 646 710 604 743 q 710 631 688 678 q 733 528 733 585 l 733 0 l 569 0 l 569 150 l 557 150 q 479 31 544 75 q 317 -14 414 -14 q 138 48 204 -14 q 71 214 71 110 m 244 235 q 280 152 244 182 q 379 122 315 122 q 508 160 457 122 q 560 257 560 199 l 560 346 l 369 346 q 278 317 311 346 q 244 235 244 288 m 219 1082 l 614 1082 l 614 933 l 219 933 l 219 1082 z "},"Ă":{"ha":833,"x_min":33,"x_max":800,"o":"m 303 1000 l 538 1000 l 800 0 l 621 0 l 561 251 l 271 251 l 211 0 l 33 0 l 303 1000 m 528 389 l 443 746 q 433 796 438 771 q 425 840 428 821 q 419 885 422 863 l 413 885 q 407 840 410 863 q 400 796 404 821 q 389 746 396 771 l 304 389 l 528 389 m 172 1311 l 310 1311 q 338 1248 310 1269 q 415 1226 367 1226 q 494 1248 464 1226 q 525 1311 525 1269 l 661 1311 q 643 1232 661 1268 q 592 1169 625 1196 q 515 1129 560 1143 q 417 1115 471 1115 q 318 1129 363 1115 q 241 1169 274 1143 q 190 1232 208 1196 q 172 1311 172 1268 z "},"ă":{"ha":833,"x_min":71,"x_max":733,"o":"m 71 214 q 92 316 71 271 q 151 393 113 361 q 245 442 190 425 q 368 460 300 460 l 560 460 l 560 525 q 520 609 560 578 q 410 640 481 640 q 314 619 353 640 q 264 563 275 599 l 94 563 q 129 652 103 613 q 197 719 156 692 q 293 763 239 747 q 411 778 347 778 q 544 760 485 778 q 646 710 604 743 q 710 631 688 678 q 733 528 733 585 l 733 0 l 569 0 l 569 150 l 557 150 q 479 31 544 75 q 317 -14 414 -14 q 138 48 204 -14 q 71 214 71 110 m 244 235 q 280 152 244 182 q 379 122 315 122 q 508 160 457 122 q 560 257 560 199 l 560 346 l 369 346 q 278 317 311 346 q 244 235 244 288 m 172 1089 l 310 1089 q 338 1026 310 1047 q 415 1004 367 1004 q 494 1026 464 1004 q 525 1089 525 1047 l 661 1089 q 643 1010 661 1046 q 592 947 625 974 q 515 907 560 921 q 417 893 471 893 q 318 907 363 893 q 241 947 274 921 q 190 1010 208 974 q 172 1089 172 1046 z "},"Ą":{"ha":833,"x_min":33,"x_max":828,"o":"m 303 1000 l 538 1000 l 800 0 l 621 0 l 561 251 l 271 251 l 211 0 l 33 0 l 303 1000 m 528 389 l 443 746 q 433 796 438 771 q 425 840 428 821 q 419 885 422 863 l 413 885 q 407 840 410 863 q 400 796 404 821 q 389 746 396 771 l 304 389 l 528 389 m 526 -154 q 551 -73 526 -112 q 635 15 575 -33 l 767 15 l 743 -4 q 685 -66 703 -37 q 668 -122 668 -94 q 687 -166 668 -150 q 738 -182 706 -182 l 828 -182 l 828 -286 l 703 -286 q 575 -250 624 -286 q 526 -154 526 -214 z "},"ą":{"ha":833,"x_min":71,"x_max":775,"o":"m 71 214 q 92 316 71 271 q 151 393 113 361 q 245 442 190 425 q 368 460 300 460 l 560 460 l 560 525 q 520 609 560 578 q 410 640 481 640 q 314 619 353 640 q 264 563 275 599 l 94 563 q 129 652 103 613 q 197 719 156 692 q 293 763 239 747 q 411 778 347 778 q 544 760 485 778 q 646 710 604 743 q 710 631 688 678 q 733 528 733 585 l 733 0 l 569 0 l 569 150 l 557 150 q 479 31 544 75 q 317 -14 414 -14 q 138 48 204 -14 q 71 214 71 110 m 244 235 q 280 152 244 182 q 379 122 315 122 q 508 160 457 122 q 560 257 560 199 l 560 346 l 369 346 q 278 317 311 346 q 244 235 244 288 m 472 -154 q 497 -73 472 -112 q 581 15 521 -33 l 713 15 l 689 -4 q 631 -66 649 -37 q 614 -122 614 -94 q 633 -166 614 -150 q 683 -182 651 -182 l 774 -182 l 774 -286 l 649 -286 q 521 -250 569 -286 q 472 -154 472 -214 z "},"Ć":{"ha":833,"x_min":93,"x_max":754,"o":"m 424 -14 q 288 8 349 -14 q 183 69 226 29 q 117 167 140 110 q 93 293 93 224 l 93 707 q 117 833 93 776 q 183 931 140 890 q 288 992 226 971 q 424 1014 349 1014 q 556 993 497 1014 q 658 934 615 972 q 726 841 701 896 q 754 719 751 786 l 581 719 q 535 822 578 785 q 424 858 493 858 q 309 818 351 858 q 267 707 267 778 l 267 293 q 308 182 267 222 q 424 142 349 142 q 535 180 493 142 q 581 282 578 218 l 754 282 q 659 66 747 146 q 424 -14 571 -14 m 465 1117 l 307 1117 l 451 1319 l 638 1319 l 465 1117 z "},"ć":{"ha":833,"x_min":94,"x_max":758,"o":"m 425 -14 q 289 7 350 -14 q 185 67 228 28 q 118 160 142 106 q 94 283 94 215 l 94 479 q 118 602 94 547 q 185 696 142 657 q 289 756 228 735 q 425 778 350 778 q 549 759 492 778 q 649 705 606 740 q 720 620 692 669 q 758 508 749 571 l 585 508 q 532 594 575 561 q 425 626 489 626 q 310 588 351 626 q 268 479 268 549 l 268 283 q 309 176 268 215 q 425 138 350 138 q 531 170 488 138 q 585 256 575 203 l 758 256 q 720 144 749 193 q 648 59 692 94 q 548 5 604 24 q 425 -14 492 -14 m 465 894 l 307 894 l 451 1097 l 638 1097 l 465 894 z "},"Ĉ":{"ha":833,"x_min":93,"x_max":754,"o":"m 424 -14 q 288 8 349 -14 q 183 69 226 29 q 117 167 140 110 q 93 293 93 224 l 93 707 q 117 833 93 776 q 183 931 140 890 q 288 992 226 971 q 424 1014 349 1014 q 556 993 497 1014 q 658 934 615 972 q 726 841 701 896 q 754 719 751 786 l 581 719 q 535 822 578 785 q 424 858 493 858 q 309 818 351 858 q 267 707 267 778 l 267 293 q 308 182 267 222 q 424 142 349 142 q 535 180 493 142 q 581 282 578 218 l 754 282 q 659 66 747 146 q 424 -14 571 -14 m 328 1318 l 506 1318 l 663 1117 l 528 1117 l 457 1196 q 438 1219 446 1210 q 425 1233 431 1228 q 418 1243 421 1239 l 415 1243 q 408 1233 413 1240 q 376 1197 400 1222 l 306 1117 l 171 1117 l 328 1318 z "},"ĉ":{"ha":833,"x_min":94,"x_max":758,"o":"m 425 -14 q 289 7 350 -14 q 185 67 228 28 q 118 160 142 106 q 94 283 94 215 l 94 479 q 118 602 94 547 q 185 696 142 657 q 289 756 228 735 q 425 778 350 778 q 549 759 492 778 q 649 705 606 740 q 720 620 692 669 q 758 508 749 571 l 585 508 q 532 594 575 561 q 425 626 489 626 q 310 588 351 626 q 268 479 268 549 l 268 283 q 309 176 268 215 q 425 138 350 138 q 531 170 488 138 q 585 256 575 203 l 758 256 q 720 144 749 193 q 648 59 692 94 q 548 5 604 24 q 425 -14 492 -14 m 328 1096 l 506 1096 l 663 894 l 528 894 l 457 974 q 438 997 446 988 q 425 1011 431 1006 q 418 1021 421 1017 l 415 1021 q 408 1011 413 1018 q 376 975 400 1000 l 306 894 l 171 894 l 328 1096 z "},"Ċ":{"ha":833,"x_min":93,"x_max":754,"o":"m 424 -14 q 288 8 349 -14 q 183 69 226 29 q 117 167 140 110 q 93 293 93 224 l 93 707 q 117 833 93 776 q 183 931 140 890 q 288 992 226 971 q 424 1014 349 1014 q 556 993 497 1014 q 658 934 615 972 q 726 841 701 896 q 754 719 751 786 l 581 719 q 535 822 578 785 q 424 858 493 858 q 309 818 351 858 q 267 707 267 778 l 267 293 q 308 182 267 222 q 424 142 349 142 q 535 180 493 142 q 581 282 578 218 l 754 282 q 659 66 747 146 q 424 -14 571 -14 m 385 1332 l 421 1332 q 492 1306 465 1332 q 519 1240 519 1281 q 492 1174 519 1199 q 419 1150 464 1150 l 385 1150 q 313 1174 340 1150 q 286 1240 286 1199 q 313 1306 286 1281 q 385 1332 340 1332 z "},"ċ":{"ha":833,"x_min":94,"x_max":758,"o":"m 425 -14 q 289 7 350 -14 q 185 67 228 28 q 118 160 142 106 q 94 283 94 215 l 94 479 q 118 602 94 547 q 185 696 142 657 q 289 756 228 735 q 425 778 350 778 q 549 759 492 778 q 649 705 606 740 q 720 620 692 669 q 758 508 749 571 l 585 508 q 532 594 575 561 q 425 626 489 626 q 310 588 351 626 q 268 479 268 549 l 268 283 q 309 176 268 215 q 425 138 350 138 q 531 170 488 138 q 585 256 575 203 l 758 256 q 720 144 749 193 q 648 59 692 94 q 548 5 604 24 q 425 -14 492 -14 m 385 1110 l 421 1110 q 492 1084 465 1110 q 519 1018 519 1058 q 492 952 519 976 q 419 928 464 928 l 385 928 q 313 952 340 928 q 286 1018 286 976 q 313 1084 286 1058 q 385 1110 340 1110 z "},"Č":{"ha":833,"x_min":93,"x_max":754,"o":"m 424 -14 q 288 8 349 -14 q 183 69 226 29 q 117 167 140 110 q 93 293 93 224 l 93 707 q 117 833 93 776 q 183 931 140 890 q 288 992 226 971 q 424 1014 349 1014 q 556 993 497 1014 q 658 934 615 972 q 726 841 701 896 q 754 719 751 786 l 581 719 q 535 822 578 785 q 424 858 493 858 q 309 818 351 858 q 267 707 267 778 l 267 293 q 308 182 267 222 q 424 142 349 142 q 535 180 493 142 q 581 282 578 218 l 754 282 q 659 66 747 146 q 424 -14 571 -14 m 171 1318 l 306 1318 l 376 1238 q 408 1201 400 1213 q 415 1192 413 1194 l 418 1192 q 425 1203 421 1196 q 438 1217 431 1208 q 457 1239 446 1226 l 528 1318 l 663 1318 l 506 1117 l 328 1117 l 171 1318 z "},"Ď":{"ha":833,"x_min":101,"x_max":749,"o":"m 101 1000 l 410 1000 q 549 977 486 1000 q 656 913 611 954 q 724 813 700 871 q 749 683 749 754 l 749 318 q 724 188 749 247 q 656 88 700 129 q 549 23 611 46 q 410 0 486 0 l 101 0 l 101 1000 m 276 160 l 410 160 q 529 203 485 160 q 574 318 574 247 l 574 683 q 529 797 574 754 q 410 840 485 840 l 276 840 l 276 160 m 171 1318 l 306 1318 l 376 1238 q 408 1201 400 1213 q 415 1192 413 1194 l 418 1192 q 425 1203 421 1196 q 438 1217 431 1208 q 457 1239 446 1226 l 528 1318 l 663 1318 l 506 1117 l 328 1117 l 171 1318 z "},"ď":{"ha":833,"x_min":65,"x_max":921,"o":"m 65 479 q 84 603 65 549 q 138 697 103 658 q 220 757 172 736 q 328 778 268 778 q 465 739 411 778 q 532 632 518 700 l 544 632 q 542 679 543 656 q 538 723 539 700 q 538 764 538 746 l 538 1000 l 713 1000 l 713 0 l 544 0 l 544 133 l 532 133 q 465 25 518 64 q 328 -14 411 -14 q 220 7 268 -14 q 138 67 172 28 q 84 163 103 107 q 65 289 65 219 l 65 479 m 390 138 q 498 179 458 138 q 538 289 538 221 l 538 475 q 497 586 538 544 q 390 628 457 628 q 279 587 319 628 q 239 475 239 546 l 239 293 q 279 180 239 222 q 390 138 319 138 m 796 1050 l 921 1050 l 828 847 l 731 847 l 796 1050 z "},"Ē":{"ha":833,"x_min":119,"x_max":735,"o":"m 119 0 l 119 1000 l 735 1000 l 735 847 l 293 847 l 293 590 l 686 590 l 686 438 l 293 438 l 293 153 l 735 153 l 735 0 l 119 0 m 219 1304 l 614 1304 l 614 1156 l 219 1156 l 219 1304 z "},"ē":{"ha":833,"x_min":85,"x_max":746,"o":"m 85 479 q 108 603 85 547 q 175 697 132 658 q 279 757 218 736 q 417 778 340 778 q 552 756 492 778 q 656 696 613 735 q 722 601 699 657 q 746 478 746 546 l 746 339 l 257 339 l 257 289 q 299 168 257 211 q 417 125 342 125 q 513 143 472 125 q 569 193 553 161 l 740 193 q 699 108 728 146 q 627 42 669 69 q 531 1 585 15 q 417 -14 478 -14 q 280 7 342 -14 q 175 67 218 28 q 108 163 132 107 q 85 286 85 218 l 85 479 m 257 456 l 576 456 l 576 478 q 534 597 576 554 q 417 639 492 639 q 299 597 342 639 q 257 479 257 554 l 257 456 m 219 1082 l 614 1082 l 614 933 l 219 933 l 219 1082 z "},"Ĕ":{"ha":833,"x_min":119,"x_max":735,"o":"m 119 0 l 119 1000 l 735 1000 l 735 847 l 293 847 l 293 590 l 686 590 l 686 438 l 293 438 l 293 153 l 735 153 l 735 0 l 119 0 m 172 1311 l 310 1311 q 338 1248 310 1269 q 415 1226 367 1226 q 494 1248 464 1226 q 525 1311 525 1269 l 661 1311 q 643 1232 661 1268 q 592 1169 625 1196 q 515 1129 560 1143 q 417 1115 471 1115 q 318 1129 363 1115 q 241 1169 274 1143 q 190 1232 208 1196 q 172 1311 172 1268 z "},"ĕ":{"ha":833,"x_min":85,"x_max":746,"o":"m 85 479 q 108 603 85 547 q 175 697 132 658 q 279 757 218 736 q 417 778 340 778 q 552 756 492 778 q 656 696 613 735 q 722 601 699 657 q 746 478 746 546 l 746 339 l 257 339 l 257 289 q 299 168 257 211 q 417 125 342 125 q 513 143 472 125 q 569 193 553 161 l 740 193 q 699 108 728 146 q 627 42 669 69 q 531 1 585 15 q 417 -14 478 -14 q 280 7 342 -14 q 175 67 218 28 q 108 163 132 107 q 85 286 85 218 l 85 479 m 257 456 l 576 456 l 576 478 q 534 597 576 554 q 417 639 492 639 q 299 597 342 639 q 257 479 257 554 l 257 456 m 172 1089 l 310 1089 q 338 1026 310 1047 q 415 1004 367 1004 q 494 1026 464 1004 q 525 1089 525 1047 l 661 1089 q 643 1010 661 1046 q 592 947 625 974 q 515 907 560 921 q 417 893 471 893 q 318 907 363 893 q 241 947 274 921 q 190 1010 208 974 q 172 1089 172 1046 z "},"Ė":{"ha":833,"x_min":119,"x_max":735,"o":"m 119 0 l 119 1000 l 735 1000 l 735 847 l 293 847 l 293 590 l 686 590 l 686 438 l 293 438 l 293 153 l 735 153 l 735 0 l 119 0 m 385 1332 l 421 1332 q 492 1306 465 1332 q 519 1240 519 1281 q 492 1174 519 1199 q 419 1150 464 1150 l 385 1150 q 313 1174 340 1150 q 286 1240 286 1199 q 313 1306 286 1281 q 385 1332 340 1332 z "},"ė":{"ha":833,"x_min":85,"x_max":746,"o":"m 85 479 q 108 603 85 547 q 175 697 132 658 q 279 757 218 736 q 417 778 340 778 q 552 756 492 778 q 656 696 613 735 q 722 601 699 657 q 746 478 746 546 l 746 339 l 257 339 l 257 289 q 299 168 257 211 q 417 125 342 125 q 513 143 472 125 q 569 193 553 161 l 740 193 q 699 108 728 146 q 627 42 669 69 q 531 1 585 15 q 417 -14 478 -14 q 280 7 342 -14 q 175 67 218 28 q 108 163 132 107 q 85 286 85 218 l 85 479 m 257 456 l 576 456 l 576 478 q 534 597 576 554 q 417 639 492 639 q 299 597 342 639 q 257 479 257 554 l 257 456 m 385 1110 l 421 1110 q 492 1084 465 1110 q 519 1018 519 1058 q 492 952 519 976 q 419 928 464 928 l 385 928 q 313 952 340 928 q 286 1018 286 976 q 313 1084 286 1058 q 385 1110 340 1110 z "},"Ę":{"ha":833,"x_min":119,"x_max":735,"o":"m 119 0 l 119 1000 l 735 1000 l 735 847 l 293 847 l 293 590 l 686 590 l 686 438 l 293 438 l 293 153 l 735 153 l 735 0 l 119 0 m 424 -154 q 448 -73 424 -112 q 532 15 472 -33 l 664 15 l 640 -4 q 583 -66 600 -37 q 565 -122 565 -94 q 584 -166 565 -150 q 635 -182 603 -182 l 725 -182 l 725 -286 l 600 -286 q 472 -250 521 -286 q 424 -154 424 -214 z "},"ę":{"ha":833,"x_min":85,"x_max":746,"o":"m 85 479 q 108 603 85 547 q 175 697 132 658 q 279 757 218 736 q 417 778 340 778 q 552 756 492 778 q 656 696 613 735 q 722 601 699 657 q 746 478 746 546 l 746 339 l 257 339 l 257 289 q 299 168 257 211 q 417 125 342 125 q 513 143 472 125 q 569 193 553 161 l 740 193 q 703 113 729 149 q 639 50 676 78 l 575 -6 q 524 -64 539 -37 q 508 -118 508 -90 q 528 -165 508 -147 q 581 -182 547 -182 l 694 -182 l 694 -286 l 551 -286 q 417 -251 465 -286 q 368 -160 368 -215 q 451 -12 368 -90 q 434 -14 443 -14 q 417 -14 425 -14 q 280 7 342 -14 q 175 67 218 28 q 108 163 132 107 q 85 286 85 218 l 85 479 m 257 456 l 576 456 l 576 478 q 534 597 576 554 q 417 639 492 639 q 299 597 342 639 q 257 479 257 554 l 257 456 z "},"Ě":{"ha":833,"x_min":119,"x_max":735,"o":"m 119 0 l 119 1000 l 735 1000 l 735 847 l 293 847 l 293 590 l 686 590 l 686 438 l 293 438 l 293 153 l 735 153 l 735 0 l 119 0 m 171 1318 l 306 1318 l 376 1238 q 408 1201 400 1213 q 415 1192 413 1194 l 418 1192 q 425 1203 421 1196 q 438 1217 431 1208 q 457 1239 446 1226 l 528 1318 l 663 1318 l 506 1117 l 328 1117 l 171 1318 z "},"ě":{"ha":833,"x_min":85,"x_max":746,"o":"m 85 479 q 108 603 85 547 q 175 697 132 658 q 279 757 218 736 q 417 778 340 778 q 552 756 492 778 q 656 696 613 735 q 722 601 699 657 q 746 478 746 546 l 746 339 l 257 339 l 257 289 q 299 168 257 211 q 417 125 342 125 q 513 143 472 125 q 569 193 553 161 l 740 193 q 699 108 728 146 q 627 42 669 69 q 531 1 585 15 q 417 -14 478 -14 q 280 7 342 -14 q 175 67 218 28 q 108 163 132 107 q 85 286 85 218 l 85 479 m 257 456 l 576 456 l 576 478 q 534 597 576 554 q 417 639 492 639 q 299 597 342 639 q 257 479 257 554 l 257 456 m 171 1096 l 306 1096 l 376 1015 q 408 979 400 990 q 415 969 413 972 l 418 969 q 425 981 421 974 q 438 995 431 986 q 457 1017 446 1004 l 528 1096 l 663 1096 l 506 894 l 328 894 l 171 1096 z "},"Ĝ":{"ha":833,"x_min":85,"x_max":751,"o":"m 85 293 l 85 707 q 108 831 85 775 q 176 927 132 888 q 281 988 219 967 q 417 1010 342 1010 q 644 938 556 1010 q 751 735 732 865 l 576 735 q 525 822 568 790 q 417 854 482 854 q 301 815 343 854 q 258 707 258 775 l 258 293 q 301 181 258 222 q 417 139 343 139 q 533 181 490 139 q 575 293 575 222 l 575 389 l 399 389 l 399 538 l 749 538 l 749 293 q 725 167 749 224 q 658 69 701 110 q 553 8 615 29 q 417 -14 492 -14 q 281 8 342 -14 q 176 71 219 31 q 108 167 132 111 q 85 293 85 224 m 328 1318 l 506 1318 l 663 1117 l 528 1117 l 457 1196 q 438 1219 446 1210 q 425 1233 431 1228 q 418 1243 421 1239 l 415 1243 q 408 1233 413 1240 q 376 1197 400 1222 l 306 1117 l 171 1117 l 328 1318 z "},"ĝ":{"ha":833,"x_min":81,"x_max":732,"o":"m 81 482 q 99 603 81 549 q 153 697 118 658 q 236 757 188 736 q 344 778 285 778 q 486 737 431 778 q 556 625 542 696 l 565 625 l 565 764 l 732 764 l 732 44 q 710 -72 732 -19 q 646 -160 688 -124 q 545 -216 604 -196 q 414 -236 486 -236 l 210 -236 l 210 -92 l 414 -92 q 519 -55 481 -92 q 558 44 558 -18 l 558 63 l 564 207 l 556 207 q 485 95 542 136 q 344 54 429 54 q 236 76 285 54 q 153 135 188 97 q 99 228 118 174 q 81 350 81 283 l 81 482 m 256 354 q 296 245 256 285 q 407 206 336 206 q 517 245 476 206 q 558 354 558 285 l 558 478 q 517 588 558 547 q 407 628 476 628 q 296 588 336 628 q 256 478 256 547 l 256 354 m 328 1096 l 506 1096 l 663 894 l 528 894 l 457 974 q 438 997 446 988 q 425 1011 431 1006 q 418 1021 421 1017 l 415 1021 q 408 1011 413 1018 q 376 975 400 1000 l 306 894 l 171 894 l 328 1096 z "},"Ğ":{"ha":833,"x_min":85,"x_max":751,"o":"m 85 293 l 85 707 q 108 831 85 775 q 176 927 132 888 q 281 988 219 967 q 417 1010 342 1010 q 644 938 556 1010 q 751 735 732 865 l 576 735 q 525 822 568 790 q 417 854 482 854 q 301 815 343 854 q 258 707 258 775 l 258 293 q 301 181 258 222 q 417 139 343 139 q 533 181 490 139 q 575 293 575 222 l 575 389 l 399 389 l 399 538 l 749 538 l 749 293 q 725 167 749 224 q 658 69 701 110 q 553 8 615 29 q 417 -14 492 -14 q 281 8 342 -14 q 176 71 219 31 q 108 167 132 111 q 85 293 85 224 m 172 1311 l 310 1311 q 338 1248 310 1269 q 415 1226 367 1226 q 494 1248 464 1226 q 525 1311 525 1269 l 661 1311 q 643 1232 661 1268 q 592 1169 625 1196 q 515 1129 560 1143 q 417 1115 471 1115 q 318 1129 363 1115 q 241 1169 274 1143 q 190 1232 208 1196 q 172 1311 172 1268 z "},"ğ":{"ha":833,"x_min":81,"x_max":732,"o":"m 81 482 q 99 603 81 549 q 153 697 118 658 q 236 757 188 736 q 344 778 285 778 q 486 737 431 778 q 556 625 542 696 l 565 625 l 565 764 l 732 764 l 732 44 q 710 -72 732 -19 q 646 -160 688 -124 q 545 -216 604 -196 q 414 -236 486 -236 l 210 -236 l 210 -92 l 414 -92 q 519 -55 481 -92 q 558 44 558 -18 l 558 63 l 564 207 l 556 207 q 485 95 542 136 q 344 54 429 54 q 236 76 285 54 q 153 135 188 97 q 99 228 118 174 q 81 350 81 283 l 81 482 m 256 354 q 296 245 256 285 q 407 206 336 206 q 517 245 476 206 q 558 354 558 285 l 558 478 q 517 588 558 547 q 407 628 476 628 q 296 588 336 628 q 256 478 256 547 l 256 354 m 172 1089 l 310 1089 q 338 1026 310 1047 q 415 1004 367 1004 q 494 1026 464 1004 q 525 1089 525 1047 l 661 1089 q 643 1010 661 1046 q 592 947 625 974 q 515 907 560 921 q 417 893 471 893 q 318 907 363 893 q 241 947 274 921 q 190 1010 208 974 q 172 1089 172 1046 z "},"Ġ":{"ha":833,"x_min":85,"x_max":751,"o":"m 85 293 l 85 707 q 108 831 85 775 q 176 927 132 888 q 281 988 219 967 q 417 1010 342 1010 q 644 938 556 1010 q 751 735 732 865 l 576 735 q 525 822 568 790 q 417 854 482 854 q 301 815 343 854 q 258 707 258 775 l 258 293 q 301 181 258 222 q 417 139 343 139 q 533 181 490 139 q 575 293 575 222 l 575 389 l 399 389 l 399 538 l 749 538 l 749 293 q 725 167 749 224 q 658 69 701 110 q 553 8 615 29 q 417 -14 492 -14 q 281 8 342 -14 q 176 71 219 31 q 108 167 132 111 q 85 293 85 224 m 385 1332 l 421 1332 q 492 1306 465 1332 q 519 1240 519 1281 q 492 1174 519 1199 q 419 1150 464 1150 l 385 1150 q 313 1174 340 1150 q 286 1240 286 1199 q 313 1306 286 1281 q 385 1332 340 1332 z "},"ġ":{"ha":833,"x_min":81,"x_max":732,"o":"m 81 482 q 99 603 81 549 q 153 697 118 658 q 236 757 188 736 q 344 778 285 778 q 486 737 431 778 q 556 625 542 696 l 565 625 l 565 764 l 732 764 l 732 44 q 710 -72 732 -19 q 646 -160 688 -124 q 545 -216 604 -196 q 414 -236 486 -236 l 210 -236 l 210 -92 l 414 -92 q 519 -55 481 -92 q 558 44 558 -18 l 558 63 l 564 207 l 556 207 q 485 95 542 136 q 344 54 429 54 q 236 76 285 54 q 153 135 188 97 q 99 228 118 174 q 81 350 81 283 l 81 482 m 256 354 q 296 245 256 285 q 407 206 336 206 q 517 245 476 206 q 558 354 558 285 l 558 478 q 517 588 558 547 q 407 628 476 628 q 296 588 336 628 q 256 478 256 547 l 256 354 m 385 1110 l 421 1110 q 492 1084 465 1110 q 519 1018 519 1058 q 492 952 519 976 q 419 928 464 928 l 385 928 q 313 952 340 928 q 286 1018 286 976 q 313 1084 286 1058 q 385 1110 340 1110 z "},"Ĥ":{"ha":833,"x_min":104,"x_max":728,"o":"m 104 0 l 104 1000 l 278 1000 l 278 600 l 554 600 l 554 1000 l 728 1000 l 728 0 l 554 0 l 554 440 l 278 440 l 278 0 l 104 0 m 328 1318 l 506 1318 l 663 1117 l 528 1117 l 457 1196 q 438 1219 446 1210 q 425 1233 431 1228 q 418 1243 421 1239 l 415 1243 q 408 1233 413 1240 q 376 1197 400 1222 l 306 1117 l 171 1117 l 328 1318 z "},"ĥ":{"ha":833,"x_min":-37,"x_max":731,"o":"m 100 1000 l 274 1000 l 274 764 q 272 720 274 743 q 269 678 271 697 q 265 645 267 658 q 264 632 264 632 l 278 632 q 343 740 290 701 q 479 778 396 778 q 663 703 594 778 q 731 500 731 628 l 731 0 l 557 0 l 557 479 q 519 588 557 549 q 417 628 482 628 q 312 587 350 628 q 274 475 274 546 l 274 0 l 100 0 l 100 1000 m 119 1318 l 297 1318 l 454 1117 l 319 1117 l 249 1196 q 230 1219 238 1210 q 217 1233 222 1228 q 210 1243 213 1239 l 207 1243 q 200 1233 204 1240 q 168 1197 192 1222 l 97 1117 l -37 1117 l 119 1318 z "},"Ĩ":{"ha":833,"x_min":115,"x_max":718,"o":"m 115 849 l 115 1000 l 718 1000 l 718 849 l 504 849 l 504 151 l 718 151 l 718 0 l 115 0 l 115 151 l 329 151 l 329 849 l 115 849 m 146 1168 q 187 1287 146 1243 q 299 1331 228 1331 q 376 1315 344 1331 q 432 1279 407 1299 q 480 1244 457 1260 q 531 1228 503 1228 q 567 1242 554 1228 q 581 1282 581 1257 l 581 1324 l 688 1324 l 688 1283 q 647 1165 688 1208 q 535 1121 606 1121 q 458 1137 489 1121 q 401 1172 426 1153 q 353 1208 376 1192 q 303 1224 331 1224 q 266 1208 279 1224 q 253 1165 253 1193 l 253 1128 l 146 1128 l 146 1168 z "},"ĩ":{"ha":833,"x_min":106,"x_max":774,"o":"m 106 158 l 389 158 l 389 607 l 139 607 l 139 764 l 556 764 l 556 158 l 774 158 l 774 0 l 106 0 l 106 158 m 146 946 q 187 1065 146 1021 q 299 1108 228 1108 q 376 1092 344 1108 q 432 1057 407 1076 q 480 1022 457 1038 q 531 1006 503 1006 q 567 1020 554 1006 q 581 1060 581 1035 l 581 1101 l 688 1101 l 688 1061 q 647 942 688 986 q 535 899 606 899 q 458 915 489 899 q 401 950 426 931 q 353 985 376 969 q 303 1001 331 1001 q 266 986 279 1001 q 253 943 253 971 l 253 906 l 146 906 l 146 946 z "},"Ī":{"ha":833,"x_min":115,"x_max":718,"o":"m 115 849 l 115 1000 l 718 1000 l 718 849 l 504 849 l 504 151 l 718 151 l 718 0 l 115 0 l 115 151 l 329 151 l 329 849 l 115 849 m 219 1304 l 614 1304 l 614 1156 l 219 1156 l 219 1304 z "},"ī":{"ha":833,"x_min":106,"x_max":774,"o":"m 106 158 l 389 158 l 389 607 l 139 607 l 139 764 l 556 764 l 556 158 l 774 158 l 774 0 l 106 0 l 106 158 m 219 1082 l 614 1082 l 614 933 l 219 933 l 219 1082 z "},"Į":{"ha":833,"x_min":115,"x_max":718,"o":"m 115 849 l 115 1000 l 718 1000 l 718 849 l 504 849 l 504 151 l 718 151 l 718 0 l 115 0 l 115 151 l 329 151 l 329 849 l 115 849 m 254 -154 q 278 -73 254 -112 q 363 15 303 -33 l 494 15 l 471 -4 q 413 -66 431 -37 q 396 -122 396 -94 q 415 -166 396 -150 q 465 -182 433 -182 l 556 -182 l 556 -286 l 431 -286 q 303 -250 351 -286 q 254 -154 254 -214 z "},"į":{"ha":833,"x_min":115,"x_max":776,"o":"m 115 158 l 389 158 l 389 607 l 150 607 l 150 764 l 556 764 l 556 158 l 776 158 l 776 0 l 115 0 l 115 158 m 339 971 q 366 1037 339 1011 q 438 1063 393 1063 l 474 1063 q 545 1037 518 1063 q 572 971 572 1011 q 545 904 572 929 q 472 879 518 879 l 438 879 q 366 904 393 879 q 339 971 339 929 m 304 -154 q 328 -73 304 -112 q 413 15 353 -33 l 544 15 l 521 -4 q 463 -66 481 -37 q 446 -122 446 -94 q 465 -166 446 -150 q 515 -182 483 -182 l 606 -182 l 606 -286 l 481 -286 q 353 -250 401 -286 q 304 -154 304 -214 z "},"İ":{"ha":833,"x_min":115,"x_max":718,"o":"m 115 849 l 115 1000 l 718 1000 l 718 849 l 504 849 l 504 151 l 718 151 l 718 0 l 115 0 l 115 151 l 329 151 l 329 849 l 115 849 m 385 1332 l 421 1332 q 492 1306 465 1332 q 519 1240 519 1281 q 492 1174 519 1199 q 419 1150 464 1150 l 385 1150 q 313 1174 340 1150 q 286 1240 286 1199 q 313 1306 286 1281 q 385 1332 340 1332 z "},"Ń":{"ha":833,"x_min":96,"x_max":738,"o":"m 310 1000 l 550 335 q 565 283 558 313 q 576 228 571 254 q 586 164 582 196 l 603 164 q 600 185 603 164 q 594 238 597 206 q 587 308 590 269 q 583 383 583 347 l 583 1000 l 738 1000 l 738 0 l 524 0 l 288 667 q 271 724 278 694 q 260 779 264 753 q 250 838 254 808 l 233 838 q 242 767 238 804 q 247 697 244 735 q 250 618 250 658 l 250 0 l 96 0 l 96 1000 l 310 1000 m 465 1117 l 307 1117 l 451 1319 l 638 1319 l 465 1117 z "},"ń":{"ha":833,"x_min":100,"x_max":731,"o":"m 100 764 l 264 764 l 264 632 l 276 632 q 343 740 290 703 q 479 778 396 778 q 664 701 597 778 q 731 499 731 625 l 731 0 l 557 0 l 557 478 q 519 588 557 549 q 417 628 482 628 q 312 587 350 628 q 274 475 274 546 l 274 0 l 100 0 l 100 764 m 465 894 l 307 894 l 451 1097 l 638 1097 l 465 894 z "},"Ň":{"ha":833,"x_min":96,"x_max":738,"o":"m 310 1000 l 550 335 q 565 283 558 313 q 576 228 571 254 q 586 164 582 196 l 603 164 q 600 185 603 164 q 594 238 597 206 q 587 308 590 269 q 583 383 583 347 l 583 1000 l 738 1000 l 738 0 l 524 0 l 288 667 q 271 724 278 694 q 260 779 264 753 q 250 838 254 808 l 233 838 q 242 767 238 804 q 247 697 244 735 q 250 618 250 658 l 250 0 l 96 0 l 96 1000 l 310 1000 m 171 1318 l 306 1318 l 376 1238 q 408 1201 400 1213 q 415 1192 413 1194 l 418 1192 q 425 1203 421 1196 q 438 1217 431 1208 q 457 1239 446 1226 l 528 1318 l 663 1318 l 506 1117 l 328 1117 l 171 1318 z "},"ň":{"ha":833,"x_min":100,"x_max":731,"o":"m 100 764 l 264 764 l 264 632 l 276 632 q 343 740 290 703 q 479 778 396 778 q 664 701 597 778 q 731 499 731 625 l 731 0 l 557 0 l 557 478 q 519 588 557 549 q 417 628 482 628 q 312 587 350 628 q 274 475 274 546 l 274 0 l 100 0 l 100 764 m 171 1096 l 306 1096 l 376 1015 q 408 979 400 990 q 415 969 413 972 l 418 969 q 425 981 421 974 q 438 995 431 986 q 457 1017 446 1004 l 528 1096 l 663 1096 l 506 894 l 328 894 l 171 1096 z "},"Ō":{"ha":833,"x_min":85,"x_max":749,"o":"m 417 -14 q 280 8 342 -14 q 175 69 218 29 q 108 167 132 110 q 85 293 85 224 l 85 708 q 108 834 85 778 q 175 931 132 890 q 280 992 218 971 q 417 1014 342 1014 q 553 992 492 1014 q 658 931 615 971 q 725 834 701 890 q 749 708 749 778 l 749 293 q 725 168 749 225 q 658 71 701 111 q 553 8 614 31 q 417 -14 492 -14 m 258 293 q 301 181 258 222 q 417 139 344 139 q 532 181 489 139 q 575 293 575 222 l 575 708 q 532 821 575 779 q 417 863 489 863 q 301 821 344 863 q 258 708 258 779 l 258 293 m 219 1304 l 614 1304 l 614 1156 l 219 1156 l 219 1304 z "},"ō":{"ha":833,"x_min":85,"x_max":749,"o":"m 417 -14 q 280 8 342 -14 q 175 70 218 31 q 108 165 132 110 q 85 289 85 221 l 85 476 q 108 600 85 544 q 175 695 132 656 q 280 756 218 735 q 417 778 342 778 q 553 756 492 778 q 658 695 615 735 q 725 600 701 656 q 749 476 749 544 l 749 289 q 725 165 749 221 q 658 69 701 108 q 554 8 615 29 q 417 -14 493 -14 m 258 289 q 301 179 258 219 q 417 139 343 139 q 533 179 490 139 q 575 289 575 219 l 575 476 q 533 586 575 546 q 417 626 490 626 q 301 586 343 626 q 258 476 258 546 l 258 289 m 219 1082 l 614 1082 l 614 933 l 219 933 l 219 1082 z "},"Ŏ":{"ha":833,"x_min":85,"x_max":749,"o":"m 417 -14 q 280 8 342 -14 q 175 69 218 29 q 108 167 132 110 q 85 293 85 224 l 85 708 q 108 834 85 778 q 175 931 132 890 q 280 992 218 971 q 417 1014 342 1014 q 553 992 492 1014 q 658 931 615 971 q 725 834 701 890 q 749 708 749 778 l 749 293 q 725 168 749 225 q 658 71 701 111 q 553 8 614 31 q 417 -14 492 -14 m 258 293 q 301 181 258 222 q 417 139 344 139 q 532 181 489 139 q 575 293 575 222 l 575 708 q 532 821 575 779 q 417 863 489 863 q 301 821 344 863 q 258 708 258 779 l 258 293 m 172 1311 l 310 1311 q 338 1248 310 1269 q 415 1226 367 1226 q 494 1248 464 1226 q 525 1311 525 1269 l 661 1311 q 643 1232 661 1268 q 592 1169 625 1196 q 515 1129 560 1143 q 417 1115 471 1115 q 318 1129 363 1115 q 241 1169 274 1143 q 190 1232 208 1196 q 172 1311 172 1268 z "},"ŏ":{"ha":833,"x_min":85,"x_max":749,"o":"m 417 -14 q 280 8 342 -14 q 175 70 218 31 q 108 165 132 110 q 85 289 85 221 l 85 476 q 108 600 85 544 q 175 695 132 656 q 280 756 218 735 q 417 778 342 778 q 553 756 492 778 q 658 695 615 735 q 725 600 701 656 q 749 476 749 544 l 749 289 q 725 165 749 221 q 658 69 701 108 q 554 8 615 29 q 417 -14 493 -14 m 258 289 q 301 179 258 219 q 417 139 343 139 q 533 179 490 139 q 575 289 575 219 l 575 476 q 533 586 575 546 q 417 626 490 626 q 301 586 343 626 q 258 476 258 546 l 258 289 m 172 1089 l 310 1089 q 338 1026 310 1047 q 415 1004 367 1004 q 494 1026 464 1004 q 525 1089 525 1047 l 661 1089 q 643 1010 661 1046 q 592 947 625 974 q 515 907 560 921 q 417 893 471 893 q 318 907 363 893 q 241 947 274 921 q 190 1010 208 974 q 172 1089 172 1046 z "},"Ő":{"ha":833,"x_min":85,"x_max":749,"o":"m 417 -14 q 280 8 342 -14 q 175 69 218 29 q 108 167 132 110 q 85 293 85 224 l 85 708 q 108 834 85 778 q 175 931 132 890 q 280 992 218 971 q 417 1014 342 1014 q 553 992 492 1014 q 658 931 615 971 q 725 834 701 890 q 749 708 749 778 l 749 293 q 725 168 749 225 q 658 71 701 111 q 553 8 614 31 q 417 -14 492 -14 m 258 293 q 301 181 258 222 q 417 139 344 139 q 532 181 489 139 q 575 293 575 222 l 575 708 q 532 821 575 779 q 417 863 489 863 q 301 821 344 863 q 258 708 258 779 l 258 293 m 472 1319 l 286 1319 l 142 1117 l 300 1117 l 472 1319 m 775 1319 l 589 1319 l 444 1117 l 603 1117 l 775 1319 z "},"ő":{"ha":833,"x_min":85,"x_max":749,"o":"m 417 -14 q 280 8 342 -14 q 175 70 218 31 q 108 165 132 110 q 85 289 85 221 l 85 476 q 108 600 85 544 q 175 695 132 656 q 280 756 218 735 q 417 778 342 778 q 553 756 492 778 q 658 695 615 735 q 725 600 701 656 q 749 476 749 544 l 749 289 q 725 165 749 221 q 658 69 701 108 q 554 8 615 29 q 417 -14 493 -14 m 258 289 q 301 179 258 219 q 417 139 343 139 q 533 179 490 139 q 575 289 575 219 l 575 476 q 533 586 575 546 q 417 626 490 626 q 301 586 343 626 q 258 476 258 546 l 258 289 m 472 1097 l 286 1097 l 142 894 l 300 894 l 472 1097 m 775 1097 l 589 1097 l 444 894 l 603 894 l 775 1097 z "},"Ŕ":{"ha":833,"x_min":104,"x_max":779,"o":"m 432 1000 q 569 978 507 1000 q 674 918 631 957 q 742 824 718 879 q 765 700 765 768 q 715 529 765 600 q 578 426 665 458 l 779 0 l 588 0 l 407 400 l 278 400 l 278 0 l 104 0 l 104 1000 l 432 1000 m 278 540 l 432 540 q 547 582 504 540 q 589 694 589 624 q 546 810 589 767 q 432 853 503 853 l 278 853 l 278 540 m 465 1117 l 307 1117 l 451 1319 l 638 1319 l 465 1117 z "},"ŕ":{"ha":833,"x_min":132,"x_max":782,"o":"m 296 764 l 296 632 l 308 632 q 378 740 322 701 q 519 778 433 778 q 713 701 643 778 q 782 490 782 625 l 782 435 l 600 435 l 600 475 q 560 590 600 549 q 449 631 519 631 q 344 589 382 631 q 306 475 306 547 l 306 0 l 132 0 l 132 764 l 296 764 m 465 894 l 307 894 l 451 1097 l 638 1097 l 465 894 z "},"Ř":{"ha":833,"x_min":104,"x_max":779,"o":"m 432 1000 q 569 978 507 1000 q 674 918 631 957 q 742 824 718 879 q 765 700 765 768 q 715 529 765 600 q 578 426 665 458 l 779 0 l 588 0 l 407 400 l 278 400 l 278 0 l 104 0 l 104 1000 l 432 1000 m 278 540 l 432 540 q 547 582 504 540 q 589 694 589 624 q 546 810 589 767 q 432 853 503 853 l 278 853 l 278 540 m 171 1318 l 306 1318 l 376 1238 q 408 1201 400 1213 q 415 1192 413 1194 l 418 1192 q 425 1203 421 1196 q 438 1217 431 1208 q 457 1239 446 1226 l 528 1318 l 663 1318 l 506 1117 l 328 1117 l 171 1318 z "},"ř":{"ha":833,"x_min":132,"x_max":782,"o":"m 296 764 l 296 632 l 308 632 q 378 740 322 701 q 519 778 433 778 q 713 701 643 778 q 782 490 782 625 l 782 435 l 600 435 l 600 475 q 560 590 600 549 q 449 631 519 631 q 344 589 382 631 q 306 475 306 547 l 306 0 l 132 0 l 132 764 l 296 764 m 171 1096 l 306 1096 l 376 1015 q 408 979 400 990 q 415 969 413 972 l 418 969 q 425 981 421 974 q 438 995 431 986 q 457 1017 446 1004 l 528 1096 l 663 1096 l 506 894 l 328 894 l 171 1096 z "},"Ś":{"ha":833,"x_min":76,"x_max":757,"o":"m 76 265 l 254 265 q 301 172 257 206 q 421 138 346 138 q 540 172 499 138 q 582 265 582 207 q 550 355 582 317 q 463 408 518 393 l 353 440 q 160 550 225 475 q 96 738 96 625 q 119 851 96 800 q 183 939 142 903 q 285 995 225 975 q 419 1015 344 1015 q 649 942 563 1015 q 742 742 735 868 l 565 742 q 522 831 563 799 q 415 863 482 863 q 309 830 349 863 q 269 742 269 797 q 299 663 269 696 q 389 611 328 629 l 506 578 q 692 466 628 543 q 757 274 757 389 q 733 156 757 208 q 664 65 708 103 q 557 7 619 28 q 417 -14 494 -14 q 280 6 342 -14 q 174 63 218 26 q 104 150 129 99 q 76 265 79 201 m 465 1117 l 307 1117 l 451 1319 l 638 1319 l 465 1117 z "},"ś":{"ha":833,"x_min":81,"x_max":750,"o":"m 81 196 l 258 196 q 301 140 267 160 q 388 119 336 119 l 443 119 q 544 145 508 119 q 579 215 579 171 q 461 308 579 292 l 353 321 q 160 393 222 338 q 97 553 97 449 q 173 719 97 661 q 390 778 249 778 l 447 778 q 651 724 574 778 q 742 575 728 671 l 564 575 q 526 626 557 607 q 447 644 494 644 l 390 644 q 268 558 268 644 q 371 472 268 485 l 483 457 q 685 383 619 440 q 750 221 750 325 q 671 47 750 108 q 443 -14 592 -14 l 388 -14 q 173 41 253 -14 q 81 196 93 96 m 465 894 l 307 894 l 451 1097 l 638 1097 l 465 894 z "},"Ŝ":{"ha":833,"x_min":76,"x_max":757,"o":"m 76 265 l 254 265 q 301 172 257 206 q 421 138 346 138 q 540 172 499 138 q 582 265 582 207 q 550 355 582 317 q 463 408 518 393 l 353 440 q 160 550 225 475 q 96 738 96 625 q 119 851 96 800 q 183 939 142 903 q 285 995 225 975 q 419 1015 344 1015 q 649 942 563 1015 q 742 742 735 868 l 565 742 q 522 831 563 799 q 415 863 482 863 q 309 830 349 863 q 269 742 269 797 q 299 663 269 696 q 389 611 328 629 l 506 578 q 692 466 628 543 q 757 274 757 389 q 733 156 757 208 q 664 65 708 103 q 557 7 619 28 q 417 -14 494 -14 q 280 6 342 -14 q 174 63 218 26 q 104 150 129 99 q 76 265 79 201 m 328 1318 l 506 1318 l 663 1117 l 528 1117 l 457 1196 q 438 1219 446 1210 q 425 1233 431 1228 q 418 1243 421 1239 l 415 1243 q 408 1233 413 1240 q 376 1197 400 1222 l 306 1117 l 171 1117 l 328 1318 z "},"ŝ":{"ha":833,"x_min":81,"x_max":750,"o":"m 81 196 l 258 196 q 301 140 267 160 q 388 119 336 119 l 443 119 q 544 145 508 119 q 579 215 579 171 q 461 308 579 292 l 353 321 q 160 393 222 338 q 97 553 97 449 q 173 719 97 661 q 390 778 249 778 l 447 778 q 651 724 574 778 q 742 575 728 671 l 564 575 q 526 626 557 607 q 447 644 494 644 l 390 644 q 268 558 268 644 q 371 472 268 485 l 483 457 q 685 383 619 440 q 750 221 750 325 q 671 47 750 108 q 443 -14 592 -14 l 388 -14 q 173 41 253 -14 q 81 196 93 96 m 328 1096 l 506 1096 l 663 894 l 528 894 l 457 974 q 438 997 446 988 q 425 1011 431 1006 q 418 1021 421 1017 l 415 1021 q 408 1011 413 1018 q 376 975 400 1000 l 306 894 l 171 894 l 328 1096 z "},"Ş":{"ha":833,"x_min":76,"x_max":757,"o":"m 76 265 l 254 265 q 301 172 257 206 q 421 138 346 138 q 540 172 499 138 q 582 265 582 207 q 550 355 582 317 q 463 408 518 393 l 353 440 q 160 550 225 475 q 96 738 96 625 q 119 851 96 800 q 183 939 142 903 q 285 995 225 975 q 419 1015 344 1015 q 649 942 563 1015 q 742 742 735 868 l 565 742 q 522 831 563 799 q 415 863 482 863 q 309 830 349 863 q 269 742 269 797 q 299 663 269 696 q 389 611 328 629 l 506 578 q 692 466 628 543 q 757 274 757 389 q 733 156 757 208 q 664 65 708 103 q 557 7 619 28 q 417 -14 494 -14 q 280 6 342 -14 q 174 63 218 26 q 104 150 129 99 q 76 265 79 201 m 272 -281 l 272 -192 l 378 -192 q 431 -181 410 -192 q 451 -153 451 -171 q 411 -109 451 -125 q 296 -93 371 -93 l 349 28 l 443 28 l 410 -49 q 503 -68 461 -53 q 566 -105 538 -81 q 594 -169 594 -129 q 544 -250 594 -219 q 411 -281 494 -281 l 272 -281 z "},"ş":{"ha":833,"x_min":81,"x_max":750,"o":"m 81 196 l 258 196 q 301 140 267 160 q 388 119 336 119 l 443 119 q 544 145 508 119 q 579 215 579 171 q 461 308 579 292 l 353 321 q 160 393 222 338 q 97 553 97 449 q 173 719 97 661 q 390 778 249 778 l 447 778 q 651 724 574 778 q 742 575 728 671 l 564 575 q 526 626 557 607 q 447 644 494 644 l 390 644 q 268 558 268 644 q 371 472 268 485 l 483 457 q 685 383 619 440 q 750 221 750 325 q 671 47 750 108 q 443 -14 592 -14 l 388 -14 q 173 41 253 -14 q 81 196 93 96 m 272 -281 l 272 -192 l 378 -192 q 431 -181 410 -192 q 451 -153 451 -171 q 411 -109 451 -125 q 296 -93 371 -93 l 349 28 l 443 28 l 410 -49 q 503 -68 461 -53 q 566 -105 538 -81 q 594 -169 594 -129 q 544 -250 594 -219 q 411 -281 494 -281 l 272 -281 z "},"Ť":{"ha":833,"x_min":54,"x_max":779,"o":"m 54 840 l 54 1000 l 779 1000 l 779 840 l 504 840 l 504 0 l 329 0 l 329 840 l 54 840 m 171 1318 l 306 1318 l 376 1238 q 408 1201 400 1213 q 415 1192 413 1194 l 418 1192 q 425 1203 421 1196 q 438 1217 431 1208 q 457 1239 446 1226 l 528 1318 l 663 1318 l 506 1117 l 328 1117 l 171 1318 z "},"Ũ":{"ha":833,"x_min":97,"x_max":736,"o":"m 417 -14 q 182 67 267 -14 q 97 289 97 147 l 97 1000 l 272 1000 l 272 290 q 309 178 272 218 q 417 138 346 138 q 524 178 486 138 q 563 290 563 218 l 563 1000 l 736 1000 l 736 289 q 651 67 736 147 q 417 -14 567 -14 m 146 1168 q 187 1287 146 1243 q 299 1331 228 1331 q 376 1315 344 1331 q 432 1279 407 1299 q 480 1244 457 1260 q 531 1228 503 1228 q 567 1242 554 1228 q 581 1282 581 1257 l 581 1324 l 688 1324 l 688 1283 q 647 1165 688 1208 q 535 1121 606 1121 q 458 1137 489 1121 q 401 1172 426 1153 q 353 1208 376 1192 q 303 1224 331 1224 q 266 1208 279 1224 q 253 1165 253 1193 l 253 1128 l 146 1128 l 146 1168 z "},"ũ":{"ha":833,"x_min":104,"x_max":729,"o":"m 278 764 l 278 288 q 417 138 278 138 q 556 288 556 138 l 556 764 l 729 764 l 729 286 q 647 65 729 143 q 417 -14 565 -14 q 186 65 268 -14 q 104 286 104 144 l 104 764 l 278 764 m 146 946 q 187 1065 146 1021 q 299 1108 228 1108 q 376 1092 344 1108 q 432 1057 407 1076 q 480 1022 457 1038 q 531 1006 503 1006 q 567 1020 554 1006 q 581 1060 581 1035 l 581 1101 l 688 1101 l 688 1061 q 647 942 688 986 q 535 899 606 899 q 458 915 489 899 q 401 950 426 931 q 353 985 376 969 q 303 1001 331 1001 q 266 986 279 1001 q 253 943 253 971 l 253 906 l 146 906 l 146 946 z "},"Ū":{"ha":833,"x_min":97,"x_max":736,"o":"m 417 -14 q 182 67 267 -14 q 97 289 97 147 l 97 1000 l 272 1000 l 272 290 q 309 178 272 218 q 417 138 346 138 q 524 178 486 138 q 563 290 563 218 l 563 1000 l 736 1000 l 736 289 q 651 67 736 147 q 417 -14 567 -14 m 219 1304 l 614 1304 l 614 1156 l 219 1156 l 219 1304 z "},"ū":{"ha":833,"x_min":104,"x_max":729,"o":"m 278 764 l 278 288 q 417 138 278 138 q 556 288 556 138 l 556 764 l 729 764 l 729 286 q 647 65 729 143 q 417 -14 565 -14 q 186 65 268 -14 q 104 286 104 144 l 104 764 l 278 764 m 219 1082 l 614 1082 l 614 933 l 219 933 l 219 1082 z "},"Ŭ":{"ha":833,"x_min":97,"x_max":736,"o":"m 417 -14 q 182 67 267 -14 q 97 289 97 147 l 97 1000 l 272 1000 l 272 290 q 309 178 272 218 q 417 138 346 138 q 524 178 486 138 q 563 290 563 218 l 563 1000 l 736 1000 l 736 289 q 651 67 736 147 q 417 -14 567 -14 m 172 1311 l 310 1311 q 338 1248 310 1269 q 415 1226 367 1226 q 494 1248 464 1226 q 525 1311 525 1269 l 661 1311 q 643 1232 661 1268 q 592 1169 625 1196 q 515 1129 560 1143 q 417 1115 471 1115 q 318 1129 363 1115 q 241 1169 274 1143 q 190 1232 208 1196 q 172 1311 172 1268 z "},"ŭ":{"ha":833,"x_min":104,"x_max":729,"o":"m 278 764 l 278 288 q 417 138 278 138 q 556 288 556 138 l 556 764 l 729 764 l 729 286 q 647 65 729 143 q 417 -14 565 -14 q 186 65 268 -14 q 104 286 104 144 l 104 764 l 278 764 m 172 1089 l 310 1089 q 338 1026 310 1047 q 415 1004 367 1004 q 494 1026 464 1004 q 525 1089 525 1047 l 661 1089 q 643 1010 661 1046 q 592 947 625 974 q 515 907 560 921 q 417 893 471 893 q 318 907 363 893 q 241 947 274 921 q 190 1010 208 974 q 172 1089 172 1046 z "},"Ů":{"ha":833,"x_min":97,"x_max":736,"o":"m 417 -14 q 182 67 267 -14 q 97 289 97 147 l 97 1000 l 272 1000 l 272 290 q 309 178 272 218 q 417 138 346 138 q 524 178 486 138 q 563 290 563 218 l 563 1000 l 736 1000 l 736 289 q 651 67 736 147 q 417 -14 567 -14 m 417 1347 q 544 1308 496 1347 q 592 1204 592 1269 q 544 1100 592 1139 q 417 1061 496 1061 q 290 1100 338 1061 q 242 1204 242 1139 q 290 1308 242 1269 q 417 1347 338 1347 m 333 1204 q 356 1153 333 1172 q 415 1135 378 1135 q 477 1153 454 1135 q 500 1204 500 1172 q 477 1256 500 1238 q 415 1275 454 1275 q 356 1256 378 1275 q 333 1204 333 1236 z "},"ů":{"ha":833,"x_min":104,"x_max":729,"o":"m 278 764 l 278 288 q 417 138 278 138 q 556 288 556 138 l 556 764 l 729 764 l 729 286 q 647 65 729 143 q 417 -14 565 -14 q 186 65 268 -14 q 104 286 104 144 l 104 764 l 278 764 m 417 1125 q 544 1086 496 1125 q 592 982 592 1047 q 544 878 592 917 q 417 839 496 839 q 290 878 338 839 q 242 982 242 917 q 290 1086 242 1047 q 417 1125 338 1125 m 333 982 q 356 931 333 950 q 415 913 378 913 q 477 931 454 913 q 500 982 500 950 q 477 1034 500 1015 q 415 1053 454 1053 q 356 1033 378 1053 q 333 982 333 1014 z "},"Ŵ":{"ha":833,"x_min":22,"x_max":811,"o":"m 22 1000 l 172 1000 l 229 308 q 232 250 232 283 q 233 186 232 217 q 233 113 233 150 l 251 113 q 254 186 253 150 q 258 250 256 217 q 263 308 260 283 l 346 1000 l 490 1000 l 569 308 q 575 250 572 283 q 579 186 578 217 q 583 113 582 150 l 603 113 q 604 186 603 150 q 605 250 604 217 q 608 308 606 283 l 663 1000 l 811 1000 l 710 0 l 508 0 l 435 690 q 431 758 432 722 q 429 824 429 793 q 429 893 429 858 l 408 893 q 408 824 408 858 q 406 758 407 793 q 400 690 404 722 l 319 0 l 121 0 l 22 1000 m 328 1318 l 506 1318 l 663 1117 l 528 1117 l 457 1196 q 438 1219 446 1210 q 425 1233 431 1228 q 418 1243 421 1239 l 415 1243 q 408 1233 413 1240 q 376 1197 400 1222 l 306 1117 l 171 1117 l 328 1318 z "},"ŵ":{"ha":833,"x_min":25,"x_max":808,"o":"m 25 764 l 164 764 l 222 289 q 227 233 225 265 q 232 168 229 200 q 236 93 235 132 l 253 93 q 261 168 257 132 q 269 233 264 200 q 276 289 274 267 l 354 764 l 481 764 l 557 289 q 565 233 561 265 q 572 168 569 200 q 579 93 576 132 l 596 93 q 601 168 599 132 q 607 233 604 200 q 613 289 610 265 l 671 764 l 808 764 l 704 0 l 508 0 l 435 493 q 431 542 432 514 q 428 597 429 571 q 426 660 426 628 l 410 660 q 408 597 410 628 q 405 542 407 571 q 400 493 403 514 l 322 0 l 128 0 l 25 764 m 328 1096 l 506 1096 l 663 894 l 528 894 l 457 974 q 438 997 446 988 q 425 1011 431 1006 q 418 1021 421 1017 l 415 1021 q 408 1011 413 1018 q 376 975 400 1000 l 306 894 l 171 894 l 328 1096 z "},"Ŷ":{"ha":833,"x_min":29,"x_max":804,"o":"m 213 1000 l 385 610 q 401 567 394 588 q 410 529 407 546 q 415 492 414 510 l 424 492 q 431 529 426 510 q 440 567 433 546 q 456 610 446 588 l 622 1000 l 804 1000 l 504 347 l 504 0 l 331 0 l 331 347 l 29 1000 l 213 1000 m 328 1318 l 506 1318 l 663 1117 l 528 1117 l 457 1196 q 438 1219 446 1210 q 425 1233 431 1228 q 418 1243 421 1239 l 415 1243 q 408 1233 413 1240 q 376 1197 400 1222 l 306 1117 l 171 1117 l 328 1318 z "},"ŷ":{"ha":833,"x_min":49,"x_max":785,"o":"m 49 764 l 239 764 l 389 357 q 405 305 399 332 q 414 254 411 278 q 421 201 418 228 l 432 201 q 438 254 433 226 q 446 305 440 278 q 460 357 451 332 l 601 764 l 785 764 l 421 -236 l 238 -236 l 343 43 l 49 764 m 328 1096 l 506 1096 l 663 894 l 528 894 l 457 974 q 438 997 446 988 q 425 1011 431 1006 q 418 1021 421 1017 l 415 1021 q 408 1011 413 1018 q 376 975 400 1000 l 306 894 l 171 894 l 328 1096 z "},"Ź":{"ha":833,"x_min":110,"x_max":724,"o":"m 708 1000 l 708 839 l 296 156 l 296 153 l 394 158 l 724 158 l 724 0 l 110 0 l 110 160 l 521 844 l 521 847 l 421 842 l 121 842 l 121 1000 l 708 1000 m 465 1117 l 307 1117 l 451 1319 l 638 1319 l 465 1117 z "},"ź":{"ha":833,"x_min":99,"x_max":735,"o":"m 99 164 l 517 614 l 517 622 q 482 618 500 619 q 447 614 467 615 q 406 613 428 613 l 110 613 l 110 764 l 719 764 l 719 599 l 299 149 l 299 139 q 333 146 315 143 q 370 150 350 149 q 410 151 390 151 l 735 151 l 735 0 l 99 0 l 99 164 m 465 894 l 307 894 l 451 1097 l 638 1097 l 465 894 z "},"Ż":{"ha":833,"x_min":110,"x_max":724,"o":"m 708 1000 l 708 839 l 296 156 l 296 153 l 394 158 l 724 158 l 724 0 l 110 0 l 110 160 l 521 844 l 521 847 l 421 842 l 121 842 l 121 1000 l 708 1000 m 399 1332 l 435 1332 q 506 1306 479 1332 q 533 1240 533 1281 q 506 1174 533 1199 q 433 1150 478 1150 l 399 1150 q 327 1174 354 1150 q 300 1240 300 1199 q 327 1306 300 1281 q 399 1332 354 1332 z "},"ż":{"ha":833,"x_min":99,"x_max":735,"o":"m 99 164 l 517 614 l 517 622 q 482 618 500 619 q 447 614 467 615 q 406 613 428 613 l 110 613 l 110 764 l 719 764 l 719 599 l 299 149 l 299 139 q 333 146 315 143 q 370 150 350 149 q 410 151 390 151 l 735 151 l 735 0 l 99 0 l 99 164 m 399 1110 l 435 1110 q 506 1084 479 1110 q 533 1018 533 1058 q 506 952 533 976 q 433 928 478 928 l 399 928 q 327 952 354 928 q 300 1018 300 976 q 327 1084 300 1058 q 399 1110 354 1110 z "},"Ẁ":{"ha":833,"x_min":22,"x_max":811,"o":"m 22 1000 l 172 1000 l 229 308 q 232 250 232 283 q 233 186 232 217 q 233 113 233 150 l 251 113 q 254 186 253 150 q 258 250 256 217 q 263 308 260 283 l 346 1000 l 490 1000 l 569 308 q 575 250 572 283 q 579 186 578 217 q 583 113 582 150 l 603 113 q 604 186 603 150 q 605 250 604 217 q 608 308 606 283 l 663 1000 l 811 1000 l 710 0 l 508 0 l 435 690 q 431 758 432 722 q 429 824 429 793 q 429 893 429 858 l 408 893 q 408 824 408 858 q 406 758 407 793 q 400 690 404 722 l 319 0 l 121 0 l 22 1000 m 224 1319 l 410 1319 l 554 1117 l 396 1117 l 224 1319 z "},"ẁ":{"ha":833,"x_min":25,"x_max":808,"o":"m 25 764 l 164 764 l 222 289 q 227 233 225 265 q 232 168 229 200 q 236 93 235 132 l 253 93 q 261 168 257 132 q 269 233 264 200 q 276 289 274 267 l 354 764 l 481 764 l 557 289 q 565 233 561 265 q 572 168 569 200 q 579 93 576 132 l 596 93 q 601 168 599 132 q 607 233 604 200 q 613 289 610 265 l 671 764 l 808 764 l 704 0 l 508 0 l 435 493 q 431 542 432 514 q 428 597 429 571 q 426 660 426 628 l 410 660 q 408 597 410 628 q 405 542 407 571 q 400 493 403 514 l 322 0 l 128 0 l 25 764 m 224 1097 l 410 1097 l 554 894 l 396 894 l 224 1097 z "},"Ẃ":{"ha":833,"x_min":22,"x_max":811,"o":"m 22 1000 l 172 1000 l 229 308 q 232 250 232 283 q 233 186 232 217 q 233 113 233 150 l 251 113 q 254 186 253 150 q 258 250 256 217 q 263 308 260 283 l 346 1000 l 490 1000 l 569 308 q 575 250 572 283 q 579 186 578 217 q 583 113 582 150 l 603 113 q 604 186 603 150 q 605 250 604 217 q 608 308 606 283 l 663 1000 l 811 1000 l 710 0 l 508 0 l 435 690 q 431 758 432 722 q 429 824 429 793 q 429 893 429 858 l 408 893 q 408 824 408 858 q 406 758 407 793 q 400 690 404 722 l 319 0 l 121 0 l 22 1000 m 465 1117 l 307 1117 l 451 1319 l 638 1319 l 465 1117 z "},"ẃ":{"ha":833,"x_min":25,"x_max":808,"o":"m 25 764 l 164 764 l 222 289 q 227 233 225 265 q 232 168 229 200 q 236 93 235 132 l 253 93 q 261 168 257 132 q 269 233 264 200 q 276 289 274 267 l 354 764 l 481 764 l 557 289 q 565 233 561 265 q 572 168 569 200 q 579 93 576 132 l 596 93 q 601 168 599 132 q 607 233 604 200 q 613 289 610 265 l 671 764 l 808 764 l 704 0 l 508 0 l 435 493 q 431 542 432 514 q 428 597 429 571 q 426 660 426 628 l 410 660 q 408 597 410 628 q 405 542 407 571 q 400 493 403 514 l 322 0 l 128 0 l 25 764 m 465 894 l 307 894 l 451 1097 l 638 1097 l 465 894 z "},"Ẅ":{"ha":833,"x_min":22,"x_max":811,"o":"m 22 1000 l 172 1000 l 229 308 q 232 250 232 283 q 233 186 232 217 q 233 113 233 150 l 251 113 q 254 186 253 150 q 258 250 256 217 q 263 308 260 283 l 346 1000 l 490 1000 l 569 308 q 575 250 572 283 q 579 186 578 217 q 583 113 582 150 l 603 113 q 604 186 603 150 q 605 250 604 217 q 608 308 606 283 l 663 1000 l 811 1000 l 710 0 l 508 0 l 435 690 q 431 758 432 722 q 429 824 429 793 q 429 893 429 858 l 408 893 q 408 824 408 858 q 406 758 407 793 q 400 690 404 722 l 319 0 l 121 0 l 22 1000 m 560 1313 q 629 1289 603 1313 q 656 1225 656 1265 q 629 1160 656 1185 q 560 1136 603 1136 q 490 1160 517 1136 q 464 1225 464 1185 q 490 1289 464 1265 q 560 1313 517 1313 m 178 1225 q 204 1289 178 1265 q 274 1313 231 1313 q 343 1289 317 1313 q 369 1225 369 1265 q 343 1160 369 1185 q 274 1136 317 1136 q 204 1160 231 1136 q 178 1225 178 1185 z "},"ẅ":{"ha":833,"x_min":25,"x_max":808,"o":"m 25 764 l 164 764 l 222 289 q 227 233 225 265 q 232 168 229 200 q 236 93 235 132 l 253 93 q 261 168 257 132 q 269 233 264 200 q 276 289 274 267 l 354 764 l 481 764 l 557 289 q 565 233 561 265 q 572 168 569 200 q 579 93 576 132 l 596 93 q 601 168 599 132 q 607 233 604 200 q 613 289 610 265 l 671 764 l 808 764 l 704 0 l 508 0 l 435 493 q 431 542 432 514 q 428 597 429 571 q 426 660 426 628 l 410 660 q 408 597 410 628 q 405 542 407 571 q 400 493 403 514 l 322 0 l 128 0 l 25 764 m 560 1090 q 629 1067 603 1090 q 656 1003 656 1043 q 629 938 656 963 q 560 914 603 914 q 490 938 517 914 q 464 1003 464 963 q 490 1067 464 1043 q 560 1090 517 1090 m 178 1003 q 204 1067 178 1043 q 274 1090 231 1090 q 343 1067 317 1090 q 369 1003 369 1043 q 343 938 369 963 q 274 914 317 914 q 204 938 231 914 q 178 1003 178 963 z "},"Ŀ":{"ha":833,"x_min":138,"x_max":747,"o":"m 311 1000 l 311 161 l 747 161 l 747 0 l 138 0 l 138 1000 l 311 1000 m 442 490 q 478 590 442 553 q 576 626 515 626 q 675 590 639 626 q 711 490 711 553 q 675 392 711 429 q 576 354 639 354 q 478 392 515 354 q 442 490 442 429 z "},"ŀ":{"ha":833,"x_min":15,"x_max":782,"o":"m 15 849 l 15 1006 l 432 1006 l 432 247 q 456 181 432 204 q 521 157 481 157 l 749 157 l 749 0 l 508 0 q 325 65 392 0 q 258 247 258 131 l 258 849 l 15 849 m 513 490 q 549 590 513 553 q 647 626 586 626 q 746 590 710 626 q 782 490 782 553 q 746 392 782 429 q 647 354 710 354 q 549 392 586 354 q 513 490 513 429 z "},"°":{"ha":833,"x_min":208,"x_max":625,"o":"m 417 1028 q 568 973 511 1028 q 625 826 625 918 q 568 680 625 735 q 417 625 511 625 q 265 680 322 625 q 208 826 208 735 q 265 973 208 918 q 417 1028 322 1028 m 304 826 q 335 740 304 774 q 417 707 365 707 q 499 740 468 707 q 529 826 529 774 q 499 913 529 881 q 417 946 468 946 q 335 913 365 946 q 304 826 304 881 z "},"ț":{"ha":833,"x_min":63,"x_max":738,"o":"m 63 764 l 274 764 l 274 1000 l 447 1000 l 447 764 l 738 764 l 738 607 l 447 607 l 447 236 q 469 178 447 200 q 529 157 490 157 l 724 157 l 724 0 l 517 0 q 339 64 404 0 q 274 236 274 128 l 274 607 l 63 607 l 63 764 m 567 -132 l 419 -337 l 267 -337 l 369 -132 l 567 -132 z "},"Ļ":{"ha":833,"x_min":138,"x_max":747,"o":"m 311 1000 l 311 161 l 747 161 l 747 0 l 138 0 l 138 1000 l 311 1000 m 567 -132 l 419 -337 l 267 -337 l 369 -132 l 567 -132 z "},"ș":{"ha":833,"x_min":81,"x_max":750,"o":"m 81 196 l 258 196 q 301 140 267 160 q 388 119 336 119 l 443 119 q 544 145 508 119 q 579 215 579 171 q 461 308 579 292 l 353 321 q 160 393 222 338 q 97 553 97 449 q 173 719 97 661 q 390 778 249 778 l 447 778 q 651 724 574 778 q 742 575 728 671 l 564 575 q 526 626 557 607 q 447 644 494 644 l 390 644 q 268 558 268 644 q 371 472 268 485 l 483 457 q 685 383 619 440 q 750 221 750 325 q 671 47 750 108 q 443 -14 592 -14 l 388 -14 q 173 41 253 -14 q 81 196 93 96 m 561 -132 l 414 -337 l 261 -337 l 364 -132 l 561 -132 z "},"ņ":{"ha":833,"x_min":100,"x_max":731,"o":"m 100 764 l 264 764 l 264 632 l 276 632 q 343 740 290 703 q 479 778 396 778 q 664 701 597 778 q 731 499 731 625 l 731 0 l 557 0 l 557 478 q 519 588 557 549 q 417 628 482 628 q 312 587 350 628 q 274 475 274 546 l 274 0 l 100 0 l 100 764 m 561 -132 l 414 -337 l 261 -337 l 364 -132 l 561 -132 z "},"Ț":{"ha":833,"x_min":54,"x_max":779,"o":"m 54 840 l 54 1000 l 779 1000 l 779 840 l 504 840 l 504 0 l 329 0 l 329 840 l 54 840 m 567 -132 l 419 -337 l 267 -337 l 369 -132 l 567 -132 z "},"Ņ":{"ha":833,"x_min":96,"x_max":738,"o":"m 310 1000 l 550 335 q 565 283 558 313 q 576 228 571 254 q 586 164 582 196 l 603 164 q 600 185 603 164 q 594 238 597 206 q 587 308 590 269 q 583 383 583 347 l 583 1000 l 738 1000 l 738 0 l 524 0 l 288 667 q 271 724 278 694 q 260 779 264 753 q 250 838 254 808 l 233 838 q 242 767 238 804 q 247 697 244 735 q 250 618 250 658 l 250 0 l 96 0 l 96 1000 l 310 1000 m 567 -132 l 419 -337 l 267 -337 l 369 -132 l 567 -132 z "},"Ķ":{"ha":833,"x_min":104,"x_max":803,"o":"m 279 1000 l 279 594 l 407 594 l 599 1000 l 792 1000 l 560 521 l 803 0 l 607 0 l 407 438 l 279 438 l 279 0 l 104 0 l 104 1000 l 279 1000 m 567 -132 l 419 -337 l 267 -337 l 369 -132 l 567 -132 z "},"ķ":{"ha":833,"x_min":111,"x_max":796,"o":"m 111 1000 l 285 1000 l 285 463 l 407 463 l 597 764 l 792 764 l 556 392 l 796 0 l 597 0 l 407 314 l 285 314 l 285 0 l 111 0 l 111 1000 m 567 -132 l 419 -337 l 267 -337 l 369 -132 l 567 -132 z "},"Ģ":{"ha":833,"x_min":85,"x_max":751,"o":"m 85 293 l 85 707 q 108 831 85 775 q 176 927 132 888 q 281 988 219 967 q 417 1010 342 1010 q 644 938 556 1010 q 751 735 732 865 l 576 735 q 525 822 568 790 q 417 854 482 854 q 301 815 343 854 q 258 707 258 775 l 258 293 q 301 181 258 222 q 417 139 343 139 q 533 181 490 139 q 575 293 575 222 l 575 389 l 399 389 l 399 538 l 749 538 l 749 293 q 725 167 749 224 q 658 69 701 110 q 553 8 615 29 q 417 -14 492 -14 q 281 8 342 -14 q 176 71 219 31 q 108 167 132 111 q 85 293 85 224 m 567 -132 l 419 -337 l 267 -337 l 369 -132 l 567 -132 z "},"ĺ":{"ha":833,"x_min":43,"x_max":776,"o":"m 43 849 l 43 1006 l 460 1006 l 460 247 q 484 181 460 204 q 549 157 508 157 l 776 157 l 776 0 l 536 0 q 353 65 419 0 q 286 247 286 131 l 286 849 l 43 849 m 465 1117 l 307 1117 l 451 1319 l 638 1319 l 465 1117 z "},"ļ":{"ha":833,"x_min":43,"x_max":776,"o":"m 43 849 l 43 1006 l 460 1006 l 460 247 q 484 181 460 204 q 549 157 508 157 l 776 157 l 776 0 l 536 0 q 353 65 419 0 q 286 247 286 131 l 286 849 l 43 849 m 567 -132 l 419 -337 l 267 -337 l 369 -132 l 567 -132 z "},"ŗ":{"ha":833,"x_min":132,"x_max":782,"o":"m 296 764 l 296 632 l 308 632 q 378 740 322 701 q 519 778 433 778 q 713 701 643 778 q 782 490 782 625 l 782 435 l 600 435 l 600 475 q 560 590 600 549 q 449 631 519 631 q 344 589 382 631 q 306 475 306 547 l 306 0 l 132 0 l 132 764 l 296 764 m 567 -132 l 419 -337 l 267 -337 l 369 -132 l 567 -132 z "},"Ŗ":{"ha":833,"x_min":104,"x_max":779,"o":"m 432 1000 q 569 978 507 1000 q 674 918 631 957 q 742 824 718 879 q 765 700 765 768 q 715 529 765 600 q 578 426 665 458 l 779 0 l 588 0 l 407 400 l 278 400 l 278 0 l 104 0 l 104 1000 l 432 1000 m 278 540 l 432 540 q 547 582 504 540 q 589 694 589 624 q 546 810 589 767 q 432 853 503 853 l 278 853 l 278 540 m 567 -132 l 419 -337 l 267 -337 l 369 -132 l 567 -132 z "},"Ľ":{"ha":833,"x_min":138,"x_max":824,"o":"m 311 1000 l 311 161 l 747 161 l 747 0 l 138 0 l 138 1000 l 311 1000 m 650 853 l 492 853 l 636 1056 l 822 1056 l 650 853 z "},"ľ":{"ha":833,"x_min":43,"x_max":910,"o":"m 43 849 l 43 1006 l 460 1006 l 460 247 q 484 181 460 204 q 549 157 508 157 l 776 157 l 776 0 l 536 0 q 353 65 419 0 q 286 247 286 131 l 286 849 l 43 849 m 738 853 l 579 853 l 724 1056 l 910 1056 l 738 853 z "},"Ŧ":{"ha":833,"x_min":54,"x_max":779,"o":"m 54 840 l 54 1000 l 779 1000 l 779 840 l 504 840 l 504 0 l 329 0 l 329 840 l 54 840 m 219 560 l 614 560 l 614 411 l 219 411 l 219 560 z "},"ŧ":{"ha":833,"x_min":63,"x_max":738,"o":"m 63 764 l 274 764 l 274 1000 l 447 1000 l 447 764 l 738 764 l 738 607 l 447 607 l 447 236 q 469 178 447 200 q 529 157 490 157 l 724 157 l 724 0 l 517 0 q 339 64 404 0 q 274 236 274 128 l 274 607 l 63 607 l 63 764 m 169 463 l 564 463 l 564 314 l 169 314 l 169 463 z "},"ħ":{"ha":833,"x_min":11,"x_max":731,"o":"m 11 829 l 11 942 l 100 942 l 100 1014 l 274 1014 l 274 942 l 414 942 l 414 829 l 274 829 l 274 764 q 272 720 274 743 q 269 678 271 697 q 265 645 267 658 q 264 632 264 632 l 278 632 q 343 740 290 701 q 479 778 396 778 q 663 703 594 778 q 731 500 731 628 l 731 0 l 557 0 l 557 479 q 519 588 557 549 q 417 628 482 628 q 312 587 350 628 q 274 475 274 546 l 274 0 l 100 0 l 100 829 l 11 829 z "},"Ĺ":{"ha":833,"x_min":138,"x_max":747,"o":"m 311 1000 l 311 161 l 747 161 l 747 0 l 138 0 l 138 1000 l 311 1000 m 310 1111 l 151 1111 l 296 1314 l 482 1314 l 310 1111 z "},"©":{"ha":833,"x_min":63,"x_max":771,"o":"m 63 694 q 88 831 63 769 q 160 937 114 893 q 272 1004 207 981 q 417 1028 338 1028 q 561 1004 496 1028 q 673 937 626 981 q 745 831 719 893 q 771 694 771 769 l 771 486 q 745 350 771 411 q 673 245 719 289 q 561 177 626 201 q 417 153 496 153 q 272 177 338 153 q 160 245 207 201 q 88 350 114 289 q 63 486 63 411 l 63 694 m 417 958 q 303 940 354 958 q 216 886 253 921 q 159 803 179 851 q 139 694 139 754 l 139 486 q 159 378 139 426 q 216 294 179 329 q 303 241 253 260 q 417 222 354 222 q 531 241 479 222 q 618 294 582 260 q 674 378 654 329 q 694 486 694 426 l 694 694 q 674 803 694 754 q 618 886 654 851 q 531 940 582 921 q 417 958 479 958 m 242 672 q 292 794 242 749 q 424 840 342 840 q 541 801 493 840 q 604 692 589 761 l 497 692 q 471 733 490 718 q 424 747 451 747 q 369 727 390 747 q 349 672 349 707 l 349 508 q 369 453 349 474 q 424 433 390 433 q 470 450 450 433 q 497 489 490 467 l 604 489 q 538 380 586 419 q 424 340 490 340 q 292 386 342 340 q 242 508 242 432 l 242 672 z "},"®":{"ha":833,"x_min":63,"x_max":771,"o":"m 417 1028 q 561 1004 496 1028 q 673 937 626 981 q 745 831 719 893 q 771 694 771 769 l 771 486 q 745 350 771 411 q 673 245 719 289 q 561 177 626 201 q 417 153 496 153 q 272 177 338 153 q 160 245 207 201 q 88 350 114 289 q 63 486 63 411 l 63 694 q 88 831 63 769 q 160 937 114 893 q 272 1004 207 981 q 417 1028 338 1028 m 417 222 q 531 241 479 222 q 618 294 582 260 q 674 378 654 329 q 694 486 694 426 l 694 694 q 674 803 694 754 q 618 886 654 851 q 531 940 582 921 q 417 958 479 958 q 303 940 354 958 q 216 886 253 921 q 159 803 179 851 q 139 694 139 754 l 139 486 q 159 378 139 426 q 216 294 179 329 q 303 241 253 260 q 417 222 354 222 m 256 347 l 256 833 l 422 833 q 547 792 500 833 q 593 683 593 751 q 572 606 593 639 q 513 556 551 574 l 601 347 l 496 347 l 419 538 l 356 538 l 356 347 l 256 347 m 356 619 l 422 619 q 473 638 454 619 q 492 688 492 656 q 473 738 492 719 q 422 756 454 756 l 356 756 l 356 619 z "},"¡":{"ha":833,"x_min":300,"x_max":533,"o":"m 322 -42 l 353 444 l 481 444 l 511 -42 l 511 -232 l 322 -232 l 322 -42 m 300 685 q 328 751 300 726 q 400 775 356 775 l 435 775 q 506 750 479 775 q 533 685 533 725 q 506 617 533 643 q 435 592 479 592 l 399 592 q 327 617 354 592 q 300 685 300 643 z "},"¿":{"ha":833,"x_min":128,"x_max":663,"o":"m 128 56 q 148 169 128 118 q 205 257 168 219 q 293 315 242 294 q 407 338 344 336 l 407 463 l 561 463 l 565 185 l 454 185 q 343 151 383 185 q 303 56 303 117 q 343 -40 303 -6 q 456 -74 383 -74 l 663 -74 l 663 -236 l 464 -236 q 326 -215 388 -236 q 220 -156 264 -194 q 152 -65 176 -118 q 128 56 128 -11 m 471 771 l 506 771 q 577 747 550 771 q 604 681 604 722 q 577 613 604 639 q 506 588 550 588 l 471 588 q 399 613 426 588 q 372 681 372 639 q 399 747 372 722 q 471 771 426 771 z "},"ŉ":{"ha":833,"x_min":-37,"x_max":731,"o":"m 100 764 l 264 764 l 264 632 l 276 632 q 343 740 290 703 q 479 778 396 778 q 664 701 597 778 q 731 499 731 625 l 731 0 l 557 0 l 557 478 q 519 588 557 549 q 417 628 482 628 q 312 587 350 628 q 274 475 274 546 l 274 0 l 100 0 l 100 764 m 264 1018 l 117 813 l -36 813 l 67 1018 l 264 1018 z "},"Ș":{"ha":833,"x_min":76,"x_max":757,"o":"m 76 265 l 254 265 q 301 172 257 206 q 421 138 346 138 q 540 172 499 138 q 582 265 582 207 q 550 355 582 317 q 463 408 518 393 l 353 440 q 160 550 225 475 q 96 738 96 625 q 119 851 96 800 q 183 939 142 903 q 285 995 225 975 q 419 1015 344 1015 q 649 942 563 1015 q 742 742 735 868 l 565 742 q 522 831 563 799 q 415 863 482 863 q 309 830 349 863 q 269 742 269 797 q 299 663 269 696 q 389 611 328 629 l 506 578 q 692 466 628 543 q 757 274 757 389 q 733 156 757 208 q 664 65 708 103 q 557 7 619 28 q 417 -14 494 -14 q 280 6 342 -14 q 174 63 218 26 q 104 150 129 99 q 76 265 79 201 m 567 -132 l 419 -337 l 267 -337 l 369 -132 l 567 -132 z "},"Þ":{"ha":833,"x_min":108,"x_max":781,"o":"m 282 986 l 282 811 l 468 811 q 598 791 540 811 q 697 733 656 771 q 759 642 738 696 q 781 521 781 588 q 759 400 781 454 q 697 308 738 346 q 598 251 656 271 q 468 231 540 231 l 282 231 l 282 0 l 108 0 l 108 986 l 282 986 m 282 379 l 449 379 q 564 416 524 379 q 604 521 604 453 q 564 626 604 589 q 449 664 524 664 l 282 664 l 282 379 z "},"ȷ":{"ha":833,"x_min":122,"x_max":636,"o":"m 122 -71 l 315 -71 q 422 -32 382 -71 q 463 69 463 7 l 463 603 l 156 603 l 156 764 l 636 764 l 636 69 q 613 -53 636 3 q 548 -148 590 -108 q 447 -210 506 -187 q 315 -232 388 -232 l 122 -232 l 122 -71 z "},"Ţ":{"ha":833,"x_min":54,"x_max":779,"o":"m 54 840 l 54 1000 l 779 1000 l 779 840 l 504 840 l 504 0 l 329 0 l 329 840 l 54 840 m 308 -281 l 308 -192 l 414 -192 q 467 -181 446 -192 q 488 -153 488 -171 q 447 -109 488 -125 q 332 -93 407 -93 l 385 28 l 479 28 l 446 -49 q 539 -68 497 -53 q 602 -105 574 -81 q 631 -169 631 -129 q 581 -250 631 -219 q 447 -281 531 -281 l 308 -281 z "},"ţ":{"ha":833,"x_min":63,"x_max":738,"o":"m 63 764 l 274 764 l 274 1000 l 447 1000 l 447 764 l 738 764 l 738 607 l 447 607 l 447 236 q 469 178 447 200 q 529 157 490 157 l 724 157 l 724 0 l 517 0 q 339 64 404 0 q 274 236 274 128 l 274 607 l 63 607 l 63 764 m 350 -281 l 350 -192 l 456 -192 q 508 -181 488 -192 q 529 -153 529 -171 q 489 -109 529 -125 q 374 -93 449 -93 l 426 28 l 521 28 l 488 -49 q 581 -68 539 -53 q 644 -105 615 -81 q 672 -169 672 -129 q 622 -250 672 -219 q 489 -281 572 -281 l 350 -281 z "},"đ":{"ha":833,"x_min":85,"x_max":814,"o":"m 85 289 l 85 479 q 103 603 85 549 q 157 697 122 658 q 240 757 192 736 q 347 778 288 778 q 485 740 431 778 q 553 632 539 701 l 565 632 q 563 679 564 656 q 559 723 560 700 q 558 764 558 746 l 558 817 l 421 817 l 421 933 l 558 933 l 558 1014 l 732 1014 l 732 933 l 814 933 l 814 817 l 732 817 l 732 0 l 565 0 l 565 133 l 553 133 q 485 25 539 64 q 347 -14 431 -14 q 240 7 288 -14 q 157 67 192 28 q 103 163 122 107 q 85 289 85 219 m 410 138 q 518 179 478 138 q 558 289 558 221 l 558 475 q 517 587 558 546 q 410 628 476 628 q 299 587 339 628 q 258 475 258 546 l 258 293 q 299 180 258 222 q 410 138 339 138 z "},"ģ":{"ha":833,"x_min":81,"x_max":732,"o":"m 81 482 q 99 603 81 549 q 153 697 118 658 q 236 757 188 736 q 344 778 285 778 q 486 737 431 778 q 556 625 542 696 l 565 625 l 565 764 l 732 764 l 732 44 q 710 -72 732 -19 q 646 -160 688 -124 q 545 -216 604 -196 q 414 -236 486 -236 l 210 -236 l 210 -92 l 414 -92 q 519 -55 481 -92 q 558 44 558 -18 l 558 63 l 564 207 l 556 207 q 485 95 542 136 q 344 54 429 54 q 236 76 285 54 q 153 135 188 97 q 99 228 118 174 q 81 350 81 283 l 81 482 m 256 354 q 296 245 256 285 q 407 206 336 206 q 517 245 476 206 q 558 354 558 285 l 558 478 q 517 588 558 547 q 407 628 476 628 q 296 588 336 628 q 256 478 256 547 l 256 354 m 267 951 l 414 1157 l 567 1157 l 464 951 l 267 951 z "},"Ħ":{"ha":833,"x_min":46,"x_max":786,"o":"m 786 850 l 786 722 l 728 722 l 728 0 l 554 0 l 554 440 l 278 440 l 278 0 l 104 0 l 104 722 l 46 722 l 46 850 l 104 850 l 104 1000 l 278 1000 l 278 850 l 554 850 l 554 1000 l 728 1000 l 728 850 l 786 850 m 278 722 l 278 600 l 554 600 l 554 722 l 278 722 z "},"Ĵ":{"ha":833,"x_min":42,"x_max":711,"o":"m 217 272 q 266 174 224 211 q 375 138 308 138 q 494 181 450 138 q 538 296 538 224 l 538 842 l 181 842 l 181 1001 l 711 1001 l 711 296 q 688 166 711 224 q 620 68 664 108 q 515 6 576 28 q 375 -15 453 -15 q 245 5 304 -15 q 143 63 186 25 q 74 153 100 100 q 42 272 47 206 l 217 272 m 375 1318 l 553 1318 l 710 1117 l 575 1117 l 504 1196 q 485 1219 493 1210 q 472 1233 478 1228 q 465 1243 468 1239 l 463 1243 q 456 1233 460 1240 q 424 1197 447 1222 l 353 1117 l 218 1117 l 375 1318 z "},"ĵ":{"ha":833,"x_min":122,"x_max":685,"o":"m 350 1096 l 528 1096 l 685 894 l 550 894 l 479 974 q 460 997 468 988 q 447 1011 453 1006 q 440 1021 443 1017 l 438 1021 q 431 1011 435 1018 q 399 975 422 1000 l 328 894 l 193 894 l 350 1096 m 122 -71 l 315 -71 q 422 -32 382 -71 q 463 69 463 7 l 463 603 l 156 603 l 156 764 l 636 764 l 636 69 q 613 -53 636 3 q 548 -148 590 -108 q 447 -210 506 -187 q 315 -232 388 -232 l 122 -232 l 122 -71 z "},"ť":{"ha":833,"x_min":63,"x_max":814,"o":"m 63 607 l 63 764 l 274 764 l 274 1000 l 447 1000 l 447 764 l 738 764 l 738 607 l 447 607 l 447 236 q 469 178 447 200 q 529 157 490 157 l 724 157 l 724 0 l 517 0 q 339 64 404 0 q 274 236 274 128 l 274 607 l 63 607 m 681 1050 l 814 1050 l 721 847 l 615 847 l 681 1050 z "},"…":{"ha":833,"x_min":71,"x_max":763,"o":"m 599 160 q 621 222 599 199 q 679 244 643 244 q 740 222 717 244 q 763 160 763 199 l 763 71 q 740 9 763 32 q 679 -14 717 -14 q 621 9 643 -14 q 599 71 599 32 l 599 160 m 415 244 q 476 222 453 244 q 499 160 499 199 l 499 71 q 476 9 499 32 q 415 -14 453 -14 q 357 9 379 -14 q 335 71 335 32 l 335 160 q 357 222 335 199 q 415 244 379 244 m 71 71 l 71 160 q 93 222 71 199 q 151 244 115 244 q 212 222 189 244 q 235 160 235 199 l 235 71 q 212 9 235 32 q 151 -14 189 -14 q 93 9 115 -14 q 71 71 71 32 z "},"¶":{"ha":833,"x_min":78,"x_max":722,"o":"m 78 764 q 97 860 78 817 q 150 935 115 904 q 233 983 185 967 q 342 1000 282 1000 l 722 1000 l 722 0 l 586 0 l 586 878 l 478 878 l 478 0 l 342 0 l 342 417 q 233 433 282 417 q 150 481 185 450 q 97 556 115 513 q 78 653 78 600 l 78 764 z "},"µ":{"ha":833,"x_min":104,"x_max":729,"o":"m 279 764 l 279 286 q 313 176 279 214 q 417 138 346 138 q 522 176 488 138 q 556 286 556 214 l 556 764 l 729 764 l 729 286 q 651 65 729 144 q 435 -14 574 -14 q 327 5 368 -14 q 263 46 286 24 q 224 106 236 72 l 214 106 q 219 93 215 106 q 229 62 224 81 q 240 22 235 43 q 246 -18 244 0 l 269 -236 l 104 -236 l 104 764 l 279 764 z "},"Œ":{"ha":833,"x_min":47,"x_max":803,"o":"m 254 -10 q 102 63 157 -10 q 47 263 47 135 l 47 743 q 102 942 47 869 q 254 1014 157 1014 q 336 994 306 1014 q 382 951 367 975 q 407 889 400 924 l 414 889 l 414 1000 l 803 1000 l 803 851 l 569 851 l 569 589 l 768 589 l 768 439 l 569 439 l 569 150 l 803 150 l 803 0 l 414 0 l 414 117 l 407 117 q 382 54 400 82 q 336 10 367 31 q 254 -10 306 -10 m 213 263 q 239 172 213 204 q 311 139 265 139 q 383 172 357 139 q 410 263 410 204 l 410 743 q 383 834 410 801 q 311 867 357 867 q 239 834 265 867 q 213 743 213 801 l 213 263 z "},"œ":{"ha":833,"x_min":49,"x_max":785,"o":"m 49 564 q 103 720 49 663 q 250 778 157 778 q 338 760 306 778 q 386 722 369 743 q 413 667 406 697 l 421 667 q 447 722 428 697 q 497 760 464 743 q 583 778 529 778 q 731 720 676 778 q 785 564 785 663 l 785 347 l 488 347 l 488 200 q 508 134 488 158 q 565 110 529 110 q 613 127 593 110 q 639 174 633 144 l 781 174 q 714 36 767 86 q 583 -14 661 -14 q 497 3 529 -14 q 447 42 464 21 q 421 97 428 67 l 413 97 q 386 42 406 67 q 338 3 369 21 q 250 -14 306 -14 q 103 44 158 -14 q 49 200 49 101 l 49 564 m 269 654 q 213 630 233 654 q 192 564 192 606 l 192 200 q 213 134 192 158 q 269 110 233 110 q 326 134 306 110 q 346 200 346 158 l 346 564 q 326 630 346 606 q 269 654 306 654 m 643 454 l 643 564 q 622 630 643 606 q 565 654 601 654 q 508 630 529 654 q 488 564 488 606 l 488 454 l 643 454 z "},"Æ":{"ha":833,"x_min":18,"x_max":800,"o":"m 213 1000 l 800 1000 l 800 851 l 564 851 l 564 589 l 765 589 l 765 439 l 564 439 l 564 150 l 800 150 l 800 0 l 406 0 l 406 251 l 228 251 l 183 0 l 18 0 l 213 1000 m 250 379 l 406 379 l 406 851 l 332 851 l 250 379 z "},"æ":{"ha":833,"x_min":49,"x_max":785,"o":"m 271 456 l 349 456 l 349 563 q 274 654 349 654 q 199 569 201 654 l 56 569 q 113 722 60 665 q 251 778 165 778 q 339 760 307 778 q 388 722 371 743 q 414 667 407 697 l 422 667 q 449 722 429 697 q 499 760 467 743 q 583 778 531 778 q 732 721 679 778 q 785 564 785 664 l 785 350 l 488 350 l 488 200 q 509 135 488 160 q 565 110 531 110 q 619 131 597 110 q 643 186 640 151 l 785 186 q 767 106 783 143 q 725 43 751 69 q 663 1 699 17 q 583 -14 626 -14 q 497 3 529 -14 q 449 42 465 21 q 422 97 429 67 l 414 97 q 385 42 407 67 q 332 3 367 21 q 238 -14 297 -14 q 99 40 150 -14 q 49 189 49 94 l 49 264 q 108 404 49 353 q 271 456 168 456 m 194 264 l 194 189 q 215 131 194 151 q 271 110 235 110 q 328 134 307 110 q 349 200 349 158 l 349 350 l 272 350 q 215 327 236 350 q 194 264 194 304 m 488 564 l 488 456 l 643 456 l 643 564 q 622 629 643 604 q 565 654 601 654 q 508 629 529 654 q 488 564 488 604 z "},"ß":{"ha":833,"x_min":64,"x_max":807,"o":"m 64 0 l 64 765 q 85 867 64 821 q 145 945 107 913 q 236 996 183 978 q 351 1014 289 1014 l 436 1014 q 558 996 503 1014 q 653 945 614 978 q 713 867 692 913 q 735 765 735 821 l 735 636 l 589 636 q 486 554 486 636 q 504 496 486 517 q 558 467 522 475 l 606 456 q 756 371 704 432 q 807 215 807 310 q 790 120 807 163 q 740 48 772 78 q 664 2 708 18 q 565 -14 619 -14 q 395 41 463 -14 q 317 189 328 96 l 465 189 q 499 134 472 154 q 565 114 525 114 q 633 140 610 114 q 657 210 657 165 q 578 319 657 301 l 535 329 q 384 406 433 353 q 335 549 335 458 q 401 705 335 646 q 576 764 467 764 q 538 848 576 817 q 436 879 500 879 l 351 879 q 260 848 293 879 q 226 764 226 817 l 226 0 l 64 0 z "},"ð":{"ha":833,"x_min":74,"x_max":761,"o":"m 74 315 q 94 441 74 385 q 153 538 115 497 q 243 600 190 578 q 360 622 296 622 q 440 607 407 622 q 496 574 474 592 q 539 524 521 551 l 553 524 q 533 551 547 532 q 501 597 522 568 q 447 674 481 626 l 371 781 l 154 693 l 154 825 l 297 882 l 197 1022 l 396 1022 l 450 944 l 667 1031 l 667 899 l 522 840 l 607 721 q 724 510 688 607 q 761 325 761 414 q 737 189 761 250 q 667 85 713 128 q 558 18 622 42 q 417 -6 494 -6 q 276 17 339 -6 q 167 83 213 40 q 98 184 122 125 q 74 315 74 243 m 247 315 q 293 189 247 236 q 417 142 339 142 q 541 189 494 142 q 588 315 588 236 q 541 440 588 393 q 417 488 494 488 q 293 441 339 488 q 247 315 247 394 z "},"¬":{"ha":833,"x_min":97,"x_max":736,"o":"m 97 606 l 736 606 l 736 261 l 565 261 l 565 444 l 97 444 l 97 606 z "},"™":{"ha":833,"x_min":21,"x_max":785,"o":"m 431 1014 l 542 1014 l 589 872 q 597 842 594 858 q 601 811 600 826 q 606 778 604 794 l 614 778 q 618 811 615 794 q 624 842 621 826 q 631 872 626 858 l 676 1014 l 785 1014 l 785 514 l 708 514 l 708 863 q 710 891 708 875 q 714 922 711 907 q 718 958 715 940 l 706 958 q 699 922 703 939 q 692 890 696 907 q 686 861 689 874 l 644 708 l 572 708 l 528 863 q 521 891 525 875 q 514 922 517 907 q 507 958 510 940 l 496 958 q 501 922 499 940 q 506 891 504 907 q 507 863 507 875 l 507 514 l 431 514 l 431 1014 m 382 1014 l 382 944 l 243 944 l 243 514 l 160 514 l 160 944 l 21 944 l 21 1014 l 382 1014 z "},"ƒ":{"ha":833,"x_min":0,"x_max":764,"o":"m 0 -236 l 0 -71 l 163 -71 q 259 -37 225 -71 q 293 56 293 -4 l 293 514 l 75 514 l 75 667 l 293 667 l 293 778 q 355 941 293 882 q 525 1000 417 1000 l 760 1000 l 760 849 l 540 849 q 486 831 506 849 q 467 778 467 813 l 467 667 l 764 667 l 764 514 l 467 514 l 467 43 q 444 -71 467 -19 q 380 -159 421 -122 q 281 -216 339 -196 q 154 -236 224 -236 l 0 -236 z "},"§":{"ha":833,"x_min":81,"x_max":753,"o":"m 81 -12 l 258 -12 q 306 -70 268 -49 q 394 -92 343 -92 l 436 -92 q 544 -63 507 -92 q 582 11 582 -35 q 458 118 582 92 l 340 143 q 160 227 226 167 q 94 371 94 288 q 145 502 94 451 q 283 561 196 553 l 283 571 q 190 606 231 581 q 126 669 156 628 q 97 779 97 710 q 176 951 97 888 q 397 1014 254 1014 l 439 1014 q 648 959 568 1014 q 742 807 728 904 l 565 807 q 524 856 558 836 q 439 876 490 876 l 397 876 q 300 851 333 876 q 267 782 267 826 q 294 718 267 744 q 378 681 322 692 l 504 653 q 686 566 621 629 q 751 419 751 503 q 701 288 751 339 q 560 232 650 236 l 560 222 q 657 188 614 214 q 723 124 693 165 q 753 10 753 82 q 670 -165 753 -100 q 436 -229 588 -229 l 394 -229 q 178 -172 261 -229 q 81 -12 96 -114 m 264 406 q 290 322 264 357 q 357 279 315 286 l 446 261 q 544 287 507 249 q 581 393 581 325 q 553 474 581 439 q 479 518 525 508 l 392 536 q 299 510 333 547 q 264 406 264 472 z "},"¤":{"ha":833,"x_min":58,"x_max":774,"o":"m 58 769 l 146 857 l 268 735 q 415 774 333 774 q 568 731 501 774 l 686 849 l 774 761 l 656 643 q 685 573 675 611 q 696 493 696 535 q 653 340 696 407 l 774 219 l 686 132 l 565 253 q 495 223 533 233 q 415 213 457 213 q 267 253 331 213 l 146 132 l 58 219 l 178 339 q 133 493 133 404 q 145 577 133 538 q 178 650 157 617 l 58 769 m 415 314 q 544 363 496 314 q 593 493 593 413 q 544 623 593 574 q 415 672 496 672 q 285 623 335 672 q 236 493 236 574 q 285 363 236 413 q 415 314 335 314 z "},"¢":{"ha":833,"x_min":94,"x_max":758,"o":"m 382 776 l 382 958 l 472 958 l 472 775 q 664 692 588 763 q 758 508 740 621 l 590 508 q 552 584 583 553 q 472 626 521 615 l 472 138 q 552 180 521 149 q 590 256 583 211 l 758 256 q 664 72 740 143 q 472 -11 588 1 l 472 -194 l 382 -194 l 382 -12 q 172 78 249 0 q 94 283 94 157 l 94 479 q 172 685 94 606 q 382 776 249 764 m 382 136 l 382 628 q 294 578 326 617 q 263 479 263 539 l 263 283 q 294 185 263 224 q 382 136 326 147 z "},"£":{"ha":833,"x_min":93,"x_max":743,"o":"m 189 525 q 155 569 172 547 q 124 614 138 590 q 102 666 111 638 q 93 729 93 694 q 180 928 93 856 q 417 1000 267 1000 q 647 928 561 1000 q 739 728 732 856 l 563 728 q 519 816 560 783 q 413 849 479 849 q 306 817 346 849 q 267 726 267 785 q 277 668 267 693 q 303 621 288 643 q 337 576 318 599 q 372 525 356 553 l 604 525 l 604 381 l 413 381 q 414 367 414 374 q 414 354 414 361 q 385 254 414 292 q 322 194 357 217 q 229 160 281 171 l 743 160 l 743 0 l 104 0 l 104 188 q 181 229 147 206 q 232 277 208 249 q 256 342 256 306 q 255 362 256 353 q 253 381 254 371 l 96 381 l 96 525 l 189 525 z "},"¥":{"ha":833,"x_min":29,"x_max":804,"o":"m 213 1000 l 385 629 q 401 588 396 608 q 411 551 407 567 q 417 517 415 533 l 424 517 q 429 551 425 533 q 440 588 433 567 q 456 629 446 608 l 622 1000 l 804 1000 l 565 496 l 750 496 l 750 367 l 504 367 l 504 279 l 750 279 l 750 150 l 504 150 l 504 0 l 331 0 l 331 150 l 83 150 l 83 279 l 331 279 l 331 367 l 83 367 l 83 496 l 269 496 l 29 1000 l 213 1000 z "},"ª":{"ha":833,"x_min":235,"x_max":592,"o":"m 235 746 q 276 833 235 800 q 389 865 318 865 l 497 865 l 497 903 q 477 941 497 926 q 424 956 457 956 q 373 944 393 956 q 350 913 353 932 l 256 913 q 310 997 265 965 q 424 1028 356 1028 q 546 994 500 1028 q 592 903 592 961 l 592 632 l 501 632 l 501 708 l 497 708 q 449 647 482 668 q 372 625 417 625 q 272 658 310 625 q 235 746 235 692 m 399 692 q 470 713 443 692 q 497 771 497 735 l 497 803 l 389 803 q 329 747 329 803 q 348 707 329 722 q 399 692 367 692 z "},"º":{"ha":833,"x_min":240,"x_max":593,"o":"m 240 867 q 289 981 240 938 q 417 1025 338 1025 q 544 981 496 1025 q 593 867 593 938 l 593 781 q 544 667 593 711 q 417 622 496 622 q 289 667 338 622 q 240 781 240 711 l 240 867 m 335 781 q 358 724 335 744 q 417 703 381 703 q 476 724 454 703 q 499 781 499 744 l 499 867 q 476 924 499 903 q 417 944 454 944 q 358 924 381 944 q 335 867 335 903 l 335 781 z "},"¹":{"ha":833,"x_min":242,"x_max":639,"o":"m 242 611 l 242 701 l 403 701 l 403 913 q 407 964 403 946 q 411 983 411 982 l 403 983 q 388 967 396 975 q 372 951 381 960 q 351 933 363 943 l 267 864 l 267 983 l 368 1063 l 510 1063 l 510 701 l 639 701 l 639 611 l 242 611 z "},"²":{"ha":833,"x_min":207,"x_max":578,"o":"m 392 1069 q 522 1028 472 1069 q 571 921 571 988 q 442 761 571 831 l 342 706 l 342 692 q 371 697 356 694 q 401 700 385 699 q 433 701 418 701 l 578 701 l 578 611 l 207 611 l 207 721 l 393 825 q 463 914 463 864 q 443 965 463 946 q 392 983 424 983 q 336 963 357 983 q 315 911 315 943 l 207 911 q 260 1026 208 982 q 392 1069 311 1069 z "},"³":{"ha":833,"x_min":207,"x_max":578,"o":"m 394 604 q 259 644 311 604 q 207 750 207 683 l 315 750 q 337 706 315 722 q 394 690 358 690 q 449 708 429 690 q 469 754 469 725 q 449 801 469 783 q 396 818 429 818 l 354 818 l 354 907 l 476 985 l 476 994 q 446 988 463 990 q 412 983 432 985 q 368 981 392 981 l 242 981 l 242 1063 l 557 1063 l 557 971 l 483 914 q 465 903 476 908 q 442 894 453 899 q 541 850 504 888 q 578 754 578 813 q 528 645 578 686 q 394 604 478 604 z "},"⁰":{"ha":833,"x_min":228,"x_max":606,"o":"m 417 1069 q 555 1019 504 1069 q 606 882 606 968 l 606 792 q 555 655 606 706 q 417 604 504 604 q 278 655 329 604 q 228 792 228 706 l 228 882 q 278 1019 228 968 q 417 1069 329 1069 m 328 792 q 351 723 328 749 q 417 697 375 697 q 483 724 461 697 q 506 792 506 751 l 506 882 q 482 951 506 925 q 417 976 458 976 q 351 951 375 976 q 328 882 328 925 l 328 792 z "},"⁴":{"ha":833,"x_min":235,"x_max":579,"o":"m 410 1063 l 531 1063 l 343 808 l 343 786 l 471 786 l 471 899 l 579 899 l 579 611 l 471 611 l 471 700 l 235 700 l 235 828 l 410 1063 z "},"₀":{"ha":833,"x_min":228,"x_max":606,"o":"m 417 396 q 555 345 504 396 q 606 208 606 294 l 606 118 q 555 -19 606 32 q 417 -69 504 -69 q 278 -19 329 -69 q 228 118 228 32 l 228 208 q 278 345 228 294 q 417 396 329 396 m 328 118 q 351 49 328 75 q 417 24 375 24 q 483 51 461 24 q 506 118 506 78 l 506 208 q 482 277 506 251 q 417 303 458 303 q 351 277 375 303 q 328 208 328 251 l 328 118 z "},"₁":{"ha":833,"x_min":242,"x_max":639,"o":"m 242 -62 l 242 28 l 403 28 l 403 239 q 407 290 403 272 q 411 310 411 308 l 403 310 q 388 293 396 301 q 372 278 381 286 q 351 260 363 269 l 267 190 l 267 310 l 368 389 l 510 389 l 510 28 l 639 28 l 639 -62 l 242 -62 z "},"₂":{"ha":833,"x_min":207,"x_max":578,"o":"m 392 396 q 522 355 472 396 q 571 247 571 314 q 442 88 571 157 l 342 32 l 342 18 q 371 24 356 21 q 401 26 385 25 q 433 28 418 28 l 578 28 l 578 -62 l 207 -62 l 207 47 l 393 151 q 463 240 463 190 q 443 291 463 272 q 392 310 424 310 q 336 290 357 310 q 315 238 315 269 l 207 238 q 260 352 208 308 q 392 396 311 396 z "},"₃":{"ha":833,"x_min":207,"x_max":578,"o":"m 394 -69 q 259 -30 311 -69 q 207 76 207 10 l 315 76 q 337 33 315 49 q 394 17 358 17 q 449 34 429 17 q 469 81 469 51 q 449 127 469 110 q 396 144 429 144 l 354 144 l 354 233 l 476 311 l 476 321 q 446 314 463 317 q 412 309 432 311 q 368 307 392 307 l 242 307 l 242 389 l 557 389 l 557 297 l 483 240 q 465 230 476 235 q 442 221 453 225 q 541 176 504 214 q 578 81 578 139 q 528 -28 578 13 q 394 -69 478 -69 z "},"₄":{"ha":833,"x_min":235,"x_max":579,"o":"m 410 389 l 531 389 l 343 135 l 343 113 l 471 113 l 471 225 l 579 225 l 579 -62 l 471 -62 l 471 26 l 235 26 l 235 154 l 410 389 z "},"⁄":{"ha":833,"x_min":110,"x_max":725,"o":"m 624 986 l 725 986 l 210 0 l 110 0 l 624 986 z "},"¼":{"ha":833,"x_min":47,"x_max":758,"o":"m 47 547 l 47 638 l 208 638 l 208 849 q 213 900 208 882 q 217 919 217 918 l 208 919 q 193 903 201 911 q 177 888 186 896 q 157 869 168 879 l 72 800 l 72 921 l 174 999 l 315 999 l 315 638 l 442 638 l 624 986 l 725 986 l 210 0 l 110 0 l 394 547 l 47 547 m 415 89 l 415 217 l 590 451 l 710 451 l 522 197 l 522 175 l 651 175 l 651 288 l 758 288 l 758 0 l 651 0 l 651 89 l 415 89 z "},"½":{"ha":833,"x_min":47,"x_max":804,"o":"m 208 639 l 208 850 q 213 901 208 883 q 217 921 217 919 l 208 921 q 193 904 201 913 q 177 889 186 897 q 157 871 168 881 l 72 801 l 72 922 l 174 1001 l 315 1001 l 315 639 l 443 639 l 624 986 l 725 986 l 210 0 l 110 0 l 396 550 l 47 550 l 47 639 l 208 639 m 433 0 l 433 110 l 619 214 q 689 303 689 253 q 669 353 689 335 q 618 372 650 372 q 563 352 583 372 q 542 300 542 332 l 433 300 q 485 415 435 371 q 618 458 536 458 q 748 417 699 458 q 797 310 797 376 q 668 150 797 219 l 568 94 l 568 81 q 597 86 582 83 q 628 89 611 88 q 660 90 644 90 l 804 90 l 804 0 l 433 0 z "},"¾":{"ha":833,"x_min":-3,"x_max":758,"o":"m 110 0 l 624 986 l 725 986 l 210 0 l 110 0 m -3 686 l 106 686 q 127 642 106 658 q 185 626 149 626 q 240 644 219 626 q 260 690 260 663 q 240 738 260 719 q 186 756 219 756 l 144 756 l 144 843 l 267 922 l 267 932 q 236 925 253 928 q 202 920 222 922 q 158 918 182 918 l 32 918 l 32 999 l 347 999 l 347 907 l 274 851 q 232 831 257 840 q 331 786 294 824 q 368 690 368 749 q 318 582 368 624 q 185 540 268 540 q 49 580 100 540 q -3 686 -3 619 m 415 217 l 590 451 l 710 451 l 522 197 l 522 175 l 651 175 l 651 288 l 758 288 l 758 0 l 651 0 l 651 89 l 415 89 l 415 217 z "},"‰":{"ha":833,"x_min":42,"x_max":818,"o":"m 256 258 q 300 372 256 332 q 413 411 344 411 q 476 397 453 411 q 514 367 500 383 q 536 322 529 347 q 560 367 543 347 q 598 397 574 383 q 661 411 622 411 q 774 372 729 411 q 818 258 818 332 l 818 146 q 774 33 818 72 q 661 -7 729 -7 q 598 7 622 -7 q 560 38 574 21 q 538 82 544 57 q 514 38 531 57 q 476 7 500 21 q 413 -7 453 -7 q 300 33 344 -7 q 256 146 256 72 l 256 258 m 42 763 l 42 842 q 88 962 42 917 q 217 1007 133 1007 q 347 962 301 1007 q 392 842 392 917 l 392 763 q 347 642 392 688 q 217 597 301 597 q 88 642 133 597 q 42 763 42 688 m 42 474 l 792 696 l 792 599 l 42 376 l 42 474 m 583 146 q 602 95 583 114 q 653 76 621 76 q 700 94 682 76 q 718 146 718 113 l 718 258 q 700 310 718 292 q 653 329 682 329 q 602 310 621 329 q 583 258 583 292 l 583 146 m 356 146 q 374 94 356 113 q 421 76 392 76 q 471 95 453 76 q 489 146 489 114 l 489 258 q 471 310 489 292 q 421 329 453 329 q 374 310 392 329 q 356 258 356 292 l 356 146 m 146 763 q 163 708 146 729 q 217 686 181 686 q 272 708 256 686 q 289 763 289 731 l 289 842 q 271 897 289 875 q 217 919 253 919 q 163 897 181 919 q 146 842 146 875 l 146 763 z "},"†":{"ha":833,"x_min":139,"x_max":694,"o":"m 331 1153 l 504 1153 l 504 -153 l 331 -153 l 331 1153 m 139 563 l 694 563 l 694 403 l 139 403 l 139 563 z "},"‡":{"ha":833,"x_min":111,"x_max":722,"o":"m 331 1153 l 504 1153 l 504 -153 l 331 -153 l 331 1153 m 722 733 l 722 572 l 111 572 l 111 733 l 722 733 m 111 392 l 722 392 l 722 232 l 111 232 l 111 392 z "},"ĸ":{"ha":833,"x_min":111,"x_max":796,"o":"m 285 764 l 285 463 l 407 463 l 599 764 l 792 764 l 558 393 l 796 0 l 597 0 l 407 314 l 285 314 l 285 0 l 111 0 l 111 764 l 285 764 z "},"ĭ":{"ha":833,"x_min":106,"x_max":774,"o":"m 106 158 l 389 158 l 389 607 l 139 607 l 139 764 l 556 764 l 556 158 l 774 158 l 774 0 l 106 0 l 106 158 m 172 1089 l 310 1089 q 338 1026 310 1047 q 415 1004 367 1004 q 494 1026 464 1004 q 525 1089 525 1047 l 661 1089 q 643 1010 661 1046 q 592 947 625 974 q 515 907 560 921 q 417 893 471 893 q 318 907 363 893 q 241 947 274 921 q 190 1010 208 974 q 172 1089 172 1046 z "},"Ĭ":{"ha":833,"x_min":115,"x_max":718,"o":"m 115 849 l 115 1000 l 718 1000 l 718 849 l 504 849 l 504 151 l 718 151 l 718 0 l 115 0 l 115 151 l 329 151 l 329 849 l 115 849 m 315 1306 q 341 1242 315 1264 q 415 1221 367 1221 q 491 1242 464 1221 q 518 1306 518 1264 l 656 1306 q 638 1226 656 1263 q 590 1164 621 1190 q 515 1124 558 1138 q 417 1110 471 1110 q 319 1124 363 1110 q 244 1164 275 1138 q 195 1226 213 1190 q 178 1306 178 1263 l 315 1306 z "},"ſ":{"ha":833,"x_min":206,"x_max":729,"o":"m 206 742 q 225 848 206 800 q 280 930 244 896 q 365 982 315 964 q 476 1000 415 1000 l 729 1000 l 729 849 l 485 849 q 408 819 436 849 q 379 742 379 790 l 379 0 l 206 0 l 206 742 z "},"ŋ":{"ha":833,"x_min":100,"x_max":731,"o":"m 100 0 l 100 764 l 265 764 l 265 624 l 281 624 q 344 738 293 697 q 478 778 394 778 q 663 702 596 778 q 731 499 731 626 l 731 43 q 708 -71 731 -19 q 643 -159 685 -122 q 544 -216 601 -196 q 417 -236 486 -236 l 340 -236 l 340 -71 l 425 -71 q 522 -37 488 -71 q 557 56 557 -4 l 557 482 q 519 588 557 549 q 415 628 482 628 q 312 589 350 628 q 274 483 274 550 l 274 0 l 100 0 z "},"Ŋ":{"ha":833,"x_min":96,"x_max":738,"o":"m 96 0 l 96 1000 l 310 1000 l 544 415 q 563 363 554 393 q 578 303 571 332 q 594 235 586 269 l 610 235 q 606 258 610 235 q 597 315 603 281 q 588 392 592 350 q 583 469 583 433 l 583 1000 l 738 1000 l 738 43 q 715 -71 738 -19 q 650 -159 692 -122 q 551 -216 608 -196 q 424 -236 493 -236 l 326 -236 l 326 -71 l 432 -71 q 531 -37 494 -71 q 568 56 568 -4 l 288 667 q 269 722 276 693 q 257 778 261 751 q 250 838 253 808 l 233 838 q 242 767 238 804 q 247 697 244 735 q 250 618 250 658 l 250 0 l 96 0 z "},"Н":{"ha":833,"x_min":104,"x_max":728,"o":"m 104 0 l 104 1000 l 278 1000 l 278 600 l 554 600 l 554 1000 l 728 1000 l 728 0 l 554 0 l 554 440 l 278 440 l 278 0 l 104 0 z "},"О":{"ha":833,"x_min":85,"x_max":749,"o":"m 417 -14 q 280 8 342 -14 q 175 69 218 29 q 108 167 132 110 q 85 293 85 224 l 85 708 q 108 834 85 778 q 175 931 132 890 q 280 992 218 971 q 417 1014 342 1014 q 553 992 492 1014 q 658 931 615 971 q 725 834 701 890 q 749 708 749 778 l 749 293 q 725 168 749 225 q 658 71 701 111 q 553 8 614 31 q 417 -14 492 -14 m 258 293 q 301 181 258 222 q 417 139 344 139 q 532 181 489 139 q 575 293 575 222 l 575 708 q 532 821 575 779 q 417 863 489 863 q 301 821 344 863 q 258 708 258 779 l 258 293 z "},"А":{"ha":833,"x_min":33,"x_max":800,"o":"m 303 1000 l 538 1000 l 800 0 l 621 0 l 561 251 l 271 251 l 211 0 l 33 0 l 303 1000 m 528 389 l 443 746 q 433 796 438 771 q 425 840 428 821 q 419 885 422 863 l 413 885 q 407 840 410 863 q 400 796 404 821 q 389 746 396 771 l 304 389 l 528 389 z "},"В":{"ha":833,"x_min":103,"x_max":761,"o":"m 103 1000 l 421 1000 q 657 931 571 1000 q 743 742 743 861 q 692 593 743 650 q 553 529 640 536 l 553 517 q 706 449 650 510 q 761 288 761 388 q 738 168 761 221 q 673 78 715 115 q 569 20 631 40 q 432 0 508 0 l 103 0 l 103 1000 m 272 444 l 272 144 l 421 144 q 542 184 499 144 q 585 294 585 224 q 542 405 585 365 q 421 444 499 444 l 272 444 m 418 588 q 526 624 486 588 q 567 722 567 660 q 527 820 567 785 q 419 856 488 856 l 272 856 l 272 588 l 418 588 z "},"Р":{"ha":833,"x_min":103,"x_max":781,"o":"m 449 1000 q 585 978 524 1000 q 690 917 647 957 q 757 822 733 878 q 781 696 781 765 q 757 572 781 628 q 690 476 733 515 q 585 415 646 436 q 449 393 524 393 l 276 393 l 276 0 l 103 0 l 103 1000 l 449 1000 m 276 540 l 449 540 q 563 583 521 540 q 604 696 604 625 q 563 810 604 767 q 449 853 521 853 l 276 853 l 276 540 z "},"С":{"ha":833,"x_min":93,"x_max":754,"o":"m 424 -14 q 288 8 349 -14 q 183 69 226 29 q 117 167 140 110 q 93 293 93 224 l 93 707 q 117 833 93 776 q 183 931 140 890 q 288 992 226 971 q 424 1014 349 1014 q 556 993 497 1014 q 658 934 615 972 q 726 841 701 896 q 754 719 751 786 l 581 719 q 535 822 578 785 q 424 858 493 858 q 309 818 351 858 q 267 707 267 778 l 267 293 q 308 182 267 222 q 424 142 349 142 q 535 180 493 142 q 581 282 578 218 l 754 282 q 659 66 747 146 q 424 -14 571 -14 z "},"Е":{"ha":833,"x_min":119,"x_max":735,"o":"m 119 0 l 119 1000 l 735 1000 l 735 847 l 293 847 l 293 590 l 686 590 l 686 438 l 293 438 l 293 153 l 735 153 l 735 0 l 119 0 z "},"К":{"ha":833,"x_min":104,"x_max":803,"o":"m 279 1000 l 279 594 l 407 594 l 599 1000 l 792 1000 l 560 521 l 803 0 l 607 0 l 407 438 l 279 438 l 279 0 l 104 0 l 104 1000 l 279 1000 z "},"М":{"ha":833,"x_min":76,"x_max":758,"o":"m 282 1000 l 386 682 q 399 637 393 661 q 408 590 404 613 q 415 540 413 565 l 426 540 q 435 590 429 565 q 442 637 438 613 q 454 682 447 661 l 550 1000 l 758 1000 l 758 0 l 603 0 l 603 649 q 606 727 603 686 q 613 801 610 768 q 622 879 617 842 l 604 879 q 588 807 596 843 q 572 740 581 775 q 553 678 563 706 l 483 440 l 353 440 l 279 678 q 260 743 269 708 q 243 808 250 778 q 226 879 235 844 l 211 879 q 221 801 217 842 q 228 727 225 768 q 231 649 231 686 l 231 0 l 76 0 l 76 1000 l 282 1000 z "},"Х":{"ha":833,"x_min":39,"x_max":794,"o":"m 319 514 l 57 1000 l 250 1000 l 378 753 q 395 717 389 733 q 407 690 401 701 q 415 665 411 676 l 422 665 q 431 689 426 676 q 442 716 436 700 q 458 750 449 732 l 589 1000 l 778 1000 l 514 517 l 794 0 l 600 0 l 457 276 q 428 342 436 315 q 418 367 422 356 l 411 367 q 403 342 407 356 q 391 314 397 331 q 374 278 385 297 l 228 0 l 39 0 l 319 514 z "},"а":{"ha":833,"x_min":71,"x_max":733,"o":"m 71 214 q 92 316 71 271 q 151 393 113 361 q 245 442 190 425 q 368 460 300 460 l 560 460 l 560 525 q 520 609 560 578 q 410 640 481 640 q 314 619 353 640 q 264 563 275 599 l 94 563 q 129 652 103 613 q 197 719 156 692 q 293 763 239 747 q 411 778 347 778 q 544 760 485 778 q 646 710 604 743 q 710 631 688 678 q 733 528 733 585 l 733 0 l 569 0 l 569 150 l 557 150 q 479 31 544 75 q 317 -14 414 -14 q 138 48 204 -14 q 71 214 71 110 m 244 235 q 280 152 244 182 q 379 122 315 122 q 508 160 457 122 q 560 257 560 199 l 560 346 l 369 346 q 278 317 311 346 q 244 235 244 288 z "},"е":{"ha":833,"x_min":85,"x_max":746,"o":"m 85 479 q 108 603 85 547 q 175 697 132 658 q 279 757 218 736 q 417 778 340 778 q 552 756 492 778 q 656 696 613 735 q 722 601 699 657 q 746 478 746 546 l 746 339 l 257 339 l 257 289 q 299 168 257 211 q 417 125 342 125 q 513 143 472 125 q 569 193 553 161 l 740 193 q 699 108 728 146 q 627 42 669 69 q 531 1 585 15 q 417 -14 478 -14 q 280 7 342 -14 q 175 67 218 28 q 108 163 132 107 q 85 286 85 218 l 85 479 m 257 456 l 576 456 l 576 478 q 534 597 576 554 q 417 639 492 639 q 299 597 342 639 q 257 479 257 554 l 257 456 z "},"о":{"ha":833,"x_min":85,"x_max":749,"o":"m 417 -14 q 280 8 342 -14 q 175 70 218 31 q 108 165 132 110 q 85 289 85 221 l 85 476 q 108 600 85 544 q 175 695 132 656 q 280 756 218 735 q 417 778 342 778 q 553 756 492 778 q 658 695 615 735 q 725 600 701 656 q 749 476 749 544 l 749 289 q 725 165 749 221 q 658 69 701 108 q 554 8 615 29 q 417 -14 493 -14 m 258 289 q 301 179 258 219 q 417 139 343 139 q 533 179 490 139 q 575 289 575 219 l 575 476 q 533 586 575 546 q 417 626 490 626 q 301 586 343 626 q 258 476 258 546 l 258 289 z "},"с":{"ha":833,"x_min":93,"x_max":758,"o":"m 424 -14 q 288 7 349 -14 q 183 67 226 28 q 117 160 140 106 q 93 283 93 215 l 93 479 q 117 602 93 547 q 183 696 140 657 q 288 756 226 735 q 424 778 349 778 q 547 759 490 778 q 647 705 604 740 q 719 620 690 669 q 757 508 747 571 l 583 508 q 531 594 574 561 q 424 626 488 626 q 308 588 350 626 q 267 479 267 549 l 267 283 q 308 176 267 215 q 424 138 349 138 q 530 170 486 138 q 583 256 574 203 l 757 256 q 719 144 747 193 q 647 59 690 94 q 547 5 603 24 q 424 -14 490 -14 z "},"у":{"ha":833,"x_min":49,"x_max":785,"o":"m 49 764 l 239 764 l 389 357 q 405 305 399 332 q 414 254 411 278 q 421 201 418 228 l 432 201 q 438 254 433 226 q 446 305 440 278 q 460 357 451 332 l 601 764 l 785 764 l 421 -236 l 238 -236 l 343 43 l 49 764 z "},"х":{"ha":833,"x_min":44,"x_max":789,"o":"m 318 394 l 63 764 l 260 764 l 389 571 q 407 535 401 553 q 413 519 411 526 l 422 519 q 426 535 424 526 q 434 551 429 542 q 446 571 439 560 l 575 764 l 772 764 l 517 394 l 789 0 l 590 0 l 447 215 q 428 251 433 239 q 421 268 424 260 l 413 268 q 406 251 410 260 q 398 235 403 244 q 386 217 393 226 l 242 0 l 44 0 l 318 394 z "},"р":{"ha":833,"x_min":101,"x_max":749,"o":"m 101 764 l 269 764 l 269 632 l 282 632 q 349 739 296 700 q 486 778 403 778 q 594 757 546 778 q 677 697 643 736 q 730 603 711 658 q 749 479 749 549 l 749 289 q 730 163 749 219 q 677 67 711 107 q 594 7 643 28 q 486 -14 546 -14 q 349 25 403 -14 q 282 133 296 64 l 269 133 q 271 116 269 129 q 273 83 272 103 q 275 42 274 64 q 276 0 276 21 l 276 -236 l 101 -236 l 101 764 m 276 475 l 276 289 q 316 179 276 221 q 424 138 356 138 q 535 180 494 138 q 575 293 575 222 l 575 475 q 535 587 575 546 q 424 628 494 628 q 317 586 357 628 q 276 475 276 544 z "},"П":{"ha":833,"x_min":104,"x_max":729,"o":"m 104 0 l 104 1000 l 729 1000 l 729 0 l 556 0 l 556 839 l 279 839 l 279 0 l 104 0 z "},"Б":{"ha":833,"x_min":117,"x_max":775,"o":"m 117 1000 l 732 1000 l 732 839 l 282 839 l 282 608 l 461 608 q 590 586 532 608 q 690 524 649 564 q 753 428 731 483 q 775 304 775 372 q 753 181 775 238 q 690 85 731 125 q 591 22 649 44 q 463 0 533 0 l 117 0 l 117 1000 m 282 149 l 426 149 q 553 192 506 149 q 600 307 600 236 q 553 419 600 378 q 426 460 507 460 l 282 460 l 282 149 z "},"И":{"ha":833,"x_min":96,"x_max":738,"o":"m 96 1000 l 251 1000 l 251 383 q 248 308 251 347 q 241 238 244 269 q 235 185 238 206 q 232 164 232 164 l 247 164 q 258 224 253 193 q 271 276 264 249 q 286 328 278 304 l 524 1000 l 738 1000 l 738 0 l 582 0 l 582 618 q 585 697 582 658 q 590 767 588 735 q 599 838 594 804 l 583 838 q 574 783 579 811 q 561 730 568 760 q 543 672 554 700 l 310 0 l 96 0 l 96 1000 z "},"Т":{"ha":833,"x_min":54,"x_max":779,"o":"m 54 840 l 54 1000 l 779 1000 l 779 840 l 504 840 l 504 0 l 329 0 l 329 840 l 54 840 z "},"Г":{"ha":833,"x_min":138,"x_max":747,"o":"m 747 1000 l 747 839 l 311 839 l 311 0 l 138 0 l 138 1000 l 747 1000 z "},"Ж":{"ha":833,"x_min":3,"x_max":831,"o":"m 3 0 l 157 515 l 14 1000 l 163 1000 l 286 557 l 346 557 l 346 1000 l 485 1000 l 485 557 l 544 557 l 671 1000 l 817 1000 l 675 518 l 831 0 l 683 0 l 547 475 l 485 475 l 489 0 l 350 0 l 346 475 l 283 475 l 150 0 l 3 0 z "},"Ц":{"ha":833,"x_min":104,"x_max":803,"o":"m 279 1000 l 279 160 l 525 160 l 525 1000 l 699 1000 l 699 160 l 803 160 l 803 -190 l 643 -190 l 643 0 l 104 0 l 104 1000 l 279 1000 z "},"Щ":{"ha":833,"x_min":60,"x_max":808,"o":"m 60 1000 l 196 1000 l 196 125 l 335 125 l 335 1000 l 456 1000 l 456 125 l 597 125 l 597 1000 l 733 1000 l 733 125 l 808 125 l 808 -190 l 681 -190 l 681 0 l 60 0 l 60 1000 z "},"Ш":{"ha":833,"x_min":68,"x_max":765,"o":"m 214 1000 l 214 121 l 351 121 l 351 1000 l 483 1000 l 483 121 l 619 121 l 619 1000 l 765 1000 l 765 0 l 69 0 l 68 1000 l 214 1000 z "},"З":{"ha":833,"x_min":63,"x_max":761,"o":"m 238 265 q 290 172 244 206 q 411 138 336 138 q 538 178 490 138 q 585 285 585 218 q 538 392 585 353 q 411 431 492 431 l 271 431 l 271 588 l 410 588 q 531 624 486 588 q 575 724 575 661 q 531 825 575 788 q 410 863 486 863 q 298 827 342 863 q 249 729 254 792 l 75 729 q 105 847 79 794 q 174 936 131 899 q 278 994 218 974 q 410 1014 338 1014 q 548 995 486 1014 q 653 941 610 976 q 719 856 696 906 q 743 744 743 806 q 692 593 743 651 q 553 526 640 535 l 553 514 q 705 447 649 508 q 761 283 761 385 q 737 160 761 215 q 667 67 713 106 q 556 7 621 28 q 411 -14 492 -14 q 272 6 335 -14 q 165 62 210 25 q 93 150 119 99 q 63 265 67 201 l 238 265 z "},"Й":{"ha":833,"x_min":96,"x_max":738,"o":"m 96 1000 l 251 1000 l 251 383 q 248 308 251 347 q 241 238 244 269 q 235 185 238 206 q 232 164 232 164 l 247 164 q 258 224 253 193 q 271 276 264 249 q 286 328 278 304 l 524 1000 l 738 1000 l 738 0 l 582 0 l 582 618 q 585 697 582 658 q 590 767 588 735 q 599 838 594 804 l 583 838 q 574 783 579 811 q 561 730 568 760 q 543 672 554 700 l 310 0 l 96 0 l 96 1000 m 315 1306 q 341 1242 315 1264 q 415 1221 367 1221 q 491 1242 464 1221 q 518 1306 518 1264 l 656 1306 q 638 1226 656 1263 q 590 1164 621 1190 q 515 1124 558 1138 q 417 1110 471 1110 q 319 1124 363 1110 q 244 1164 275 1138 q 195 1226 213 1190 q 178 1306 178 1263 l 315 1306 z "},"Ѕ":{"ha":833,"x_min":76,"x_max":757,"o":"m 76 265 l 254 265 q 301 172 257 206 q 421 138 346 138 q 540 172 499 138 q 582 265 582 207 q 550 355 582 317 q 463 408 518 393 l 353 440 q 160 550 225 475 q 96 738 96 625 q 119 851 96 800 q 183 939 142 903 q 285 995 225 975 q 419 1015 344 1015 q 649 942 563 1015 q 742 742 735 868 l 565 742 q 522 831 563 799 q 415 863 482 863 q 309 830 349 863 q 269 742 269 797 q 299 663 269 696 q 389 611 328 629 l 506 578 q 692 466 628 543 q 757 274 757 389 q 733 156 757 208 q 664 65 708 103 q 557 7 619 28 q 417 -14 494 -14 q 280 6 342 -14 q 174 63 218 26 q 104 150 129 99 q 76 265 79 201 z "},"ѕ":{"ha":833,"x_min":81,"x_max":750,"o":"m 81 196 l 258 196 q 301 140 267 160 q 388 119 336 119 l 443 119 q 544 145 508 119 q 579 215 579 171 q 461 308 579 292 l 353 321 q 160 393 222 338 q 97 553 97 449 q 173 719 97 661 q 390 778 249 778 l 447 778 q 651 724 574 778 q 742 575 728 671 l 564 575 q 526 626 557 607 q 447 644 494 644 l 390 644 q 268 558 268 644 q 371 472 268 485 l 483 457 q 685 383 619 440 q 750 221 750 325 q 671 47 750 108 q 443 -14 592 -14 l 388 -14 q 173 41 253 -14 q 81 196 93 96 z "},"і":{"ha":833,"x_min":115,"x_max":776,"o":"m 115 158 l 389 158 l 389 607 l 150 607 l 150 764 l 556 764 l 556 158 l 776 158 l 776 0 l 115 0 l 115 158 m 339 971 q 366 1037 339 1011 q 438 1063 393 1063 l 474 1063 q 545 1037 518 1063 q 572 971 572 1011 q 545 904 572 929 q 472 879 518 879 l 438 879 q 366 904 393 879 q 339 971 339 929 z "},"Ю":{"ha":833,"x_min":28,"x_max":806,"o":"m 28 1000 l 183 1000 l 183 590 l 301 590 l 301 758 q 319 863 301 815 q 371 943 338 910 q 451 995 404 976 q 553 1014 497 1014 q 656 995 610 1014 q 736 943 703 976 q 788 863 769 910 q 806 758 806 815 l 806 242 q 788 138 806 185 q 736 57 769 90 q 656 5 703 24 q 553 -14 610 -14 q 451 5 497 -14 q 371 57 404 24 q 319 138 338 90 q 301 242 301 185 l 301 451 l 183 451 l 183 0 l 28 0 l 28 1000 m 553 879 q 483 849 510 879 q 456 767 456 818 l 456 233 q 483 151 456 182 q 553 121 510 121 q 624 151 597 121 q 650 233 650 182 l 650 767 q 624 849 650 818 q 553 879 597 879 z "},"Ь":{"ha":833,"x_min":108,"x_max":785,"o":"m 108 1000 l 282 1000 l 282 610 l 454 610 q 590 588 529 610 q 694 527 651 567 q 761 431 738 488 q 785 306 785 375 q 761 179 785 236 q 694 83 738 122 q 590 22 651 43 q 454 0 529 0 l 108 0 l 108 1000 m 443 153 q 563 194 518 153 q 608 306 608 235 q 563 416 608 375 q 443 457 518 457 l 282 457 l 282 153 l 443 153 z "},"Ы":{"ha":833,"x_min":60,"x_max":774,"o":"m 60 1000 l 210 1000 l 210 608 l 282 608 q 394 589 344 608 q 477 534 443 569 q 530 449 511 499 q 549 338 549 399 l 549 269 q 530 160 549 210 q 477 74 511 110 q 394 19 443 39 q 282 0 344 0 l 60 0 l 60 1000 m 624 1000 l 774 1000 l 774 0 l 624 0 l 624 1000 m 210 469 l 210 140 l 278 140 q 367 174 336 140 q 399 271 399 208 l 399 336 q 367 434 399 399 q 278 469 336 469 l 210 469 z "},"Ъ":{"ha":833,"x_min":6,"x_max":797,"o":"m 6 1000 l 321 1000 l 321 608 l 467 608 q 601 586 540 608 q 706 524 663 564 q 774 428 750 485 q 797 304 797 372 q 774 180 797 236 q 706 84 750 124 q 601 22 663 44 q 467 0 540 0 l 146 0 l 146 856 l 6 856 l 6 1000 m 321 456 l 321 153 l 456 153 q 576 194 531 153 q 621 304 621 235 q 576 415 621 374 q 456 456 531 456 l 321 456 z "},"Я":{"ha":833,"x_min":56,"x_max":729,"o":"m 56 0 l 250 428 q 117 531 165 460 q 69 700 69 601 q 93 824 69 768 q 160 918 117 879 q 265 978 203 957 q 401 1000 326 1000 l 729 1000 l 729 0 l 556 0 l 556 400 l 419 400 l 242 0 l 56 0 m 401 540 l 556 540 l 556 853 l 401 853 q 288 810 331 853 q 244 694 244 767 q 287 582 244 624 q 401 540 329 540 z "},"Э":{"ha":833,"x_min":79,"x_max":740,"o":"m 79 722 q 110 843 85 789 q 179 935 136 897 q 281 993 222 972 q 410 1014 339 1014 q 546 992 485 1014 q 650 932 607 971 q 717 838 693 893 q 740 715 740 782 l 740 286 q 717 163 740 218 q 650 69 693 108 q 546 8 607 29 q 410 -14 485 -14 q 281 7 339 -14 q 179 65 222 28 q 110 157 136 103 q 79 278 85 211 l 253 278 q 298 178 257 214 q 410 142 339 142 q 525 181 483 142 q 567 289 567 221 l 567 431 l 261 431 l 261 583 l 567 583 l 567 713 q 524 819 567 779 q 410 858 482 858 q 299 822 340 858 q 253 722 257 786 l 79 722 z "},"Л":{"ha":833,"x_min":24,"x_max":733,"o":"m 24 151 l 58 151 q 157 333 153 151 l 165 1000 l 733 1000 l 733 0 l 560 0 l 560 839 l 336 839 l 329 333 q 260 80 326 167 q 69 -7 193 -7 l 24 -7 l 24 151 z "},"Д":{"ha":833,"x_min":31,"x_max":803,"o":"m 31 149 l 81 149 q 117 243 101 186 q 144 368 132 292 q 157 553 156 444 l 164 1000 l 714 1000 l 714 149 l 803 149 l 803 -194 l 643 -194 l 643 0 l 190 0 l 190 -194 l 31 -194 l 31 149 m 546 149 l 546 849 l 326 849 l 322 553 q 310 370 321 444 q 288 249 300 296 q 257 161 274 194 l 257 149 l 546 149 z "},"У":{"ha":833,"x_min":39,"x_max":794,"o":"m 39 1000 l 229 1000 l 390 567 q 406 515 400 542 q 414 465 411 488 q 421 413 418 438 l 432 413 q 438 465 433 438 q 446 515 440 488 q 460 567 451 542 l 610 1000 l 794 1000 l 424 0 l 242 0 l 344 260 l 39 1000 z "},"Ф":{"ha":833,"x_min":53,"x_max":781,"o":"m 53 672 q 74 794 53 739 q 133 890 94 850 q 226 951 172 929 q 344 972 279 972 l 344 1067 l 490 1067 l 490 972 q 609 951 556 972 q 701 890 663 929 q 760 794 739 850 q 781 672 781 739 l 781 360 q 760 238 781 293 q 700 144 739 183 q 608 84 661 106 q 490 63 556 63 l 490 -32 l 344 -32 l 344 63 q 226 84 279 63 q 133 144 172 106 q 74 238 94 183 q 53 360 53 293 l 53 672 m 199 360 q 239 244 199 288 q 344 200 279 200 l 344 835 q 239 790 279 835 q 199 672 199 746 l 199 360 m 635 672 q 594 790 635 746 q 490 835 554 835 l 490 200 q 594 244 554 200 q 635 360 635 288 l 635 672 z "},"Ч":{"ha":833,"x_min":76,"x_max":729,"o":"m 250 1000 l 250 644 q 293 546 250 582 q 410 510 336 510 q 477 514 450 510 q 522 524 504 518 q 556 536 543 529 l 556 1000 l 729 1000 l 729 0 l 556 0 l 556 292 q 556 337 556 319 q 557 365 557 354 q 558 385 557 378 q 510 369 538 376 q 451 359 486 364 q 372 354 417 354 q 156 430 235 354 q 76 638 76 506 l 76 1000 l 250 1000 z "},"н":{"ha":833,"x_min":104,"x_max":729,"o":"m 104 0 l 104 764 l 279 764 l 279 464 l 556 464 l 556 764 l 729 764 l 729 0 l 556 0 l 556 304 l 279 304 l 279 0 l 104 0 z "},"ё":{"ha":833,"x_min":85,"x_max":746,"o":"m 85 479 q 108 603 85 547 q 175 697 132 658 q 279 757 218 736 q 417 778 340 778 q 552 756 492 778 q 656 696 613 735 q 722 601 699 657 q 746 478 746 546 l 746 339 l 257 339 l 257 289 q 299 168 257 211 q 417 125 342 125 q 513 143 472 125 q 569 193 553 161 l 740 193 q 699 108 728 146 q 627 42 669 69 q 531 1 585 15 q 417 -14 478 -14 q 280 7 342 -14 q 175 67 218 28 q 108 163 132 107 q 85 286 85 218 l 85 479 m 257 456 l 576 456 l 576 478 q 534 597 576 554 q 417 639 492 639 q 299 597 342 639 q 257 479 257 554 l 257 456 m 560 1090 q 629 1067 603 1090 q 656 1003 656 1043 q 629 938 656 963 q 560 914 603 914 q 490 938 517 914 q 464 1003 464 963 q 490 1067 464 1043 q 560 1090 517 1090 m 178 1003 q 204 1067 178 1043 q 274 1090 231 1090 q 343 1067 317 1090 q 369 1003 369 1043 q 343 938 369 963 q 274 914 317 914 q 204 938 231 914 q 178 1003 178 963 z "},"и":{"ha":833,"x_min":99,"x_max":735,"o":"m 99 764 l 258 764 l 258 351 q 256 279 258 315 q 249 215 253 243 q 243 168 246 186 q 240 150 240 150 l 256 150 q 271 204 263 176 q 287 253 278 228 q 307 303 296 279 l 521 764 l 735 764 l 735 0 l 575 0 l 575 415 q 578 491 575 456 q 583 554 581 526 q 590 615 586 588 l 575 615 q 561 567 569 592 q 544 517 554 544 q 522 461 535 489 l 314 0 l 99 0 l 99 764 z "},"я":{"ha":833,"x_min":60,"x_max":729,"o":"m 244 275 q 118 360 163 301 q 74 506 74 418 q 153 696 74 628 q 376 764 233 764 l 729 764 l 729 0 l 556 0 l 556 257 l 418 257 l 261 0 l 60 0 l 244 275 m 249 507 q 285 425 249 454 q 385 396 322 396 l 556 396 l 556 621 l 385 621 q 285 590 322 621 q 249 507 249 560 z "},"п":{"ha":833,"x_min":104,"x_max":729,"o":"m 104 0 l 104 764 l 729 764 l 729 0 l 556 0 l 556 603 l 279 603 l 279 0 l 104 0 z "},"л":{"ha":833,"x_min":24,"x_max":733,"o":"m 24 151 l 58 151 q 131 190 107 151 q 157 311 156 228 l 165 764 l 733 764 l 733 0 l 560 0 l 560 603 l 336 603 l 329 301 q 260 72 326 150 q 69 -7 193 -7 l 24 -7 l 24 151 z "},"д":{"ha":833,"x_min":31,"x_max":803,"o":"m 31 149 l 79 149 q 115 214 100 175 q 142 295 131 246 q 156 411 154 344 l 164 764 l 714 764 l 714 149 l 803 149 l 803 -194 l 643 -194 l 643 0 l 190 0 l 190 -194 l 31 -194 l 31 149 m 546 149 l 546 613 l 326 613 l 321 415 q 308 298 318 346 q 288 219 299 250 q 257 161 274 183 l 257 149 l 546 149 z "},"г":{"ha":833,"x_min":146,"x_max":743,"o":"m 743 764 l 743 603 l 319 603 l 319 0 l 146 0 l 146 764 l 743 764 z "},"к":{"ha":833,"x_min":111,"x_max":796,"o":"m 285 764 l 285 463 l 407 463 l 599 764 l 792 764 l 558 393 l 796 0 l 597 0 l 407 314 l 285 314 l 285 0 l 111 0 l 111 764 l 285 764 z "},"м":{"ha":833,"x_min":74,"x_max":761,"o":"m 279 764 l 392 472 q 401 443 397 460 q 408 411 406 426 q 414 376 411 394 l 426 376 q 433 411 429 394 q 440 443 436 426 q 449 472 444 460 l 553 764 l 761 764 l 761 0 l 607 0 l 607 413 q 609 475 607 444 q 614 531 611 506 q 619 586 615 560 l 606 586 q 592 533 599 560 q 578 485 585 510 q 563 439 571 460 l 490 235 l 346 235 l 269 439 q 255 485 263 460 q 242 535 247 511 q 229 588 235 561 l 214 588 q 221 532 218 561 q 226 476 224 507 q 228 413 228 444 l 228 0 l 74 0 l 74 764 l 279 764 z "},"ф":{"ha":833,"x_min":53,"x_max":781,"o":"m 53 482 q 131 690 53 617 q 344 764 208 764 l 344 1000 l 489 1000 l 489 764 q 703 690 626 764 q 781 482 781 617 l 781 285 q 703 75 781 150 q 489 0 626 0 l 489 -236 l 344 -236 l 344 0 q 131 75 208 0 q 53 285 53 150 l 53 482 m 489 136 q 595 175 556 136 q 635 285 635 214 l 635 482 q 595 590 635 551 q 489 629 556 629 l 489 136 m 200 285 q 239 175 200 214 q 344 136 278 136 l 344 629 q 239 590 278 629 q 200 482 200 551 l 200 285 z "},"й":{"ha":833,"x_min":99,"x_max":735,"o":"m 99 764 l 258 764 l 258 351 q 256 279 258 315 q 249 215 253 243 q 243 168 246 186 q 240 150 240 150 l 256 150 q 271 204 263 176 q 287 253 278 228 q 307 303 296 279 l 521 764 l 735 764 l 735 0 l 575 0 l 575 415 q 578 491 575 456 q 583 554 581 526 q 590 615 586 588 l 575 615 q 561 567 569 592 q 544 517 554 544 q 522 461 535 489 l 314 0 l 99 0 l 99 764 m 172 1093 l 310 1093 q 338 1030 310 1051 q 415 1008 367 1008 q 494 1030 464 1008 q 525 1093 525 1051 l 661 1093 q 643 1014 661 1050 q 592 951 625 978 q 515 911 560 925 q 417 897 471 897 q 318 911 363 897 q 241 951 274 925 q 190 1014 208 978 q 172 1093 172 1050 z "},"т":{"ha":833,"x_min":54,"x_max":779,"o":"m 54 604 l 54 764 l 779 764 l 779 604 l 504 604 l 504 0 l 329 0 l 329 604 l 54 604 z "},"ж":{"ha":833,"x_min":6,"x_max":828,"o":"m 6 0 l 160 392 l 17 764 l 164 764 l 289 428 l 346 428 l 346 764 l 488 764 l 488 428 l 546 428 l 671 764 l 817 764 l 674 396 l 828 0 l 676 0 l 547 350 l 488 350 l 488 0 l 346 0 l 346 350 l 286 350 l 158 0 l 6 0 z "},"в":{"ha":833,"x_min":104,"x_max":753,"o":"m 104 0 l 104 764 l 460 764 q 663 709 590 764 q 735 558 735 654 q 688 449 735 489 q 558 406 642 408 l 558 393 q 703 347 653 392 q 753 218 753 301 q 676 58 753 115 q 464 0 600 0 l 104 0 m 269 322 l 269 132 l 456 132 q 547 157 514 132 q 579 226 579 182 q 547 297 579 271 q 456 322 514 322 l 269 322 m 269 453 l 449 453 q 531 476 501 453 q 561 542 561 500 q 531 608 561 583 q 449 632 501 632 l 269 632 l 269 453 z "},"ш":{"ha":833,"x_min":68,"x_max":765,"o":"m 214 764 l 214 122 l 346 122 l 346 764 l 489 764 l 489 122 l 621 122 l 621 764 l 765 764 l 765 0 l 69 0 l 68 764 l 214 764 z "},"щ":{"ha":833,"x_min":67,"x_max":803,"o":"m 204 764 l 204 124 l 333 124 l 333 764 l 471 764 l 471 124 l 597 124 l 597 764 l 735 764 l 735 124 l 803 124 l 803 -190 l 675 -190 l 675 0 l 67 0 l 67 764 l 204 764 z "},"ь":{"ha":833,"x_min":108,"x_max":785,"o":"m 108 764 l 282 764 l 282 514 l 492 514 q 708 446 631 514 q 785 256 785 378 q 707 67 785 135 q 493 0 629 0 l 108 0 l 108 764 m 482 153 q 576 180 543 153 q 608 257 608 207 q 576 334 608 307 q 482 361 543 361 l 282 361 l 282 153 l 482 153 z "},"ъ":{"ha":833,"x_min":0,"x_max":801,"o":"m 0 604 l 0 764 l 351 764 l 351 514 l 508 514 q 724 446 647 514 q 801 256 801 378 q 724 67 801 135 q 510 0 646 0 l 178 0 l 178 604 l 0 604 m 351 361 l 351 153 l 500 153 q 592 181 560 153 q 625 257 625 208 q 592 333 625 306 q 500 361 560 361 l 351 361 z "},"э":{"ha":833,"x_min":75,"x_max":740,"o":"m 408 -14 q 185 55 274 -14 q 75 246 97 124 l 249 246 q 303 167 260 197 q 408 138 346 138 q 524 175 482 138 q 565 283 565 213 l 565 317 l 319 317 l 319 456 l 565 456 l 565 479 q 523 588 565 550 q 408 626 481 626 q 303 597 346 626 q 249 518 260 567 l 75 518 q 185 709 97 640 q 408 778 274 778 q 545 757 483 778 q 650 698 607 736 q 717 605 693 660 q 740 482 740 550 l 740 281 q 717 158 740 213 q 650 66 693 104 q 545 7 607 28 q 408 -14 483 -14 z "},"ц":{"ha":833,"x_min":104,"x_max":803,"o":"m 279 764 l 279 160 l 525 160 l 525 764 l 699 764 l 699 160 l 803 160 l 803 -190 l 643 -190 l 643 0 l 104 0 l 104 764 l 279 764 z "},"ю":{"ha":833,"x_min":60,"x_max":775,"o":"m 60 764 l 204 764 l 204 454 l 311 454 l 311 546 q 328 642 311 599 q 374 715 344 685 q 447 761 404 744 q 542 778 490 778 q 713 715 650 778 q 775 546 775 653 l 775 219 q 712 49 775 113 q 542 -14 649 -14 q 447 3 490 -14 q 374 50 404 19 q 328 124 344 81 q 311 219 311 167 l 311 319 l 204 319 l 204 0 l 60 0 l 60 764 m 542 649 q 479 621 503 649 q 456 546 456 593 l 456 219 q 479 143 456 171 q 542 115 503 115 q 606 143 582 115 q 631 219 631 171 l 631 546 q 606 621 631 593 q 542 649 582 649 z "},"ч":{"ha":833,"x_min":76,"x_max":729,"o":"m 372 214 q 156 290 235 214 q 76 497 76 365 l 76 764 l 250 764 l 250 504 q 293 406 250 442 q 410 371 336 371 q 477 375 450 371 q 522 383 504 379 q 556 396 543 389 l 556 764 l 729 764 l 729 0 l 556 0 l 556 153 q 556 198 556 181 q 557 226 557 215 q 558 244 557 239 q 510 229 538 236 q 451 219 486 224 q 372 214 417 214 z "},"ы":{"ha":833,"x_min":68,"x_max":765,"o":"m 68 764 l 218 764 l 218 514 l 267 514 q 469 445 397 514 q 542 254 542 376 q 522 150 542 197 q 467 69 503 103 q 380 18 431 36 q 267 0 329 0 l 68 0 l 68 764 m 615 764 l 765 764 l 765 0 l 615 0 l 615 764 m 218 135 l 263 135 q 357 167 322 135 q 392 254 392 199 q 358 345 392 311 q 263 379 325 379 l 218 379 l 218 135 z "},"з":{"ha":833,"x_min":67,"x_max":750,"o":"m 372 -10 q 165 47 246 -10 q 67 206 83 104 l 240 206 q 285 151 250 171 q 372 132 319 132 l 456 132 q 542 158 511 132 q 574 226 574 183 q 543 297 574 271 q 456 322 513 322 l 268 322 l 268 460 l 449 460 q 528 483 500 460 q 556 547 556 507 q 528 610 556 589 q 449 632 500 632 l 374 632 q 291 612 325 632 q 249 556 257 592 l 76 556 q 109 646 85 606 q 172 715 133 686 q 262 758 211 743 q 374 774 313 774 l 449 774 q 657 717 582 774 q 732 564 732 660 q 685 451 732 493 q 554 404 639 410 l 554 394 q 702 343 654 388 q 750 215 750 299 q 729 122 750 164 q 670 51 708 81 q 577 6 632 22 q 456 -10 522 -10 l 372 -10 z "},"б":{"ha":833,"x_min":85,"x_max":749,"o":"m 417 -14 q 280 8 342 -14 q 175 69 218 29 q 108 164 132 108 q 85 289 85 219 l 85 607 q 112 772 85 699 q 190 895 139 844 q 314 973 240 946 q 479 1000 388 1000 l 700 1000 l 700 831 l 479 831 q 318 771 378 831 q 258 607 258 711 l 258 538 l 272 538 q 310 607 283 576 q 374 655 333 633 q 483 676 415 676 q 678 597 607 676 q 749 381 749 518 l 749 289 q 725 165 749 221 q 658 69 701 108 q 553 8 615 29 q 417 -14 492 -14 m 258 289 q 301 178 258 218 q 417 138 344 138 q 533 178 490 138 q 575 289 575 218 l 575 381 q 533 491 575 451 q 417 531 490 531 q 301 491 344 531 q 258 381 258 451 l 258 289 z "},"≠":{"ha":833,"x_min":111,"x_max":722,"o":"m 535 549 l 454 368 l 722 368 l 722 208 l 382 208 l 289 0 l 131 0 l 224 208 l 111 208 l 111 368 l 296 368 l 378 549 l 111 549 l 111 710 l 450 710 l 546 924 l 703 924 l 607 710 l 722 710 l 722 549 l 535 549 z "},"Ё":{"ha":833,"x_min":119,"x_max":735,"o":"m 119 0 l 119 1000 l 735 1000 l 735 847 l 293 847 l 293 590 l 686 590 l 686 438 l 293 438 l 293 153 l 735 153 l 735 0 l 119 0 m 560 1313 q 629 1289 603 1313 q 656 1225 656 1265 q 629 1160 656 1185 q 560 1136 603 1136 q 490 1160 517 1136 q 464 1225 464 1185 q 490 1289 464 1265 q 560 1313 517 1313 m 178 1225 q 204 1289 178 1265 q 274 1313 231 1313 q 343 1289 317 1313 q 369 1225 369 1265 q 343 1160 369 1185 q 274 1136 317 1136 q 204 1160 231 1136 q 178 1225 178 1185 z "},"І":{"ha":833,"x_min":115,"x_max":718,"o":"m 115 849 l 115 1000 l 718 1000 l 718 849 l 504 849 l 504 151 l 718 151 l 718 0 l 115 0 l 115 151 l 329 151 l 329 849 l 115 849 z "},"Ї":{"ha":833,"x_min":115,"x_max":718,"o":"m 115 849 l 115 1000 l 718 1000 l 718 849 l 504 849 l 504 151 l 718 151 l 718 0 l 115 0 l 115 151 l 329 151 l 329 849 l 115 849 m 560 1313 q 629 1289 603 1313 q 656 1225 656 1265 q 629 1160 656 1185 q 560 1136 603 1136 q 490 1160 517 1136 q 464 1225 464 1185 q 490 1289 464 1265 q 560 1313 517 1313 m 178 1225 q 204 1289 178 1265 q 274 1313 231 1313 q 343 1289 317 1313 q 369 1225 369 1265 q 343 1160 369 1185 q 274 1136 317 1136 q 204 1160 231 1136 q 178 1225 178 1185 z "},"Ј":{"ha":833,"x_min":42,"x_max":711,"o":"m 217 272 q 266 174 224 211 q 375 138 308 138 q 494 181 450 138 q 538 296 538 224 l 538 842 l 181 842 l 181 1001 l 711 1001 l 711 296 q 688 166 711 224 q 620 68 664 108 q 515 6 576 28 q 375 -15 453 -15 q 245 5 304 -15 q 143 63 186 25 q 74 153 100 100 q 42 272 47 206 l 217 272 z "},"ї":{"ha":833,"x_min":106,"x_max":774,"o":"m 560 1090 q 629 1067 603 1090 q 656 1003 656 1043 q 629 938 656 963 q 560 914 603 914 q 490 938 517 914 q 464 1003 464 963 q 490 1067 464 1043 q 560 1090 517 1090 m 178 1003 q 204 1067 178 1043 q 274 1090 231 1090 q 343 1067 317 1090 q 369 1003 369 1043 q 343 938 369 963 q 274 914 317 914 q 204 938 231 914 q 178 1003 178 963 m 106 158 l 389 158 l 389 607 l 139 607 l 139 764 l 556 764 l 556 158 l 774 158 l 774 0 l 106 0 l 106 158 z "},"ј":{"ha":833,"x_min":114,"x_max":657,"o":"m 114 -75 l 321 -75 q 424 -37 386 -75 q 463 65 463 1 l 463 603 l 156 603 l 156 764 l 636 764 l 636 65 q 614 -58 636 -3 q 552 -153 592 -114 q 456 -215 513 -193 q 331 -236 400 -236 l 114 -236 l 114 -75 m 424 971 q 451 1037 424 1011 q 522 1063 478 1063 l 558 1063 q 630 1037 603 1063 q 657 971 657 1011 q 629 904 657 929 q 557 879 601 879 l 522 879 q 451 904 478 879 q 424 971 424 929 z "},"Ґ":{"ha":833,"x_min":138,"x_max":747,"o":"m 581 1000 l 581 1146 l 747 1146 l 747 839 l 311 839 l 311 0 l 138 0 l 138 1000 l 581 1000 z "},"ґ":{"ha":833,"x_min":138,"x_max":747,"o":"m 581 764 l 581 910 l 747 910 l 747 603 l 311 603 l 311 0 l 138 0 l 138 764 l 581 764 z "},"Ѓ":{"ha":833,"x_min":138,"x_max":747,"o":"m 747 1000 l 747 839 l 311 839 l 311 0 l 138 0 l 138 1000 l 747 1000 m 410 1111 l 251 1111 l 396 1314 l 582 1314 l 410 1111 z "},"ѓ":{"ha":833,"x_min":146,"x_max":743,"o":"m 743 764 l 743 603 l 319 603 l 319 0 l 146 0 l 146 764 l 743 764 m 410 894 l 251 894 l 396 1097 l 582 1097 l 410 894 z "},"Ќ":{"ha":833,"x_min":104,"x_max":803,"o":"m 279 1000 l 279 594 l 407 594 l 599 1000 l 792 1000 l 560 521 l 803 0 l 607 0 l 407 438 l 279 438 l 279 0 l 104 0 l 104 1000 l 279 1000 m 410 1111 l 251 1111 l 396 1314 l 582 1314 l 410 1111 z "},"ќ":{"ha":833,"x_min":111,"x_max":796,"o":"m 285 764 l 285 463 l 407 463 l 599 764 l 792 764 l 558 393 l 796 0 l 597 0 l 407 314 l 285 314 l 285 0 l 111 0 l 111 764 l 285 764 m 410 894 l 251 894 l 396 1097 l 582 1097 l 410 894 z "},"Ў":{"ha":833,"x_min":39,"x_max":794,"o":"m 39 1000 l 229 1000 l 390 567 q 406 515 400 542 q 414 465 411 488 q 421 413 418 438 l 432 413 q 438 465 433 438 q 446 515 440 488 q 460 567 451 542 l 610 1000 l 794 1000 l 424 0 l 242 0 l 344 260 l 39 1000 m 315 1306 q 341 1242 315 1264 q 415 1221 367 1221 q 491 1242 464 1221 q 518 1306 518 1264 l 656 1306 q 638 1226 656 1263 q 590 1164 621 1190 q 515 1124 558 1138 q 417 1110 471 1110 q 319 1124 363 1110 q 244 1164 275 1138 q 195 1226 213 1190 q 178 1306 178 1263 l 315 1306 z "},"ў":{"ha":833,"x_min":49,"x_max":785,"o":"m 49 764 l 239 764 l 389 357 q 405 305 399 332 q 414 254 411 278 q 421 201 418 228 l 432 201 q 438 254 433 226 q 446 305 440 278 q 460 357 451 332 l 601 764 l 785 764 l 421 -236 l 238 -236 l 343 43 l 49 764 m 172 1089 l 310 1089 q 338 1026 310 1047 q 415 1004 367 1004 q 494 1026 464 1004 q 525 1089 525 1047 l 661 1089 q 643 1010 661 1046 q 592 947 625 974 q 515 907 560 921 q 417 893 471 893 q 318 907 363 893 q 241 947 274 921 q 190 1010 208 974 q 172 1089 172 1046 z "},"Џ":{"ha":833,"x_min":104,"x_max":729,"o":"m 279 1000 l 279 161 l 556 161 l 556 1000 l 729 1000 l 729 0 l 504 0 l 504 -174 l 331 -174 l 331 0 l 104 0 l 104 1000 l 279 1000 z "},"џ":{"ha":833,"x_min":104,"x_max":729,"o":"m 279 764 l 279 161 l 556 161 l 556 764 l 729 764 l 729 0 l 504 0 l 504 -174 l 331 -174 l 331 0 l 104 0 l 104 764 l 279 764 z "},"Њ":{"ha":833,"x_min":63,"x_max":814,"o":"m 207 1000 l 207 618 l 385 618 l 385 1000 l 529 1000 l 529 618 l 567 618 q 747 554 681 618 q 814 378 814 490 l 814 240 q 747 64 814 128 q 567 0 681 0 l 385 0 l 385 485 l 207 485 l 207 0 l 63 0 l 63 1000 l 207 1000 m 529 133 l 567 133 q 643 162 615 133 q 671 240 671 190 l 671 375 q 643 456 671 428 q 567 485 615 485 l 529 485 l 529 133 z "},"њ":{"ha":833,"x_min":63,"x_max":818,"o":"m 63 0 l 63 764 l 207 764 l 207 507 l 385 507 l 385 764 l 529 764 l 529 507 l 592 507 q 685 492 643 507 q 756 447 726 476 q 802 378 786 418 q 818 288 818 338 l 818 211 q 756 58 818 115 q 592 0 694 0 l 385 0 l 385 374 l 207 374 l 207 0 l 63 0 m 529 133 l 592 133 q 651 155 629 133 q 674 213 674 176 l 674 289 q 651 350 674 326 q 592 374 629 374 l 529 374 l 529 133 z "},"Љ":{"ha":833,"x_min":-11,"x_max":814,"o":"m -11 133 l 15 133 q 74 174 51 133 q 97 278 96 214 l 106 1000 l 529 1000 l 529 610 l 567 610 q 747 546 681 610 q 814 369 814 482 l 814 240 q 747 64 814 128 q 567 0 681 0 l 385 0 l 385 868 l 247 868 l 240 278 q 224 161 240 214 q 180 71 208 108 q 112 13 151 33 q 22 -7 72 -7 l -11 -7 l -11 133 m 529 133 l 567 133 q 643 162 615 133 q 671 240 671 190 l 671 368 q 643 448 671 419 q 567 476 615 476 l 529 476 l 529 133 z "},"љ":{"ha":833,"x_min":-8,"x_max":818,"o":"m 19 136 q 77 174 56 136 q 100 278 99 213 l 107 764 l 529 764 l 529 507 l 592 507 q 756 448 694 507 q 818 289 818 389 l 818 211 q 757 58 818 115 q 592 0 696 0 l 385 0 l 385 631 l 249 631 l 244 278 q 228 161 244 214 q 183 71 213 108 q 114 13 154 33 q 25 -7 74 -7 l -8 -7 l -8 136 l 19 136 m 529 374 l 529 132 l 592 132 q 651 153 629 132 q 674 211 674 175 l 674 289 q 651 351 674 328 q 592 374 629 374 l 529 374 z "},"є":{"ha":833,"x_min":99,"x_max":765,"o":"m 431 -14 q 653 55 565 -14 q 764 246 742 124 l 590 246 q 536 167 579 197 q 431 138 493 138 q 315 175 357 138 q 274 283 274 213 l 274 317 l 519 317 l 519 456 l 274 456 l 274 479 q 316 588 274 550 q 431 626 358 626 q 536 597 493 626 q 590 518 579 567 l 764 518 q 653 709 742 640 q 431 778 565 778 q 294 757 356 778 q 189 698 232 736 q 122 605 146 660 q 99 482 99 550 l 99 281 q 122 158 99 213 q 189 66 146 104 q 294 7 232 28 q 431 -14 356 -14 z "},"Є":{"ha":833,"x_min":93,"x_max":754,"o":"m 754 722 q 723 843 749 789 q 654 935 697 897 q 553 993 611 972 q 424 1014 494 1014 q 288 992 349 1014 q 183 932 226 971 q 117 838 140 893 q 93 715 93 782 l 93 286 q 117 163 93 218 q 183 69 140 108 q 288 8 226 29 q 424 -14 349 -14 q 553 7 494 -14 q 654 65 611 28 q 723 157 697 103 q 754 278 749 211 l 581 278 q 535 178 576 214 q 424 142 494 142 q 308 181 350 142 q 267 289 267 221 l 267 431 l 572 431 l 572 583 l 267 583 l 267 713 q 309 819 267 779 q 424 858 351 858 q 535 822 493 858 q 581 722 576 786 l 754 722 z "},"ћ":{"ha":833,"x_min":11,"x_max":731,"o":"m 11 764 l 11 876 l 100 876 l 100 1014 l 274 1014 l 274 876 l 414 876 l 414 764 l 274 764 l 274 699 q 272 655 274 678 q 269 613 271 632 q 265 580 267 593 q 264 567 264 567 l 278 567 q 343 674 290 636 q 479 713 396 713 q 663 638 594 713 q 731 435 731 563 l 731 0 l 557 0 l 557 414 q 519 523 557 483 q 417 563 482 563 q 312 522 350 563 q 274 410 274 481 l 274 0 l 100 0 l 100 764 l 11 764 z "},"ђ":{"ha":833,"x_min":11,"x_max":731,"o":"m 11 876 l 100 876 l 100 1014 l 274 1014 l 274 876 l 414 876 l 414 764 l 274 764 l 274 699 q 272 655 274 678 q 269 613 271 632 q 265 580 267 593 q 264 567 264 567 l 278 567 q 343 674 290 636 q 479 713 396 713 q 661 638 594 713 q 731 438 728 564 l 731 43 q 708 -71 731 -19 q 643 -159 685 -122 q 544 -216 601 -196 q 417 -236 486 -236 l 336 -236 l 336 -71 l 425 -71 q 522 -37 488 -71 q 557 56 557 -4 l 557 414 q 519 523 557 483 q 417 563 482 563 q 312 524 350 563 q 274 415 274 485 l 274 0 l 100 0 l 100 764 l 11 764 l 11 876 z "},"Ћ":{"ha":833,"x_min":0,"x_max":775,"o":"m 0 840 l 0 1000 l 476 1000 l 476 840 l 318 840 l 318 571 l 339 593 q 532 688 426 688 q 631 669 586 688 q 708 615 676 650 q 758 530 740 579 q 775 418 775 481 l 775 0 l 601 0 l 601 403 q 497 538 601 538 q 371 476 428 538 l 318 419 l 318 0 l 144 0 l 144 840 l 0 840 z "},"Ђ":{"ha":833,"x_min":0,"x_max":775,"o":"m 476 1000 l 476 840 l 318 840 l 318 571 l 339 593 q 532 688 426 688 q 631 669 586 688 q 708 615 676 650 q 757 530 739 579 q 775 418 775 481 l 775 43 q 752 -71 775 -19 q 688 -159 729 -122 q 590 -216 647 -196 q 463 -236 532 -236 l 382 -236 l 382 -71 l 471 -71 q 567 -37 533 -71 q 601 56 601 -4 l 601 403 q 497 538 601 538 q 371 476 428 538 l 318 419 l 318 0 l 144 0 l 144 840 l 0 840 l 0 1000 l 476 1000 z "},"ĳ":{"ha":833,"x_min":90,"x_max":743,"o":"m 300 -229 l 300 -76 l 413 -76 q 510 -45 475 -76 q 546 42 546 -14 l 546 764 l 719 764 l 719 42 q 697 -69 719 -19 q 634 -154 675 -118 q 537 -210 593 -190 q 413 -229 481 -229 l 300 -229 m 126 0 l 126 764 l 292 764 l 292 0 l 126 0 m 608 879 q 537 904 564 879 q 510 971 510 929 q 537 1037 510 1011 q 608 1063 564 1063 l 644 1063 q 716 1037 689 1063 q 743 971 743 1011 q 716 904 743 929 q 644 879 689 879 l 608 879 m 90 971 q 117 1037 90 1011 q 188 1063 143 1063 l 224 1063 q 295 1037 268 1063 q 322 971 322 1011 q 295 904 322 929 q 224 879 268 879 l 188 879 q 117 904 143 879 q 90 971 90 929 z "},"Ĳ":{"ha":833,"x_min":76,"x_max":760,"o":"m 432 151 q 547 190 507 151 q 586 299 586 228 l 586 840 l 389 840 l 389 1000 l 760 1000 l 760 299 q 675 77 760 154 q 432 0 590 0 l 357 0 l 357 151 l 432 151 m 251 1000 l 251 0 l 76 0 l 76 1000 l 251 1000 z "},"μ":{"ha":833,"x_min":104,"x_max":729,"o":"m 279 764 l 279 286 q 313 176 279 214 q 417 138 346 138 q 522 176 488 138 q 556 286 556 214 l 556 764 l 729 764 l 729 286 q 651 65 729 144 q 435 -14 574 -14 q 327 5 368 -14 q 263 46 286 24 q 224 106 236 72 l 214 106 q 219 93 215 106 q 229 62 224 81 q 240 22 235 43 q 246 -18 244 0 l 269 -236 l 104 -236 l 104 764 l 279 764 z "},"∏":{"ha":833,"x_min":104,"x_max":729,"o":"m 104 0 l 104 1000 l 729 1000 l 729 0 l 556 0 l 556 839 l 279 839 l 279 0 l 104 0 z "}}}
